<?xml version="1.0" encoding="UTF-8"?>
<svg width="22px" height="20px" viewBox="0 0 27 17" version="1.1" xmlns="http://www.w3.org/2000/svg" xmlns:xlink="http://www.w3.org/1999/xlink">
    <!-- Generator: sketchtool 54.1 (76490) - https://sketchapp.com -->
    <title>042C3595-798F-4108-A6C6-687FCFF05A1D</title>
    <desc>Created with sketchtool.</desc>
    <g id="Web-App" stroke="none" stroke-width="1" fill="none" fill-rule="evenodd">
        <g id="Create-Request-&gt;-3-Stipend" transform="translate(-1073.000000, -652.000000)" fill="#7F8BA0" fill-rule="nonzero">
            <g id="Group-17" transform="translate(300.000000, 359.000000)">
                <g id="Tasks">
                    <g id="Group-6-Copy-2" transform="translate(654.000000, 251.000000)">
                        <g id="Icon" transform="translate(104.000000, 23.000000)">
                            <g id="noun_Money_2513172" transform="translate(15.000000, 19.000000)">
                                <g id="Cash">
                                    <path d="M3.78,0.0607142857 L2.04,0.0607142857 C0.9,0.0607142857 1.77635684e-15,0.971428571 1.77635684e-15,2.125 L1.77635684e-15,3.88571429 C1.98,3.76428571 3.6,2.125 3.78,0.0607142857 Z" id="Path"></path>
                                    <path d="M21.18,0.0607142857 L5.22,0.0607142857 C5.04,2.91428571 2.82,5.16071429 0,5.34285714 L0,11.6571429 C2.88,11.8392857 5.22,14.0857143 5.22,16.9392857 L3.78,16.9392857 C3.78,14.875 2.1,13.175 0,13.0535714 L0,14.875 C0,16.0285714 0.9,16.9392857 2.04,16.9392857 L21.24,16.9392857 C21.48,14.1464286 23.64,11.9 26.46,11.6571429 L26.46,5.34285714 C23.64,5.22142857 21.36,2.91428571 21.18,0.0607142857 Z M5.4,10.625 C4.26,10.625 3.3,9.65357143 3.3,8.5 C3.3,7.34642857 4.26,6.375 5.4,6.375 C6.54,6.375 7.5,7.34642857 7.5,8.5 C7.5,9.65357143 6.54,10.625 5.4,10.625 Z M13.2,13.7821429 C11.28,13.7821429 9.72,11.475 9.72,8.5 C9.72,5.525 11.22,3.21785714 13.2,3.21785714 C15.12,3.21785714 16.68,5.525 16.68,8.5 C16.68,11.475 15.12,13.7821429 13.2,13.7821429 Z M21,10.625 C19.86,10.625 18.9,9.65357143 18.9,8.5 C18.9,7.34642857 19.86,6.375 21,6.375 C22.14,6.375 23.1,7.34642857 23.1,8.5 C23.1,9.65357143 22.2,10.625 21,10.625 Z" id="Shape"></path>
                                    <path d="M24.42,0.0607142857 L22.68,0.0607142857 C22.86,2.125 24.48,3.76428571 26.46,3.88571429 L26.46,2.125 C26.4,0.971428571 25.5,0.0607142857 24.42,0.0607142857 Z" id="Path"></path>
                                    <path d="M22.68,16.9392857 L24.36,16.9392857 C25.5,16.9392857 26.4,16.0285714 26.4,14.875 L26.4,13.175 C24.48,13.4178571 22.92,14.9357143 22.68,16.9392857 Z" id="Path"></path>
                                </g>
                            </g>
                        </g>
                    </g>
                </g>
            </g>
        </g>
    </g>
</svg>