<?xml version="1.0" encoding="UTF-8"?>
<svg width="22px" height="20px" viewBox="0 0 22 20" version="1.1" xmlns="http://www.w3.org/2000/svg" xmlns:xlink="http://www.w3.org/1999/xlink">
    <!-- Generator: sketchtool 54.1 (76490) - https://sketchapp.com -->
    <title>2769B815-7219-44CD-94CF-51F9538D03AE</title>
    <desc>Created with sketchtool.</desc>
    <g id="Web-App" stroke="none" stroke-width="1" fill="none" fill-rule="evenodd">
        <g id="Create-Request-&gt;-3-Stipend" transform="translate(-782.000000, -653.000000)" fill="#7F8BA0" fill-rule="nonzero">
            <g id="Group-17" transform="translate(300.000000, 359.000000)">
                <g id="Tasks">
                    <g id="Group-6-Copy" transform="translate(360.000000, 251.000000)">
                        <g id="Icon" transform="translate(104.000000, 23.000000)">
                            <path d="M27.02354,20 C26.5370209,19.9999983 26.0776326,20.2241464 25.7782234,20.607624 C25.4788143,20.9911015 25.3727785,21.491138 25.49078,21.96313 L26.84468,27.37872 C26.8820266,27.5280904 26.8484724,27.6863372 26.7537209,27.8076979 C26.6589694,27.9290586 26.5135884,27.9999975 26.35962,28 L23,28 L21.29289,26.29291 C21.1053612,26.1053583 20.851002,25.9999937 20.58578,26 L19.618,26 C19.2714311,26.0000118 18.9495775,26.1794661 18.7673782,26.4742769 C18.585179,26.7690877 18.5686144,27.137217 18.7236,27.4472 L19.7764,29.5528 C19.9171547,29.8343201 19.9171547,30.1656799 19.7764,30.4472 L18.7236,32.5528 C18.5686144,32.862783 18.585179,33.2309123 18.7673782,33.5257231 C18.9495775,33.8205339 19.2714311,33.9999882 19.618,34 L20.58575,34 C20.850972,34.0000063 21.1053312,33.8946417 21.29286,33.70709 L23,32 L26.35962,32 C26.5135884,32.0000025 26.6589694,32.0709414 26.7537209,32.1923021 C26.8484724,32.3136628 26.8820266,32.4719096 26.84468,32.62128 L25.49078,38.03687 C25.2953308,38.8186618 25.7195874,39.6222704 26.475383,39.9018627 C27.2311785,40.181455 28.0762838,39.8474228 28.43668,39.12665 L31.7236,32.5528 C31.8929838,32.2140195 32.2392347,32.0000129 32.618,32 L38,32 C38.5891819,31.9998303 39.1483551,31.7400543 39.52849,31.2899068 C39.9086249,30.8397593 40.0710953,30.2449807 39.9726,29.66409 C39.7739851,28.6788341 38.8976774,27.9776658 37.89285,28 L32.618,28 C32.2392203,28.0000023 31.8929503,27.7859934 31.72356,27.4472 L28.43668,20.87335 C28.1690474,20.3380979 27.621973,19.9999945 27.02354,20 Z" id="Flight"></path>
                        </g>
                    </g>
                </g>
            </g>
        </g>
    </g>
</svg>