<?xml version="1.0" encoding="UTF-8"?>
<svg width="30px" height="22px" viewBox="0 0 30 22" version="1.1" xmlns="http://www.w3.org/2000/svg" xmlns:xlink="http://www.w3.org/1999/xlink">
    <!-- Generator: sketchtool 54.1 (76490) - https://sketchapp.com -->
    <title>9C72CA27-C3A4-48E0-A3CE-005ED407CB16</title>
    <desc>Created with sketchtool.</desc>
    <g id="Web-App" stroke="none" stroke-width="1" fill="none" fill-rule="evenodd">
        <g id="Create-Request-&gt;-3-Stipend" transform="translate(-484.000000, -648.000000)" fill="#7F8BA0" fill-rule="nonzero">
            <g id="Group-17" transform="translate(300.000000, 359.000000)">
                <g id="Tasks">
                    <g id="Group-6" transform="translate(66.000000, 251.000000)">
                        <g id="Icon" transform="translate(104.000000, 23.000000)">
                            <path d="M43.3641304,25.3669254 L30.0366304,15.5585373 C29.4477174,14.9674925 28.4068478,14.9674925 27.8176087,15.5585373 L14.7147826,25.1406866 C14.1020652,25.7576716 14.03,26.6087761 14.6270652,27.2421791 C14.8002174,27.4244179 15.0242391,27.5327761 15.2655435,27.5859701 C15.6177174,27.6880896 15.9979348,27.6486866 16.3263043,27.4697313 C16.3533696,27.4582388 16.3771739,27.4421493 16.403587,27.4286866 C16.4143478,27.4211343 16.4257609,27.4165373 16.4368478,27.4099701 C16.5933696,27.3272239 16.7978261,27.2270746 16.9240217,27.0996716 L18.5652174,25.9776716 L18.5652174,35.8694627 C18.5652174,36.3649552 18.9118478,37 19.4048913,37 L38.588587,37 C39.0816304,37 39.7608696,36.3649552 39.7608696,35.8707761 L39.7608696,25.9776716 L41.2246739,27.1564776 C41.2553261,27.1853731 41.2403261,27.2083582 41.2716304,27.2339701 L41.3903261,27.377791 C41.941413,27.9330448 42.8238043,27.9330448 43.3752174,27.377791 C43.9266304,26.8225373 43.9148913,25.9225075 43.3641304,25.3669254 Z M28.673913,26.1641791 L33.5981522,26.1641791 C34.2548913,26.1641791 34.8695652,26.4035522 34.8695652,27.0648657 L34.8695652,29.4477612 L28.673913,29.4477612 L28.673913,26.1641791 Z M24.9901087,24.7036418 C25.7642391,24.7036418 26.4209783,25.3649552 26.4209783,26.144806 C26.4209783,26.9476418 25.7642391,27.5853134 24.9901087,27.5853134 C24.2159783,27.5853134 23.5592391,26.9479701 23.5592391,26.144806 C23.5592391,25.3646269 24.2159783,24.7036418 24.9901087,24.7036418 Z M24.2159783,28.1343284 L26.7173913,28.1343284 L26.7173913,26.5460597 C26.7173913,26.167791 27.0180435,25.8840896 27.3695652,25.8840896 C27.7452174,25.8840896 28.0217391,26.1674627 28.0217391,26.5460597 L28.0217391,28.3878209 C28.0217391,28.8130448 27.6170652,29.4477612 27.2182609,29.4477612 L24.2159783,29.4477612 C23.8409783,29.4477612 23.5592391,29.1571642 23.5592391,28.7795522 C23.5592391,28.4249254 23.8409783,28.1343284 24.2159783,28.1343284 Z M36.826087,34.3731343 L35.5217391,34.3731343 L35.5217391,32.0746269 L23.1304348,32.0746269 L23.1304348,34.3731343 L21.826087,34.3731343 L21.826087,25.1738507 C21.826087,24.7486269 22.0563043,24.3710149 22.4782609,24.3710149 C22.9002174,24.3710149 23.1304348,24.7486269 23.1304348,25.1738507 L23.1304348,30.1044776 L35.5217391,30.1044776 L35.5217391,27.1344776 C35.5217391,26.7092537 35.7633696,26.3546269 36.1621739,26.3546269 C36.5844565,26.3546269 36.826087,26.7092537 36.826087,27.1344776 L36.826087,34.3731343 Z" id="Hotel"></path>
                        </g>
                    </g>
                </g>
            </g>
        </g>
    </g>
</svg>