<?xml version="1.0" encoding="UTF-8"?>
<svg width="195px" height="172px" viewBox="0 0 195 172" version="1.1" xmlns="http://www.w3.org/2000/svg" xmlns:xlink="http://www.w3.org/1999/xlink">
    <!-- Generator: sketchtool 55.2 (78181) - https://sketchapp.com -->
    <title>E4A963A3-C67B-4E0D-9FA2-E260E2C92DBC</title>
    <desc>Created with sketchtool.</desc>
    <defs>
        <polygon id="path-1" points="0 0.0782631579 120.112491 0.0782631579 120.112491 92.7887895 0 92.7887895"></polygon>
        <linearGradient x1="50.0010874%" y1="100%" x2="50.0010874%" y2="0%" id="linearGradient-3">
            <stop stop-color="#808080" stop-opacity="0.25" offset="0%"></stop>
            <stop stop-color="#808080" stop-opacity="0.12" offset="54%"></stop>
            <stop stop-color="#808080" stop-opacity="0.1" offset="100%"></stop>
        </linearGradient>
        <linearGradient x1="49.9984331%" y1="100%" x2="49.9984331%" y2="0%" id="linearGradient-4">
            <stop stop-color="#808080" stop-opacity="0.25" offset="0%"></stop>
            <stop stop-color="#808080" stop-opacity="0.12" offset="54%"></stop>
            <stop stop-color="#808080" stop-opacity="0.1" offset="100%"></stop>
        </linearGradient>
        <linearGradient x1="0%" y1="49.9898312%" x2="100%" y2="49.9898312%" id="linearGradient-5">
            <stop stop-color="#DADADA" offset="0%"></stop>
            <stop stop-color="#FFFFFF" offset="100%"></stop>
        </linearGradient>
        <linearGradient x1="50.0015746%" y1="100%" x2="50.0015746%" y2="0%" id="linearGradient-6">
            <stop stop-color="#808080" stop-opacity="0.25" offset="0%"></stop>
            <stop stop-color="#808080" stop-opacity="0.12" offset="54%"></stop>
            <stop stop-color="#808080" stop-opacity="0.1" offset="100%"></stop>
        </linearGradient>
        <linearGradient x1="50.0015755%" y1="100%" x2="50.0015755%" y2="0%" id="linearGradient-7">
            <stop stop-color="#808080" stop-opacity="0.25" offset="0%"></stop>
            <stop stop-color="#808080" stop-opacity="0.12" offset="54%"></stop>
            <stop stop-color="#808080" stop-opacity="0.1" offset="100%"></stop>
        </linearGradient>
        <linearGradient x1="49.9973135%" y1="99.9724087%" x2="49.9973135%" y2="-0.00753905464%" id="linearGradient-8">
            <stop stop-color="#808080" stop-opacity="0.25" offset="0%"></stop>
            <stop stop-color="#808080" stop-opacity="0.12" offset="54%"></stop>
            <stop stop-color="#808080" stop-opacity="0.1" offset="100%"></stop>
        </linearGradient>
    </defs>
    <g id="Web-App" stroke="none" stroke-width="1" fill="none" fill-rule="evenodd">
        <g id="Checklist-Builder-&gt;-Copy-5" transform="translate(-623.000000, -302.000000)">
            <g id="Group-2" transform="translate(200.000000, 100.000000)">
                <g id="Illustration-Copy" transform="translate(423.000000, 202.000000)">
                    <g id="Group" transform="translate(0.000000, 38.000000)">
                        <path d="M54.3098947,74.3032105 C53.9677895,77.1084737 56.4309474,80.4611053 60.6730526,82.9926842 C65.7362105,85.8663684 71.6204211,86.5505789 74.2888421,84.4979474 C76.8888421,82.4453158 77.7098947,73.1400526 75.9993684,60.9611053 C63.6835789,65.2716316 54.9256842,69.9926842 54.3098947,74.3032105" id="Fill-16" fill="#E1E6EA"></path>
                        <path d="M38.1604737,31.6105263 C45.2762632,23.8105263 53.4183684,14.8473684 61.9025789,15.7368421 C69.9078421,16.4210526 75.5183684,30.1736842 78.8025789,41.6684211 C79.6920526,44.5421053 80.5815263,48.1684211 81.3341579,52 C93.4446842,48.3052632 106.513105,45.5 116.502579,43.7210526 L95.771,7.8 C93.041,2.94210526 87.8341579,7.10542736e-15 82.2920526,7.10542736e-15 L37.8183684,7.10542736e-15 C34.3973158,7.10542736e-15 31.1131053,1.16315789 28.4446842,3.21578947 L28.3762632,3.21578947 C25.8446842,22.1684211 24.7499474,39 27.0078421,41.9421053 C28.2394211,42.4894737 35.1499474,34.8947368 38.1604737,31.6105263" id="Fill-18" fill="#E1E6EA"></path>
                        <g id="Group-22" transform="translate(0.000000, 15.382842)">
                            <mask id="mask-2" fill="white">
                                <use xlink:href="#path-1"></use>
                            </mask>
                            <g id="Clip-21"></g>
                            <path d="M119.513789,34.5624737 C107.198,36.8203684 93.9243158,39.8993158 82.5664211,43.4572105 C84.4822105,56.1151053 84.6190526,69.7993158 78.4611579,74.5203684 C75.7927368,76.573 72.3716842,77.3256316 68.8822105,77.1203684 C64.8453684,76.9151053 60.6716842,75.4782632 57.2506316,73.4940526 C50.4085263,69.5256316 46.7822105,63.7098421 47.5348421,58.0308947 C48.6295789,50.2308947 60.3295789,43.7993158 74.8348421,38.7361579 C74.1506316,35.3151053 73.2611579,31.7572105 72.2348421,28.1308947 C67.7190526,12.5993158 62.9295789,7.26247368 61.2874737,7.12563158 C56.2927368,6.92036842 48.9716842,14.5151053 43.2243158,20.8782632 C35.9716842,28.7466842 29.7453684,35.5887895 23.5190526,32.373 C18.7295789,29.9098421 18.3190526,16.5677368 19.8927368,0.0782631579 L2.10326316,30.8677368 C-0.702,35.7256316 -0.702,41.6782632 2.10326316,46.5361579 L24.3401053,84.9887895 C27.0769474,89.8466842 32.2769474,92.7887895 37.8190526,92.7887895 L82.2927368,92.7887895 C87.8348421,92.7887895 93.0348421,89.8466842 95.7716842,84.9887895 L118.008526,46.5361579 C120.129579,42.8414211 120.676947,38.5308947 119.513789,34.5624737" id="Fill-20" fill="#E1E6EA" mask="url(#mask-2)"></path>
                        </g>
                    </g>
                    <g id="Illustration" transform="translate(82.000000, 0.000000)">
                        <polygon id="Path" fill="url(#linearGradient-3)" fill-rule="nonzero" points="112.98 84.5025175 21.018 99.8061072 21.018 132.598368 112.98 131.096876"></polygon>
                        <polygon id="Path" fill="#3359DB" fill-rule="nonzero" points="22.076 100.064709 110.972 85.2141725 110.972 129.058135 22.076 131.886713"></polygon>
                        <polygon id="Path" fill="url(#linearGradient-4)" fill-rule="nonzero" points="112.004 42.0758508 48.182 60.2862005 48.182 79.2021911 112.004 65.484289"></polygon>
                        <polygon id="Path" fill="#FFFFFF" fill-rule="nonzero" points="110.266 42.7834965 49.592 60.4626107 49.592 78.1417249 110.266 63.9988345"></polygon>
                        <path d="M59.468,66.795338 C59.468,69.4234499 58.198,71.8651282 56.646,72.246014 C55.094,72.6268998 53.878,70.8427506 53.878,68.2587413 C53.878,65.6747319 55.11,63.2470862 56.646,62.8220979 C58.182,62.3971096 59.468,64.1672261 59.468,66.795338 Z" id="Path" stroke="#DBDBDB" stroke-width="0.5"></path>
                        <polygon id="Path" fill="#DBDBDB" fill-rule="nonzero" points="103.212 54.8054545 64.672 64.9670862 64.672 62.798042 103.212 52.3497436"></polygon>
                        <polygon id="Path" fill="#DBDBDB" fill-rule="nonzero" points="103.212 59.754965 64.672 69.9165967 64.672 67.7475524 103.212 57.3012587"></polygon>
                        <path d="M39.714,114.402051 C39.714,109.420466 37.48,105.687786 34.776,106.058648 C32.126,106.423497 30.016,110.605221 30.016,115.406387 C30.016,120.207552 32.126,123.952261 34.776,123.767832 C37.49,123.579394 39.714,119.385641 39.714,114.402051 Z" id="Path" fill="#FFFFFF" fill-rule="nonzero"></path>
                        <polygon id="Path" fill="url(#linearGradient-5)" fill-rule="nonzero" points="99.684 105.721865 46.524 111.629604 46.524 108.319907 99.684 101.772681"></polygon>
                        <polygon id="Path" fill="url(#linearGradient-5)" fill-rule="nonzero" points="99.684 114.207599 46.524 120.115338 46.524 116.805641 99.684 110.258415"></polygon>
                        <polygon id="Path" fill="url(#linearGradient-6)" fill-rule="nonzero" points="110.632 147.671422 47.828 146.931702 47.828 166.112308 111.338 172"></polygon>
                        <polygon id="Path" fill="#FFFFFF" fill-rule="nonzero" points="110.266 148.858182 49.592 148.150536 49.592 165.124009 110.266 170.07352"></polygon>
                        <path d="M60.174,157.494266 C60.174,160.116364 58.904,162.1531 57.352,162.044848 C55.8,161.936597 54.586,159.771562 54.586,157.197576 C54.586,154.62359 55.818,152.586853 57.354,152.644988 C58.89,152.703124 60.174,154.872168 60.174,157.494266 Z" id="Path" stroke="#DBDBDB" stroke-width="0.5"></path>
                        <polygon id="Path" fill="#DBDBDB" fill-rule="nonzero" points="103.212 158.051562 65.926 156.261399 65.926 154.048252 103.212 155.557762"></polygon>
                        <polygon id="Path" fill="#DBDBDB" fill-rule="nonzero" points="103.212 163.001072 65.926 161.210909 65.926 158.997762 103.212 160.507273"></polygon>
                        <polygon id="Path" fill="url(#linearGradient-7)" fill-rule="nonzero" points="112.004 0 48.534 25.4932867 48.534 44.5516084 112.004 23.3362704"></polygon>
                        <polygon id="Path" fill="#FFFFFF" fill-rule="nonzero" points="110.972 1.0604662 49.592 26.517669 49.592 42.7834965 110.972 22.2758042"></polygon>
                        <path d="M62.29,29.6689977 C62.29,32.2750583 61.02,34.8530536 59.468,35.4283916 C57.916,36.0037296 56.7,34.3859674 56.7,31.8340326 C56.7,29.2820979 57.932,26.7161305 59.468,26.0946853 C61.004,25.4732401 62.29,27.0629371 62.29,29.6689977 Z" id="Path" stroke="#DBDBDB" stroke-width="0.5"></path>
                        <polygon id="Path" fill="#DBDBDB" fill-rule="nonzero" points="104.622 12.3747786 67.328 26.9246154 67.328 24.3907226 104.622 9.52214452"></polygon>
                        <polygon id="Path" fill="#DBDBDB" fill-rule="nonzero" points="104.622 18.7395804 67.328 33.2874126 67.328 30.7555245 104.622 15.8869464"></polygon>
                        <path d="M24.39,164.91352 L22.4999988,163.622517 L19.472,152.125781 L20.084,151.462238 C20.084,151.462238 20.084,147.753613 19.222,145.305921 C19.756,144.967133 20.09,144.736597 20.09,144.736597 C18.246,143.054685 18.246,136.89035 18.246,136.89035 C18.246,136.89035 17.464,132.14331 15.902,127.747086 L18.86,128.482797 L23.164,118.954639 L23.164,116.709417 L25.008,115.588811 C25.008,115.588811 22.548,112.224988 20.088,115.588811 C20.088,115.588811 20.702,117.830023 20.088,118.952634 C19.474,120.075245 17.628,123.996364 17.628,123.996364 L16.062,123.996364 L16.398,122.314452 L13.184,122.314452 C13.028,122.113986 12.87,121.927552 12.708,121.753147 L15.168,116.709417 L14.016,115.921585 L18.244,111.110396 L18.858,101.020932 C21.302,100.279207 21.858,98.0600466 21.954,96.6467599 C21.998,96.0012587 21.33,95.5101166 20.642,95.6704895 C15.334,96.9113753 16.4,99.339021 16.4,99.339021 L14.552,108.853147 L12.01,112.503636 C11.702,110.833753 10.498,109.446527 8.86,108.760932 L10.248,107.179254 C10.248,107.179254 7.11,106.415478 4.128,107.449883 C-1.382,109.358322 -1.37,116.671329 4.128,118.58979 C4.9040354,118.875873 5.73053438,118.998703 6.556,118.950629 L6.556,118.389324 C6.634,118.389324 6.71,118.389324 6.786,118.379301 C6.692,118.900513 6.604,119.489883 6.558,120.071235 L6.558,120.071235 C5.328,120.071235 5.328,126.237576 7.172,127.358182 L6.558,133.524522 L6.558,136.888345 C7.788,139.694872 10.248,139.694872 10.248,139.694872 L12.09,147.543124 C12.674,147.809744 13.434,147.789697 14.25,147.605268 L14.548,149.784336 C14.548,149.784336 9.014,153.707459 9.014,159.312494 L8.814,159.679347 L8.4,159.312494 L4.71,162.119021 L9.63,167.732075 L14.55,167.732075 C15.78,164.925548 10.86,164.368252 10.86,164.368252 L10.836,161.487552 L15.822,156.091002 C16.668,158.346247 18.176,162.094965 19.422,163.708718 L18.86,163.810956 L18.86,168.295385 L29.31,168.295385 C32.384,164.352214 24.39,164.91352 24.39,164.91352 Z" id="Path" fill="url(#linearGradient-8)" fill-rule="nonzero"></path>
                        <path d="M8.052,117.158462 C8.052,117.158462 6.832,122.294406 8.052,123.028112 L11.712,120.822984 L9.272,116.176177 L8.052,117.158462 Z" id="Path" fill="#F6B9AD" fill-rule="nonzero"></path>
                        <path d="M21.548,162.489883 L18.316,148.99049 L15.09,153.308531 C15.09,153.308531 17.784,161.948625 19.4,163.027133 L21.548,162.489883 Z" id="Path" fill="#B98B82" fill-rule="nonzero"></path>
                        <path d="M23.704,116.051888 C23.704,116.051888 21.55,112.812354 19.394,116.051888 C19.394,116.051888 19.932,118.210909 19.394,119.291422 C18.856,120.371935 17.24,124.150723 17.24,124.150723 L12.39,124.150723 L12.39,126.851002 L18.316,128.470769 L22.09,119.291422 L22.09,117.130396 L23.704,116.051888 Z" id="Path" fill="#F6B9AD" fill-rule="nonzero"></path>
                        <polygon id="Path" fill="#5989A1" fill-rule="nonzero" points="16.162 122.530956 15.084 128.470769 10.774 127.390256 10.774 122.530956"></polygon>
                        <ellipse id="Oval" fill="#F6B9AD" fill-rule="nonzero" cx="7.542" cy="113.890862" rx="4.848" ry="4.8593007"></ellipse>
                        <path d="M6.464,113.351608 L10.774,107.951049 C10.774,107.951049 8.024,107.215338 5.412,108.211655 C0.586,110.04993 0.594,117.086294 5.412,118.942611 C6.08542998,119.217828 6.81217148,119.337064 7.538,119.291422 L7.538,116.051888 L5.922,116.051888 L6.464,113.351608 Z" id="Path" fill="#3D213C" fill-rule="nonzero"></path>
                        <path d="M18.316,102.011235 L17.778,111.729837 L13.468,117.130396 L10.774,115.510629 L14.546,109.570816 L16.162,100.391469 C16.162,100.391469 15.228,98.052028 19.88,96.8572494 C20.1638183,96.7824731 20.4661984,96.8482109 20.693605,97.0341279 C20.9210116,97.220045 21.0460344,97.503732 21.03,97.7974359 C20.944,99.1586014 20.458,101.295571 18.316,102.011235 Z" id="Path" fill="#F6B9AD" fill-rule="nonzero"></path>
                        <path d="M14.006,144.670443 L14.544,148.99049 C14.544,148.99049 9.69,152.769277 9.69,158.167832 L9.152,159.248345 L10.768,160.868112 L19.388,150.608252 C19.388,150.608252 19.388,144.668438 17.772,143.048671 L14.006,144.670443 Z" id="Path" fill="#F6B9AD" fill-rule="nonzero"></path>
                        <path d="M11.29,160.254685 L11.312,163.029138 C11.312,163.029138 15.622,163.568392 14.544,166.268671 L10.236,166.268671 L5.926,160.868112 L9.158,158.167832 L11.29,160.254685 Z" id="Path" fill="#0459E4" fill-rule="nonzero"></path>
                        <path d="M21.01,161.948625 L23.164,163.568392 C23.164,163.568392 30.164,163.029138 27.474,166.807925 L18.316,166.807925 L18.316,162.489883 L21.01,161.948625 Z" id="Path" fill="#0459E4" fill-rule="nonzero"></path>
                        <path d="M19.394,144.135198 C19.394,144.135198 14.546,147.915991 12.394,146.835478 L10.778,139.275897 C10.778,139.275897 8.624,139.275897 7.546,136.575618 L7.546,133.33007 L17.782,136.569604 C17.782,136.569604 17.778,142.509417 19.394,144.135198 Z" id="Path" fill="#0459E4" fill-rule="nonzero"></path>
                        <path d="M15.09,117.130396 L10.78,113.890862 C10.78,113.890862 8.626,120.36993 7.548,120.36993 C6.47,120.36993 6.47,126.309744 8.086,127.386247 L7.548,133.326061 L17.784,136.565594 C17.784,136.565594 16.168,125.76648 12.936,121.985688 L15.09,117.130396 Z" id="Path" fill="#76B6D7" fill-rule="nonzero"></path>
                        <polygon id="Path" fill="#47E6B1" fill-rule="nonzero" points="56.89 30.0378555 58.122 29.8494172 59.354 31.0822844 60.774 28.4241026 62.29 28.4241026 59.354 32.1267133"></polygon>
                        <polygon id="Path" fill="#0459E4" fill-rule="nonzero" points="30.49 114.73683 32.452 114.434126 34.414 116.400699 36.676 112.166853 39.09 112.166853 34.414 118.064569"></polygon>
                        <polygon id="Path" fill="#000000" fill-rule="nonzero" opacity="0.2" points="30.49 114.73683 32.452 114.434126 34.414 116.400699 36.676 112.166853 39.09 112.166853 34.414 118.064569"></polygon>
                    </g>
                </g>
            </g>
        </g>
    </g>
</svg>