<?xml version="1.0" encoding="UTF-8"?>
<svg width="20px" height="16px" viewBox="0 0 20 16" version="1.1" xmlns="http://www.w3.org/2000/svg" xmlns:xlink="http://www.w3.org/1999/xlink">
    <!-- Generator: sketchtool 55.2 (78181) - https://sketchapp.com -->
    <title>39997515-5672-4DB1-8B32-8F56DCBC086D</title>
    <desc>Created with sketchtool.</desc>
    <g id="Web-App" stroke="none" stroke-width="1" fill="none" fill-rule="evenodd">
        <g id="View-Request-&gt;-2-Travel-Checklist" transform="translate(-654.000000, -220.000000)" fill="#10A36D" fill-rule="nonzero">
            <g id="top" transform="translate(300.000000, 185.000000)">
                <g id="Group-3-Copy" transform="translate(264.666667, 0.000000)">
                    <g id="Group-6" transform="translate(76.000000, 20.000000)">
                        <g id="budget-Icon" transform="translate(13.666667, 15.000000)">
                            <path fill="#2f56e3" d="M13.0625,8 C13.0625,6.64615385 14.13125,5.53846154 15.4375,5.53846154 L17.21875,5.53846154 L17.21875,2.7 C17.21875,1.20883118 16.0099188,-2.73923269e-16 14.51875,0 L2.7,0 C1.20883118,2.73923269e-16 -1.07079393e-15,1.20883118 0,2.7 L0,13.3 C1.82615513e-16,14.7911688 1.20883118,16 2.7,16 L14.51875,16 C16.0099188,16 17.21875,14.7911688 17.21875,13.3 L17.21875,10.4615385 L15.4375,10.4615385 C14.13125,10.4615385 13.0625,9.35384615 13.0625,8 Z M2.375,1.23076923 L14.84375,1.23076923 C15.1703125,1.23076923 15.4375,1.50769231 15.4375,1.84615385 C15.4375,2.18461538 15.1703125,2.46153846 14.84375,2.46153846 L2.375,2.46153846 C2.0484375,2.46153846 1.78125,2.18461538 1.78125,1.84615385 C1.78125,1.50769231 2.0484375,1.23076923 2.375,1.23076923 Z M9.5,7.38461538 C10.153125,7.38461538 10.6875,7.93846154 10.6875,8.61538462 L10.6875,9.84615385 C10.6875,10.5230769 10.153125,11.0769231 9.5,11.0769231 L9.203125,11.0769231 L9.203125,11.6923077 C9.203125,12.0307692 8.9359375,12.3076923 8.609375,12.3076923 C8.2828125,12.3076923 8.015625,12.0307692 8.015625,11.6923077 L8.015625,11.0769231 L7.71875,11.0769231 C7.065625,11.0769231 6.53125,10.5230769 6.53125,9.84615385 C6.53125,9.50769231 6.7984375,9.23076923 7.125,9.23076923 C7.4515625,9.23076923 7.71875,9.50769231 7.71875,9.84615385 L9.5,9.84615385 L9.5,8.61538462 L7.71875,8.61538462 C7.065625,8.61538462 6.53125,8.06153846 6.53125,7.38461538 L6.53125,6.15384615 C6.53125,5.47692308 7.065625,4.92307692 7.71875,4.92307692 L8.015625,4.92307692 L8.015625,4.30769231 C8.015625,3.96923077 8.2828125,3.69230769 8.609375,3.69230769 C8.9359375,3.69230769 9.203125,3.96923077 9.203125,4.30769231 L9.203125,4.92307692 L9.5,4.92307692 C10.153125,4.92307692 10.6875,5.47692308 10.6875,6.15384615 C10.6875,6.49230769 10.4203125,6.76923077 10.09375,6.76923077 C9.7671875,6.76923077 9.5,6.49230769 9.5,6.15384615 L7.71875,6.15384615 L7.71875,7.38461538 L9.5,7.38461538 Z M14.84375,14.7692308 L2.375,14.7692308 C2.0484375,14.7692308 1.78125,14.4923077 1.78125,14.1538462 C1.78125,13.8153846 2.0484375,13.5384615 2.375,13.5384615 L14.84375,13.5384615 C15.1703125,13.5384615 15.4375,13.8153846 15.4375,14.1538462 C15.4375,14.4923077 15.1703125,14.7692308 14.84375,14.7692308 Z M15.4375,6.76923077 L18.4,6.76923077 C18.7313708,6.76923077 19,7.03785992 19,7.36923077 L19,8.63076923 C19,8.96214008 18.7313708,9.23076923 18.4,9.23076923 L15.4375,9.23076923 C14.784375,9.23076923 14.25,8.67692308 14.25,8 C14.25,7.32307692 14.784375,6.76923077 15.4375,6.76923077 Z" id="Shape"></path>
                        </g>
                    </g>
                </g>
            </g>
        </g>
    </g>
</svg>