<svg width="1293" height="993" viewBox="0 0 1293 993" fill="none" xmlns="http://www.w3.org/2000/svg">
    <path opacity="0.1" d="M592.49 876.832C889.248 876.832 1129.82 858.161 1129.82 835.131C1129.82 812.1 889.248 793.43 592.49 793.43C295.732 793.43 55.1621 812.1 55.1621 835.131C55.1621 858.161 295.732 876.832 592.49 876.832Z" fill="#2F56E3" />
    <g opacity="0.1">
        <path opacity="0.1" d="M1068.4 597.511C1065.19 587.768 1052.16 583.282 1039.32 587.503C1037.47 588.106 1035.68 588.88 1033.97 589.815C1033.15 589.588 1032.3 589.386 1031.44 589.234C1032.14 586.431 1032.41 583.538 1032.24 580.654C1036.67 577.691 1040.26 573.64 1042.68 568.889C1045.09 564.138 1046.24 558.846 1046.02 553.523C1050.44 550.551 1054.02 546.497 1056.42 541.747C1058.83 536.997 1059.97 531.71 1059.75 526.392C1064.2 523.459 1067.79 519.394 1070.15 514.615C1076.35 502.357 1073.78 488.583 1064.41 483.844C1055.05 479.106 1042.42 485.209 1036.22 497.467C1033.76 502.197 1032.62 507.498 1032.9 512.82C1028.48 515.791 1024.89 519.846 1022.49 524.596C1020.09 529.346 1018.94 534.633 1019.17 539.951C1014.75 542.922 1011.16 546.977 1008.76 551.727C1006.36 556.477 1005.21 561.764 1005.44 567.082C1001.01 570.049 997.414 574.103 995.001 578.856C992.588 583.608 991.436 588.9 991.655 594.225C987.202 597.159 983.611 601.223 981.25 606.003C980.086 608.306 979.203 610.742 978.62 613.256C977.067 610.988 975.174 608.971 973.007 607.279C972.759 605.349 972.336 603.446 971.743 601.593C967.52 588.741 956.192 580.906 946.457 584.116C936.721 587.326 932.221 600.329 936.443 613.18C938.172 618.691 941.498 623.564 946.001 627.182C946.249 629.112 946.673 631.015 947.266 632.868C949.718 640.324 954.561 646.086 960.098 648.98C959.608 650.59 959.257 652.238 959.049 653.908C953.828 658.928 950.466 665.571 949.516 672.749C944.291 677.771 940.929 684.42 939.983 691.603C937.396 694.087 935.257 696.998 933.662 700.209C927.454 712.466 930.021 726.253 939.389 730.979C948.758 735.705 961.388 729.627 967.596 717.357C969.232 714.157 970.301 710.698 970.756 707.134C975.978 702.114 979.339 695.471 980.289 688.293C985.515 683.271 988.876 676.622 989.822 669.439C995.008 664.407 998.329 657.764 999.241 650.597C1004.48 645.577 1007.86 638.916 1008.8 631.718C1010.41 630.194 1011.84 628.499 1013.08 626.664C1018.25 627.723 1023.6 627.388 1028.6 625.691C1030.45 625.088 1032.24 624.314 1033.95 623.378C1039.54 624.852 1045.44 624.641 1050.91 622.772C1063.72 618.589 1071.6 607.266 1068.4 597.511Z" fill="#3F3D56" />
        <g opacity="0.1">
            <path opacity="0.1" d="M1045.73 559.096C1044.4 560.4 1042.94 561.565 1041.38 562.571C1041.58 566.178 1041.1 569.791 1039.98 573.224C1040.97 571.849 1041.86 570.4 1042.63 568.89C1044.2 565.819 1045.25 562.51 1045.73 559.096Z" fill="black" />
            <path opacity="0.1" d="M1059.46 531.965C1058.13 533.269 1056.67 534.434 1055.11 535.44C1055.31 539.048 1054.83 542.66 1053.71 546.093C1054.7 544.716 1055.59 543.262 1056.36 541.746C1057.92 538.678 1058.97 535.373 1059.46 531.965Z" fill="black" />
            <path opacity="0.1" d="M1028.32 521.868C1028.2 520.008 1028.27 518.141 1028.53 516.295C1026.08 518.713 1024.04 521.518 1022.49 524.597C1021.73 526.116 1021.08 527.692 1020.57 529.311C1022.66 526.365 1025.29 523.84 1028.32 521.868Z" fill="black" />
            <path opacity="0.1" d="M941.17 686.055C942.275 684.516 943.524 683.086 944.9 681.784C945.115 680.07 945.483 678.378 946 676.729C944.901 678.205 943.932 679.774 943.105 681.418C942.341 682.911 941.694 684.462 941.17 686.055Z" fill="black" />
            <path opacity="0.1" d="M950.703 667.227C951.808 665.688 953.057 664.258 954.433 662.956C954.639 661.286 954.99 659.637 955.482 658.027C954.432 659.461 953.502 660.978 952.701 662.564C951.919 664.066 951.251 665.625 950.703 667.227Z" fill="black" />
            <path opacity="0.1" d="M1031.99 586.226C1030.67 587.53 1029.21 588.691 1027.65 589.689C1027.82 592.573 1027.55 595.466 1026.85 598.269C1027.7 598.417 1028.55 598.611 1029.38 598.85C1031.09 597.915 1032.88 597.141 1034.73 596.538C1047.6 592.317 1060.61 596.803 1063.81 606.546C1064.6 608.995 1064.74 611.609 1064.21 614.128C1068.45 609.149 1070.2 603.084 1068.38 597.524C1065.17 587.781 1052.15 583.295 1039.31 587.515C1037.45 588.118 1035.66 588.892 1033.96 589.828C1033.14 589.6 1032.29 589.398 1031.43 589.247C1031.67 588.236 1031.85 587.237 1031.99 586.226Z" fill="black" />
            <path opacity="0.1" d="M936.467 695.521C935.368 696.996 934.399 698.565 933.572 700.209C932.804 701.732 932.153 703.312 931.625 704.935C932.754 703.388 934.023 701.95 935.418 700.638C935.613 698.904 935.964 697.191 936.467 695.521Z" fill="black" />
            <path opacity="0.1" d="M1014.53 548.999C1014.41 547.138 1014.48 545.271 1014.74 543.426C1012.28 545.844 1010.24 548.649 1008.7 551.728C1007.93 553.246 1007.29 554.822 1006.77 556.441C1008.87 553.496 1011.5 550.971 1014.53 548.999Z" fill="black" />
            <path opacity="0.1" d="M994.688 659.644C994.439 661.524 994.015 663.377 993.424 665.179C994.413 663.799 995.296 662.345 996.066 660.832C996.895 659.208 997.584 657.517 998.127 655.777C997.092 657.161 995.942 658.454 994.688 659.644Z" fill="black" />
            <path opacity="0.1" d="M975.621 697.328C975.373 699.208 974.95 701.061 974.357 702.863C975.355 701.486 976.243 700.032 977.012 698.516C977.836 696.89 978.525 695.2 979.073 693.461C978.037 694.848 976.882 696.142 975.621 697.328Z" fill="black" />
            <path opacity="0.1" d="M985.155 678.475C984.907 680.355 984.484 682.208 983.891 684.009C984.899 682.655 985.803 681.228 986.597 679.738C987.425 678.115 988.115 676.424 988.657 674.684C987.599 676.044 986.427 677.312 985.155 678.475Z" fill="black" />
            <path opacity="0.1" d="M1004.22 640.805C1003.97 642.681 1003.55 644.53 1002.96 646.327C1003.95 644.953 1004.83 643.504 1005.6 641.993C1006.44 640.341 1007.13 638.62 1007.67 636.85C1006.64 638.268 1005.49 639.592 1004.22 640.805Z" fill="black" />
            <path opacity="0.1" d="M941.803 593.151C951.563 589.954 962.891 597.776 967.089 610.627C967.68 612.485 968.104 614.393 968.353 616.326C970.52 618.019 972.413 620.035 973.966 622.303C974.549 619.785 975.432 617.345 976.596 615.037C977.039 614.178 977.519 613.357 978.012 612.51C976.577 610.525 974.876 608.748 972.955 607.228C972.707 605.298 972.284 603.395 971.691 601.541C967.468 588.69 956.14 580.855 946.405 584.065C940.842 585.885 936.998 590.901 935.506 597.245C937.217 595.361 939.386 593.951 941.803 593.151Z" fill="black" />
            <path opacity="0.1" d="M987.064 603.259C986.953 601.403 987.029 599.54 987.292 597.699C984.829 600.114 982.783 602.919 981.236 606.001C980.471 607.514 979.828 609.086 979.314 610.702C981.412 607.761 984.041 605.237 987.064 603.259Z" fill="black" />
            <path opacity="0.1" d="M1000.79 576.117C1000.68 574.26 1000.76 572.398 1001.02 570.557C998.557 572.964 996.51 575.766 994.966 578.846C994.203 580.365 993.561 581.941 993.045 583.56C995.137 580.614 997.767 578.089 1000.79 576.117Z" fill="black" />
            <path opacity="0.1" d="M966.089 716.168C965.84 718.052 965.417 719.909 964.824 721.715C966.903 718.839 968.496 715.641 969.54 712.25C968.507 713.655 967.352 714.966 966.089 716.168Z" fill="black" />
        </g>
        <path opacity="0.1" d="M1087.13 472.131C1091.59 469.202 1095.18 465.136 1097.54 460.354C1103.75 448.096 1101.18 434.31 1091.81 429.571C1082.44 424.832 1069.81 430.936 1063.61 443.206C1061.15 447.949 1060 453.263 1060.29 458.597C1055.87 461.568 1052.29 465.623 1049.89 470.373C1047.48 475.123 1046.34 480.41 1046.56 485.728C1042.1 488.654 1038.51 492.721 1036.16 497.505C1035.4 499.006 1034.76 500.565 1034.25 502.168C1037.55 497.391 1042.34 493.837 1047.86 492.059C1048.49 494.005 1049.5 495.808 1050.83 497.362C1052.17 498.916 1053.79 500.19 1055.62 501.111C1057.45 502.033 1059.44 502.583 1061.48 502.73C1063.52 502.876 1065.57 502.617 1067.51 501.966C1069.38 507.461 1069.38 513.417 1067.51 518.912C1068.5 517.55 1069.38 516.114 1070.14 514.615C1072.59 509.884 1073.74 504.583 1073.45 499.262C1077.88 496.296 1081.46 492.242 1083.87 487.491C1086.27 482.74 1087.42 477.45 1087.18 472.131H1087.13Z" fill="#3F3D56" />
        <path opacity="0.1" d="M1238.04 298.199C1241.85 296.422 1245.54 294.383 1249.07 292.096L1208.19 262.248L1256.23 286.978C1265.95 279.261 1273.99 269.642 1279.86 258.71C1285.73 247.779 1289.31 235.764 1290.37 223.403L1208.72 224.237L1290.55 210.564C1289.7 198.191 1286.33 186.121 1280.65 175.096C1274.97 164.071 1267.09 154.324 1257.5 146.454C1247.91 138.583 1236.81 132.755 1224.89 129.327C1212.96 125.9 1200.46 124.945 1188.15 126.522C1175.85 128.1 1163.99 132.175 1153.32 138.498C1142.64 144.822 1133.37 153.26 1126.08 163.294C1118.79 173.328 1113.63 184.746 1110.91 196.848C1108.19 208.949 1107.98 221.478 1110.28 233.664C1104.35 236.422 1098.73 239.812 1093.52 243.773L1136.19 303.077L1084.96 251.166C1074.15 261.777 1066.15 274.915 1061.7 289.392C1057.25 303.868 1056.48 319.226 1059.46 334.075C1043.98 341.295 1030.85 352.72 1021.56 367.046C1012.28 381.372 1007.21 398.02 1006.94 415.088C1006.67 432.155 1011.21 448.955 1020.04 463.566C1028.87 478.176 1041.64 490.01 1056.88 497.713C1072.12 505.416 1089.22 508.678 1106.23 507.127C1123.24 505.576 1139.47 499.275 1153.06 488.942C1166.66 478.609 1177.07 464.662 1183.11 448.696C1189.15 432.729 1190.57 415.385 1187.22 398.648C1205.74 390.033 1220.82 375.442 1230.04 357.222C1239.25 339.003 1242.07 318.214 1238.04 298.199Z" fill="#2F56E3" />
        <path opacity="0.1" d="M1067.51 275.049C1058.26 293.26 1055.43 314.057 1059.48 334.075C1044.01 341.294 1030.88 352.72 1021.59 367.046C1012.3 381.372 1007.24 398.02 1006.97 415.087C1006.7 432.155 1011.24 448.955 1020.07 463.565C1028.9 478.176 1041.67 490.009 1056.91 497.713C1072.15 505.416 1089.25 508.678 1106.26 507.127C1123.26 505.576 1139.49 499.274 1153.09 488.942C1166.68 478.609 1177.09 464.662 1183.13 448.695C1189.17 432.728 1190.6 415.385 1187.24 398.648C1205.11 390.358 1072.09 265.938 1067.51 275.049Z" fill="black" />
        <path opacity="0.1" d="M1170.1 143.312C1177.56 143.312 1183.61 137.264 1183.61 129.804C1183.61 122.343 1177.56 116.295 1170.1 116.295C1162.63 116.295 1156.58 122.343 1156.58 129.804C1156.58 137.264 1162.63 143.312 1170.1 143.312Z" fill="#2F56E3" />
        <path opacity="0.1" d="M1249.04 151.981C1256.5 151.981 1262.56 145.933 1262.56 138.472C1262.56 131.011 1256.5 124.963 1249.04 124.963C1241.58 124.963 1235.52 131.011 1235.52 138.472C1235.52 145.933 1241.58 151.981 1249.04 151.981Z" fill="#2F56E3" />
        <path opacity="0.1" d="M1279.48 273.369C1286.95 273.369 1293 267.321 1293 259.861C1293 252.4 1286.95 246.352 1279.48 246.352C1272.02 246.352 1265.97 252.4 1265.97 259.861C1265.97 267.321 1272.02 273.369 1279.48 273.369Z" fill="#2F56E3" />
        <path opacity="0.1" d="M1238.39 333.986C1245.86 333.986 1251.91 327.938 1251.91 320.478C1251.91 313.017 1245.86 306.969 1238.39 306.969C1230.93 306.969 1224.88 313.017 1224.88 320.478C1224.88 327.938 1230.93 333.986 1238.39 333.986Z" fill="#2F56E3" />
        <path opacity="0.1" d="M1182.26 459.884C1189.72 459.884 1195.78 453.836 1195.78 446.376C1195.78 438.915 1189.72 432.867 1182.26 432.867C1174.8 432.867 1168.74 438.915 1168.74 446.376C1168.74 453.836 1174.8 459.884 1182.26 459.884Z" fill="#2F56E3" />
        <path opacity="0.1" d="M1182.26 459.884C1189.72 459.884 1195.78 453.836 1195.78 446.376C1195.78 438.915 1189.72 432.867 1182.26 432.867C1174.8 432.867 1168.74 438.915 1168.74 446.376C1168.74 453.836 1174.8 459.884 1182.26 459.884Z" fill="black" />
        <path opacity="0.1" d="M1057.45 317.293C1064.91 317.293 1070.96 311.245 1070.96 303.784C1070.96 296.323 1064.91 290.275 1057.45 290.275C1049.98 290.275 1043.93 296.323 1043.93 303.784C1043.93 311.245 1049.98 317.293 1057.45 317.293Z" fill="#2F56E3" />
        <path opacity="0.1" d="M1057.45 317.293C1064.91 317.293 1070.96 311.245 1070.96 303.784C1070.96 296.323 1064.91 290.275 1057.45 290.275C1049.98 290.275 1043.93 296.323 1043.93 303.784C1043.93 311.245 1049.98 317.293 1057.45 317.293Z" fill="black" />
        <path opacity="0.1" d="M1043.04 525.975C1034.05 521.439 1031.33 508.587 1036.57 496.734C1036.3 497.214 1036.03 497.707 1035.78 498.225C1029.57 510.483 1032.14 524.256 1041.51 528.995C1050.87 533.734 1063.5 527.63 1069.7 515.373C1069.96 514.867 1070.19 514.349 1070.42 513.844C1063.98 525.103 1052.01 530.524 1043.04 525.975Z" fill="black" />
        <path opacity="0.1" d="M1029.68 552.359C1020.71 547.823 1017.98 534.971 1023.24 523.105C1022.96 523.598 1022.68 524.091 1022.43 524.597C1016.22 536.854 1018.79 550.641 1028.15 555.367C1037.52 560.093 1050.15 554.015 1056.36 541.744C1056.61 541.239 1056.85 540.734 1057.08 540.215C1050.63 551.475 1038.67 556.896 1029.68 552.359Z" fill="black" />
        <path opacity="0.1" d="M1016.33 578.733C1007.36 574.196 1004.63 561.345 1009.89 549.492C1009.61 549.972 1009.33 550.465 1009.08 550.983C1002.87 563.24 1005.45 577.014 1014.82 581.753C1024.18 586.492 1036.8 580.388 1043.01 568.131C1043.26 567.625 1043.5 567.107 1043.73 566.602C1037.3 577.861 1025.32 583.282 1016.33 578.733Z" fill="black" />
        <path opacity="0.1" d="M1003.03 605.18C994.045 600.644 991.327 587.792 996.573 575.939C996.295 576.419 996.03 576.912 995.764 577.417C989.569 589.675 992.136 603.462 1001.5 608.2C1010.87 612.939 1023.5 606.835 1029.7 594.565C1029.96 594.06 1030.19 593.554 1030.42 593.036C1023.94 604.232 1011.97 609.653 1003.03 605.18Z" fill="black" />
        <path opacity="0.1" d="M989.644 631.491C980.655 626.955 977.937 614.103 983.183 602.25C982.905 602.73 982.64 603.223 982.387 603.741C976.179 615.999 978.746 629.773 988.114 634.511C997.483 639.25 1010.11 633.147 1016.32 620.889C1016.57 620.384 1016.81 619.865 1017.04 619.36C1010.62 630.619 998.621 636.04 989.644 631.491Z" fill="black" />
        <path opacity="0.1" d="M976.294 657.876C967.317 653.339 964.586 640.488 969.846 628.635C969.568 629.115 969.29 629.608 969.037 630.113C962.829 642.371 965.396 656.157 974.777 660.896C984.158 665.635 996.712 659.519 1003.03 647.261C1003.29 646.756 1003.53 646.25 1003.75 645.732C997.243 656.991 985.333 662.413 976.294 657.876Z" fill="black" />
        <path opacity="0.1" d="M962.944 684.249C953.967 679.712 951.236 666.861 956.496 655.008C956.218 655.501 955.952 655.981 955.687 656.499C949.491 668.756 952.058 682.53 961.427 687.269C970.795 692.008 983.425 685.904 989.62 673.647C989.886 673.141 990.113 672.623 990.341 672.118C983.906 683.377 971.933 688.798 962.944 684.249Z" fill="black" />
        <path opacity="0.1" d="M949.604 710.634C940.615 706.097 937.897 693.246 943.144 681.393C942.866 681.873 942.6 682.366 942.347 682.871C936.14 695.129 938.706 708.915 948.075 713.654C957.443 718.393 970.074 712.289 976.281 700.019C976.534 699.514 976.762 699.008 976.989 698.49C970.554 709.749 958.581 715.12 949.604 710.634Z" fill="black" />
        <path opacity="0.1" d="M940.829 727.973C931.853 723.423 929.122 710.585 934.381 698.719C934.103 699.212 933.826 699.704 933.573 700.21C927.365 712.467 929.931 726.254 939.3 730.98C948.668 735.706 961.298 729.628 967.506 717.358C967.759 716.852 967.999 716.347 968.227 715.829C961.779 727.088 949.806 732.509 940.829 727.973Z" fill="black" />
        <path opacity="0.1" d="M1182.05 610.566C1183.44 606.574 1184.29 602.413 1184.57 598.194C1185.5 598.192 1186.42 597.999 1187.27 597.626C1188.12 597.253 1188.89 596.709 1189.52 596.028C1190.15 595.346 1190.63 594.542 1190.93 593.665C1191.24 592.789 1191.36 591.859 1191.29 590.933C1191.22 590.008 1190.96 589.107 1190.52 588.287C1190.09 587.467 1189.49 586.745 1188.76 586.167C1188.04 585.589 1187.2 585.167 1186.3 584.927C1185.4 584.688 1184.47 584.636 1183.55 584.774C1182.05 577.935 1179.04 571.516 1174.74 565.983C1170.45 560.451 1164.97 555.944 1158.72 552.791C1159.53 551.192 1159.67 549.338 1159.11 547.637C1158.55 545.935 1157.33 544.526 1155.73 543.718C1154.14 542.91 1152.28 542.771 1150.58 543.33C1148.88 543.889 1147.47 545.101 1146.66 546.7C1146.36 547.268 1146.16 547.878 1146.05 548.507C1138.63 547.126 1130.99 547.535 1123.76 549.7C1116.53 551.865 1109.93 555.723 1104.49 560.954C1100.39 560.291 1096.21 560.167 1092.08 560.588L1086.6 585.495L1086.27 561.485C1079.99 562.862 1074.05 565.504 1068.83 569.252C1063.6 572.999 1059.19 577.773 1055.88 583.281C1052.56 588.788 1050.4 594.915 1049.53 601.285C1048.66 607.655 1049.1 614.136 1050.82 620.331C1052.54 626.525 1055.51 632.304 1059.54 637.314C1063.57 642.323 1068.58 646.458 1074.27 649.466C1079.95 652.474 1086.19 654.292 1092.61 654.808C1099.02 655.325 1105.47 654.529 1111.56 652.469C1112.21 653.644 1113.2 654.596 1114.4 655.198C1115.64 655.827 1117.04 656.059 1118.42 655.862C1119.79 655.665 1121.07 655.05 1122.09 654.099C1123.1 653.149 1123.79 651.909 1124.07 650.55C1124.36 649.191 1124.21 647.778 1123.66 646.504C1125.82 645.024 1127.85 643.367 1129.73 641.551C1139.6 643.155 1149.72 641.594 1158.65 637.092C1167.58 632.591 1174.85 625.38 1179.43 616.492L1153.95 612.209L1182.05 610.566Z" fill="#2F56E3" />
        <g opacity="0.1">
            <path opacity="0.1" d="M1142.69 622.659C1133.28 610.25 1127.52 595.553 1120.88 581.451C1118.21 575.662 1115.23 570.026 1111.94 564.568L1106.96 558.768C1106.12 559.476 1105.29 560.209 1104.43 560.98C1100.33 560.316 1096.15 560.193 1092.01 560.613L1086.54 585.52L1086.21 561.51C1079.93 562.887 1073.99 565.53 1068.76 569.277C1063.54 573.025 1059.13 577.798 1055.81 583.306C1052.49 588.814 1050.33 594.94 1049.46 601.31C1048.6 607.681 1049.04 614.161 1050.76 620.356C1052.48 626.551 1055.45 632.329 1059.48 637.339C1063.51 642.348 1068.52 646.484 1074.21 649.492C1079.89 652.5 1086.13 654.317 1092.54 654.834C1098.95 655.35 1105.4 654.554 1111.5 652.494C1112.15 653.669 1113.14 654.621 1114.34 655.224C1115.58 655.852 1116.98 656.084 1118.36 655.887C1119.73 655.69 1121.01 655.075 1122.02 654.124C1123.04 653.174 1123.73 651.935 1124.01 650.575C1124.29 649.216 1124.15 647.804 1123.6 646.53C1125.75 645.049 1127.78 643.392 1129.67 641.576C1139.33 643.139 1149.24 641.674 1158.04 637.381C1152.16 633.326 1146.98 628.356 1142.69 622.659Z" fill="black" />
        </g>
        <path opacity="0.1" d="M976.117 569.332C976.638 568.301 976.886 567.155 976.838 566.001C976.789 564.848 976.445 563.726 975.838 562.744C975.232 561.761 974.384 560.95 973.374 560.389C972.365 559.828 971.228 559.535 970.073 559.538C968.157 549.383 962.961 540.136 955.281 533.216C956.519 528.391 956.988 523.402 956.672 518.431L931.828 514.198L955.951 512.681C955.518 510.418 954.922 508.188 954.169 506.009C955.108 505.363 955.872 504.495 956.394 503.482C957.002 502.274 957.234 500.912 957.06 499.57C956.886 498.229 956.313 496.971 955.416 495.959C954.519 494.947 953.338 494.226 952.027 493.892C950.716 493.557 949.335 493.622 948.062 494.08C941.673 485.057 932.324 478.556 921.638 475.707C910.952 472.858 899.605 473.841 889.568 478.485C879.532 483.129 871.441 491.14 866.7 501.127C861.96 511.114 860.87 522.446 863.619 533.153C862.156 533.77 860.963 534.891 860.256 536.312C859.636 537.536 859.404 538.919 859.59 540.278C859.777 541.637 860.373 542.907 861.3 543.919C862.227 544.931 863.441 545.636 864.779 545.941C866.117 546.246 867.516 546.135 868.79 545.625C871.215 549.696 874.237 553.38 877.754 556.556C875.193 566.536 875.966 577.08 879.954 586.581L913.268 577.937L883.557 593.556C888.811 601.899 896.542 608.393 905.669 612.129C914.796 615.865 924.864 616.657 934.463 614.393C944.063 612.129 952.714 606.923 959.208 599.503C965.702 592.082 969.713 582.819 970.68 573.009C971.825 572.91 972.925 572.52 973.877 571.877C974.828 571.233 975.599 570.357 976.117 569.332Z" fill="#2F56E3" />
        <path opacity="0.1" d="M976.117 569.331C976.638 568.301 976.886 567.154 976.838 566.001C976.789 564.847 976.445 563.726 975.838 562.743C975.232 561.761 974.384 560.95 973.374 560.389C972.365 559.827 971.228 559.534 970.073 559.538C968.157 549.382 962.961 540.135 955.281 533.216C955.483 532.419 955.66 531.636 955.812 530.84C954.93 531.479 954.113 532.202 953.372 533.001C948.884 537.916 946.583 544.525 942.145 549.492C936.911 555.355 929.072 558.413 921.246 559.234C913.42 560.056 905.544 558.855 897.819 557.352C891.421 556.088 884.935 554.622 878.45 555.241C877.817 555.241 877.185 555.38 876.604 555.481C876.983 555.848 877.362 556.214 877.754 556.568C875.193 566.548 875.966 577.092 879.954 586.593L913.268 577.937L883.557 593.555C888.811 601.899 896.542 608.393 905.669 612.129C914.796 615.865 924.864 616.656 934.463 614.392C944.063 612.128 952.714 606.922 959.208 599.502C965.702 592.082 969.713 582.819 970.68 573.008C971.825 572.909 972.925 572.52 973.877 571.876C974.828 571.232 975.599 570.356 976.117 569.331Z" fill="black" />
    </g>
    <g opacity="0.1">
        <path opacity="0.1" d="M113.143 646.035C114.761 641.119 121.323 638.857 127.796 640.98C128.727 641.285 129.629 641.674 130.489 642.143C130.907 642.029 131.336 641.928 131.754 641.852C131.398 640.441 131.262 638.983 131.349 637.53C129.127 636.028 127.325 633.984 126.115 631.591C124.905 629.198 124.326 626.536 124.433 623.857C122.192 622.383 120.385 620.337 119.199 617.931C117.964 615.547 117.383 612.878 117.518 610.197C115.278 608.715 113.471 606.666 112.283 604.258C109.173 598.091 110.438 591.154 115.179 588.753C119.92 586.352 126.267 589.448 129.389 595.614C130.623 598.003 131.199 600.676 131.058 603.361C133.286 604.854 135.093 606.894 136.304 609.287C137.515 611.679 138.09 614.342 137.974 617.021C140.201 618.518 142.007 620.561 143.218 622.955C144.429 625.349 145.004 628.014 144.89 630.694C147.118 632.187 148.924 634.228 150.135 636.62C151.346 639.012 151.922 641.675 151.806 644.354C154.05 645.834 155.861 647.884 157.052 650.293C157.621 651.459 158.045 652.69 158.317 653.958C159.096 652.812 160.046 651.794 161.136 650.938C161.266 649.963 161.486 649.003 161.793 648.069C163.93 641.599 169.632 637.657 174.55 639.224C179.468 640.791 181.719 647.4 179.607 653.869C178.735 656.648 177.059 659.106 174.79 660.933C174.659 661.903 174.439 662.859 174.133 663.789C173.095 667.219 170.784 670.122 167.672 671.902C167.916 672.729 168.094 673.574 168.203 674.429C169.509 675.682 170.591 677.147 171.402 678.764C172.229 680.376 172.768 682.121 172.995 683.919C174.305 685.17 175.392 686.636 176.207 688.254C177.032 689.867 177.571 691.612 177.8 693.41C179.113 694.663 180.199 696.133 181.011 697.757C184.134 703.923 182.844 710.873 178.128 713.249C173.412 715.625 167.04 712.567 163.918 706.387C163.094 704.773 162.555 703.029 162.324 701.232C159.69 698.706 157.996 695.359 157.52 691.741C154.886 689.216 153.191 685.869 152.716 682.251C151.407 681 150.321 679.534 149.504 677.917C148.687 676.3 148.148 674.557 147.911 672.761C146.606 671.509 145.524 670.043 144.713 668.427C143.886 666.814 143.346 665.069 143.12 663.271C142.306 662.513 141.58 661.665 140.958 660.744C138.357 661.276 135.661 661.11 133.144 660.264C132.21 659.952 131.304 659.559 130.439 659.088C127.627 659.835 124.657 659.729 121.905 658.785C115.495 656.649 111.538 650.95 113.143 646.035Z" fill="#3F3D56" />
        <g opacity="0.1">
            <path opacity="0.1" d="M124.559 626.664C125.229 627.324 125.966 627.913 126.759 628.42C126.652 630.235 126.892 632.053 127.467 633.778C126.959 633.089 126.51 632.357 126.127 631.592C125.336 630.047 124.806 628.381 124.559 626.664Z" fill="black" />
            <path opacity="0.1" d="M117.643 613.016C118.317 613.669 119.054 614.253 119.843 614.76C119.737 616.579 119.977 618.401 120.551 620.131C119.019 618.03 118.022 615.588 117.643 613.016Z" fill="black" />
            <path opacity="0.1" d="M133.357 607.923C133.418 606.986 133.384 606.047 133.256 605.117C134.492 606.337 135.521 607.75 136.303 609.3C136.685 610.066 137.006 610.86 137.264 611.676C136.211 610.189 134.885 608.916 133.357 607.923Z" fill="black" />
            <path opacity="0.1" d="M177.231 690.643C176.678 689.868 176.051 689.149 175.36 688.495C175.244 687.638 175.058 686.793 174.803 685.967C175.352 686.709 175.838 687.495 176.257 688.318C176.641 689.067 176.966 689.844 177.231 690.643Z" fill="black" />
            <path opacity="0.1" d="M172.386 681.153C171.834 680.378 171.207 679.658 170.515 679.004C170.412 678.148 170.234 677.302 169.984 676.477C171.026 677.887 171.829 679.458 172.361 681.127L172.386 681.153Z" fill="black" />
            <path opacity="0.1" d="M131.487 640.362C132.151 641.017 132.884 641.597 133.674 642.093C133.58 643.546 133.716 645.005 134.079 646.415C133.653 646.49 133.231 646.587 132.815 646.705C131.949 646.239 131.043 645.85 130.109 645.543C123.636 643.42 117.074 645.682 115.469 650.597C115.066 651.821 114.992 653.128 115.254 654.388C114.213 653.295 113.474 651.951 113.106 650.488C112.738 649.024 112.755 647.491 113.155 646.036C114.773 641.12 121.335 638.858 127.808 640.981C128.739 641.286 129.641 641.675 130.501 642.144C130.918 642.03 131.348 641.929 131.765 641.853C131.644 641.362 131.551 640.864 131.487 640.362Z" fill="black" />
            <path opacity="0.1" d="M179.605 695.406C180.157 696.151 180.643 696.941 181.059 697.769C181.445 698.535 181.771 699.329 182.033 700.145C181.48 699.366 180.854 698.642 180.162 697.984C180.049 697.111 179.863 696.248 179.605 695.406Z" fill="black" />
            <path opacity="0.1" d="M140.273 621.608C140.333 620.672 140.3 619.732 140.172 618.803C141.411 620.02 142.44 621.433 143.219 622.985C143.6 623.747 143.922 624.537 144.18 625.348C143.126 623.866 141.8 622.597 140.273 621.608Z" fill="black" />
            <path opacity="0.1" d="M150.276 677.335C150.394 678.28 150.601 679.21 150.895 680.116C149.842 678.672 149.038 677.061 148.518 675.352C149.044 676.064 149.632 676.728 150.276 677.335Z" fill="black" />
            <path opacity="0.1" d="M159.87 696.317C159.997 697.26 160.209 698.191 160.502 699.097C159.994 698.407 159.545 697.676 159.162 696.911C158.746 696.099 158.399 695.253 158.125 694.383C158.654 695.073 159.238 695.719 159.87 696.317Z" fill="black" />
            <path opacity="0.1" d="M155.079 686.826C155.197 687.77 155.405 688.701 155.698 689.606C155.195 688.914 154.747 688.183 154.358 687.42C153.941 686.609 153.594 685.763 153.322 684.893C153.849 685.587 154.437 686.234 155.079 686.826Z" fill="black" />
            <path opacity="0.1" d="M145.47 667.833C145.586 668.781 145.794 669.716 146.089 670.626C145.61 669.932 145.187 669.201 144.825 668.439C144.401 667.63 144.05 666.784 143.775 665.912C144.28 666.602 144.848 667.245 145.47 667.833Z" fill="black" />
            <path opacity="0.1" d="M176.914 643.836C171.996 642.218 166.294 646.161 164.17 652.681C163.863 653.615 163.643 654.576 163.513 655.55C162.419 656.401 161.464 657.415 160.681 658.557C160.387 657.287 159.942 656.057 159.353 654.893C159.138 654.463 158.898 654.046 158.645 653.629C159.363 652.633 160.214 651.74 161.174 650.975C161.304 650.001 161.524 649.041 161.831 648.107C163.968 641.637 169.67 637.694 174.588 639.261C175.998 639.802 177.245 640.699 178.206 641.864C179.168 643.028 179.811 644.421 180.075 645.908C179.216 644.959 178.128 644.245 176.914 643.836Z" fill="black" />
            <path opacity="0.1" d="M154.106 648.93C154.166 647.994 154.132 647.054 154.004 646.125C155.243 647.342 156.273 648.755 157.051 650.307C157.433 651.073 157.754 651.867 158.012 652.683C156.962 651.194 155.636 649.92 154.106 648.93Z" fill="black" />
            <path opacity="0.1" d="M147.189 635.254C147.249 634.318 147.215 633.379 147.088 632.449C148.321 633.671 149.35 635.084 150.135 636.632C150.516 637.398 150.838 638.192 151.095 639.008C150.042 637.521 148.716 636.248 147.189 635.254Z" fill="black" />
            <path opacity="0.1" d="M164.675 705.806C164.796 706.755 165.008 707.69 165.307 708.599C164.802 707.903 164.354 707.168 163.967 706.4C163.551 705.588 163.205 704.743 162.93 703.873C163.46 704.562 164.043 705.209 164.675 705.806Z" fill="black" />
        </g>
        <path opacity="0.1" d="M103.698 582.865C101.456 581.391 99.6497 579.345 98.4639 576.938C95.3411 570.759 96.6307 563.822 101.346 561.433C106.062 559.045 112.434 562.116 115.557 568.295C116.792 570.678 117.368 573.348 117.226 576.029C119.453 577.525 121.259 579.569 122.47 581.963C123.681 584.357 124.256 587.021 124.142 589.701C126.385 591.178 128.195 593.223 129.388 595.628C129.768 596.386 130.089 597.172 130.349 597.978C128.675 595.589 126.263 593.814 123.484 592.924C123.175 593.911 122.671 594.826 122.004 595.617C121.336 596.407 120.517 597.057 119.596 597.527C118.674 597.998 117.668 598.28 116.636 598.358C115.604 598.435 114.566 598.306 113.585 597.978C112.647 600.744 112.647 603.742 113.585 606.508C113.11 605.821 112.687 605.098 112.32 604.347C111.085 601.964 110.505 599.295 110.639 596.614C108.414 595.114 106.611 593.071 105.4 590.677C104.189 588.284 103.612 585.62 103.723 582.941L103.698 582.865Z" fill="#3F3D56" />
        <path opacity="0.1" d="M27.6884 495.243C25.7706 494.346 23.9162 493.32 22.1382 492.172L42.721 477.134L18.5223 489.581C13.6296 485.693 9.58224 480.847 6.6279 475.341C3.67355 469.836 1.87436 463.785 1.34045 457.56L42.4807 457.99L1.25195 451.09C1.60695 444.804 3.25336 438.658 6.08861 433.035C8.92386 427.412 12.8872 422.433 17.7317 418.409C22.5762 414.384 28.198 411.399 34.247 409.641C40.296 407.882 46.6424 407.388 52.891 408.188C59.1395 408.988 65.1562 411.066 70.5663 414.291C75.9764 417.517 80.6639 421.822 84.3368 426.937C88.0097 432.053 90.5893 437.87 91.9148 444.025C93.2403 450.181 93.2834 456.543 92.0413 462.716C95.0277 464.097 97.8588 465.791 100.487 467.77L78.9938 497.643L104.798 471.511C110.243 476.857 114.269 483.475 116.512 490.767C118.755 498.059 119.144 505.795 117.643 513.275C125.449 516.909 132.074 522.665 136.761 529.886C141.448 537.106 144.007 545.499 144.146 554.105C144.285 562.71 141.999 571.182 137.547 578.549C133.096 585.917 126.66 591.884 118.976 595.768C111.292 599.653 102.669 601.297 94.0934 600.513C85.518 599.729 77.3363 596.549 70.484 591.337C63.6316 586.124 58.3852 579.09 55.3447 571.037C52.3042 562.985 51.5924 554.24 53.2905 545.802C43.9738 541.462 36.3855 534.12 31.7428 524.954C27.1002 515.788 25.6724 505.329 27.6884 495.255V495.243Z" fill="#2F56E3" />
        <path opacity="0.1" d="M113.597 483.591C118.26 492.764 119.686 503.242 117.643 513.325C125.449 516.96 132.074 522.716 136.761 529.936C141.448 537.157 144.007 545.549 144.146 554.155C144.285 562.761 141.998 571.232 137.547 578.6C133.096 585.968 126.66 591.935 118.976 595.819C111.291 599.703 102.668 601.347 94.0925 600.564C85.5171 599.78 77.3354 596.6 70.4831 591.387C63.6308 586.175 58.3844 579.14 55.3439 571.088C52.3034 563.035 51.5915 554.29 53.2897 545.852C44.2752 541.669 111.284 479.004 113.597 483.591Z" fill="black" />
        <path opacity="0.1" d="M61.9123 417.224C65.6759 417.224 68.7269 414.174 68.7269 410.413C68.7269 406.651 65.6759 403.602 61.9123 403.602C58.1487 403.602 55.0977 406.651 55.0977 410.413C55.0977 414.174 58.1487 417.224 61.9123 417.224Z" fill="#2F56E3" />
        <path opacity="0.1" d="M22.1388 421.595C25.9024 421.595 28.9533 418.546 28.9533 414.784C28.9533 411.023 25.9024 407.973 22.1388 407.973C18.3752 407.973 15.3242 411.023 15.3242 414.784C15.3242 418.546 18.3752 421.595 22.1388 421.595Z" fill="#2F56E3" />
        <path opacity="0.1" d="M6.81458 482.745C10.5782 482.745 13.6292 479.695 13.6292 475.934C13.6292 472.172 10.5782 469.123 6.81458 469.123C3.05099 469.123 0 472.172 0 475.934C0 479.695 3.05099 482.745 6.81458 482.745Z" fill="#2F56E3" />
        <path opacity="0.1" d="M27.5119 513.288C31.2755 513.288 34.3265 510.238 34.3265 506.477C34.3265 502.715 31.2755 499.666 27.5119 499.666C23.7483 499.666 20.6973 502.715 20.6973 506.477C20.6973 510.238 23.7483 513.288 27.5119 513.288Z" fill="#2F56E3" />
        <path opacity="0.1" d="M55.7814 576.71C59.545 576.71 62.596 573.661 62.596 569.899C62.596 566.137 59.545 563.088 55.7814 563.088C52.0178 563.088 48.9668 566.137 48.9668 569.899C48.9668 573.661 52.0178 576.71 55.7814 576.71Z" fill="#2F56E3" />
        <path opacity="0.1" d="M55.7814 576.71C59.545 576.71 62.596 573.661 62.596 569.899C62.596 566.137 59.545 563.088 55.7814 563.088C52.0178 563.088 48.9668 566.137 48.9668 569.899C48.9668 573.661 52.0178 576.71 55.7814 576.71Z" fill="black" />
        <path opacity="0.1" d="M118.655 504.872C122.418 504.872 125.469 501.822 125.469 498.061C125.469 494.299 122.418 491.25 118.655 491.25C114.891 491.25 111.84 494.299 111.84 498.061C111.84 501.822 114.891 504.872 118.655 504.872Z" fill="#2F56E3" />
        <path opacity="0.1" d="M118.655 504.872C122.418 504.872 125.469 501.822 125.469 498.061C125.469 494.299 122.418 491.25 118.655 491.25C114.891 491.25 111.84 494.299 111.84 498.061C111.84 501.822 114.891 504.872 118.655 504.872Z" fill="black" />
        <path opacity="0.1" d="M125.923 609.996C130.45 607.709 131.815 601.239 129.173 595.262C129.312 595.514 129.451 595.755 129.577 596.007C132.7 602.187 131.41 609.124 126.682 611.512C121.953 613.901 115.607 610.83 112.484 604.651C112.357 604.398 112.231 604.145 112.117 603.88C115.366 609.554 121.397 612.283 125.923 609.996Z" fill="black" />
        <path opacity="0.1" d="M132.638 623.289C137.164 621.002 138.542 614.52 135.9 608.555C136.039 608.795 136.178 609.048 136.304 609.301C139.427 615.48 138.137 622.418 133.409 624.806C128.681 627.194 122.334 624.123 119.211 617.944C119.072 617.691 118.958 617.426 118.844 617.173C122.093 622.872 128.137 625.577 132.638 623.289Z" fill="black" />
        <path opacity="0.1" d="M139.364 636.571C143.89 634.284 145.268 627.814 142.613 621.836C142.765 622.089 142.891 622.329 143.03 622.595C146.153 628.761 144.851 635.712 140.135 638.087C135.419 640.463 129.06 637.405 125.937 631.226C125.798 630.973 125.684 630.72 125.57 630.455C128.807 636.129 134.838 638.858 139.364 636.571Z" fill="black" />
        <path opacity="0.1" d="M146.091 649.864C150.617 647.576 151.995 641.106 149.34 635.129C149.479 635.369 149.618 635.622 149.745 635.875C152.88 642.054 151.578 648.992 146.862 651.38C142.146 653.768 135.774 650.698 132.651 644.518C132.525 644.266 132.411 644 132.297 643.748C135.534 649.409 141.565 652.151 146.091 649.864Z" fill="black" />
        <path opacity="0.1" d="M152.816 663.146C157.342 660.858 158.708 654.388 156.065 648.424C156.204 648.664 156.343 648.917 156.47 649.169C159.593 655.349 158.303 662.286 153.587 664.675C148.871 667.063 142.499 663.98 139.376 657.813C139.25 657.548 139.136 657.295 139.01 657.042C142.259 662.703 148.29 665.433 152.816 663.146Z" fill="black" />
        <path opacity="0.1" d="M159.542 676.439C164.068 674.152 165.434 667.682 162.791 661.705C162.93 661.958 163.069 662.198 163.196 662.451C166.319 668.63 165.029 675.567 160.313 677.956C155.597 680.344 149.225 677.273 146.102 671.094C145.976 670.841 145.85 670.589 145.736 670.323C148.985 675.947 155.016 678.727 159.542 676.439Z" fill="black" />
        <path opacity="0.1" d="M166.269 689.732C170.783 687.445 172.161 680.962 169.518 674.998C169.657 675.238 169.796 675.49 169.923 675.743C173.046 681.922 171.756 688.86 167.028 691.248C162.299 693.637 155.952 690.553 152.83 684.387C152.703 684.121 152.577 683.868 152.463 683.616C155.712 689.277 161.743 692.019 166.269 689.732Z" fill="black" />
        <path opacity="0.1" d="M172.98 703.013C177.507 700.726 178.885 694.256 176.23 688.279C176.381 688.532 176.508 688.772 176.647 689.037C179.77 695.204 178.469 702.154 173.753 704.53C169.037 706.905 162.676 703.847 159.554 697.668C159.415 697.415 159.302 697.162 159.188 696.897C162.437 702.571 168.454 705.3 172.98 703.013Z" fill="black" />
        <path opacity="0.1" d="M177.446 711.746C181.972 709.459 183.337 702.989 180.695 697.012C180.834 697.264 180.973 697.505 181.099 697.77C184.222 703.937 182.933 710.887 178.217 713.262C173.501 715.638 167.129 712.58 164.006 706.401C163.88 706.148 163.753 705.895 163.639 705.63C166.851 711.329 172.881 714.033 177.446 711.746Z" fill="black" />
        <path opacity="0.1" d="M55.8954 652.607C55.1932 650.598 54.7679 648.502 54.6311 646.378C54.1636 646.376 53.7015 646.277 53.2736 646.089C52.8456 645.901 52.4611 645.627 52.144 645.284C51.8269 644.941 51.5841 644.536 51.4306 644.094C51.2771 643.653 51.2164 643.184 51.2521 642.719C51.2878 642.253 51.4193 641.799 51.6382 641.386C51.8572 640.973 52.159 640.61 52.5247 640.319C52.8904 640.028 53.3123 639.814 53.7639 639.694C54.2155 639.573 54.6872 639.547 55.1495 639.617C55.9081 636.173 57.4236 632.94 59.5862 630.154C61.7488 627.367 64.5044 625.096 67.6534 623.505C67.246 622.699 67.1757 621.764 67.4578 620.907C67.74 620.049 68.3515 619.338 69.158 618.931C69.9644 618.524 70.8996 618.453 71.7579 618.735C72.6162 619.017 73.3273 619.629 73.7347 620.435C73.8827 620.72 73.9851 621.027 74.0382 621.344C77.7792 620.658 81.6301 620.873 85.2713 621.972C88.9125 623.071 92.2391 625.021 94.975 627.662C97.0647 627.32 99.1909 627.26 101.297 627.485L104.053 640.021L104.116 627.928C107.251 628.652 110.207 630.003 112.805 631.899C115.403 633.796 117.59 636.2 119.234 638.964C120.878 641.728 121.945 644.796 122.371 647.983C122.797 651.171 122.572 654.413 121.711 657.511C120.85 660.61 119.37 663.502 117.361 666.013C115.351 668.525 112.854 670.602 110.019 672.123C107.184 673.644 104.07 674.576 100.866 674.862C97.6606 675.148 94.4311 674.781 91.3717 673.785C91.0389 674.373 90.5426 674.853 89.943 675.164C89.3181 675.479 88.6114 675.595 87.9186 675.495C87.2257 675.395 86.5803 675.085 86.0697 674.607C85.5591 674.128 85.2081 673.504 85.0642 672.819C84.9203 672.135 84.9904 671.422 85.2651 670.779C84.1811 670.022 83.1619 669.176 82.2182 668.251C77.2451 669.056 72.1447 668.268 67.6477 665.998C63.1508 663.728 59.4883 660.093 57.185 655.615L70.0177 653.454L55.8954 652.607Z" fill="#2F56E3" />
        <g opacity="0.1">
            <path opacity="0.1" d="M75.7187 658.697C80.4599 652.379 83.3678 645.05 86.7055 637.948C88.0422 635.025 89.5449 632.182 91.2064 629.431L93.735 626.512C94.1649 626.878 94.5821 627.245 94.9993 627.624C97.089 627.282 99.2152 627.222 101.321 627.447L104.077 639.982L104.115 627.927C107.25 628.651 110.205 630.003 112.804 631.899C115.402 633.796 117.589 636.199 119.233 638.963C120.877 641.727 121.944 644.796 122.37 647.983C122.796 651.171 122.571 654.412 121.71 657.51C120.849 660.609 119.369 663.501 117.36 666.012C115.35 668.524 112.853 670.602 110.018 672.123C107.183 673.644 104.069 674.575 100.865 674.861C97.6596 675.147 94.4302 674.781 91.3708 673.785C91.038 674.373 90.5417 674.852 89.9421 675.163C89.3172 675.478 88.6105 675.594 87.9176 675.494C87.2248 675.394 86.5794 675.084 86.0688 674.606C85.5582 674.127 85.2072 673.503 85.0633 672.818C84.9194 672.134 84.9895 671.421 85.2642 670.778C84.1801 670.021 83.161 669.176 82.2172 668.251C77.3471 669.031 72.3546 668.294 67.918 666.14C70.9021 664.095 73.5362 661.582 75.7187 658.697Z" fill="black" />
        </g>
        <path opacity="0.1" d="M159.631 631.831C159.428 631.433 159.307 630.999 159.273 630.554C159.239 630.108 159.294 629.661 159.434 629.237C159.574 628.813 159.796 628.421 160.088 628.083C160.38 627.745 160.736 627.469 161.135 627.269C161.612 627.025 162.141 626.899 162.678 626.902C163.642 621.785 166.258 617.124 170.124 613.634C169.499 611.206 169.264 608.693 169.429 606.191L181.933 604.093L169.783 603.323C170.003 602.181 170.307 601.058 170.693 599.961C170.216 599.644 169.828 599.208 169.568 598.697C169.264 598.089 169.149 597.403 169.238 596.728C169.327 596.054 169.615 595.421 170.066 594.912C170.518 594.403 171.111 594.04 171.77 593.87C172.429 593.7 173.124 593.731 173.766 593.959C175.999 590.783 178.982 588.209 182.451 586.465C186.537 584.393 191.134 583.542 195.692 584.016C200.249 584.489 204.573 586.266 208.145 589.134C211.718 592.001 214.387 595.838 215.833 600.183C217.278 604.529 217.439 609.199 216.297 613.634C216.891 613.889 217.4 614.307 217.765 614.841C218.13 615.374 218.335 616.001 218.356 616.647C218.377 617.293 218.214 617.931 217.885 618.487C217.556 619.044 217.075 619.495 216.499 619.788C216.067 620.007 215.593 620.131 215.109 620.153C214.625 620.175 214.142 620.094 213.692 619.914C212.472 621.959 210.95 623.808 209.179 625.399C210.474 630.438 210.088 635.763 208.079 640.563L191.352 636.165L206.309 644.038C204.063 647.619 200.905 650.539 197.158 652.499C193.411 654.459 189.21 655.387 184.986 655.189C180.762 654.991 176.666 653.673 173.12 651.372C169.573 649.07 166.702 645.868 164.802 642.092C163.479 639.463 162.647 636.615 162.349 633.688C161.775 633.636 161.224 633.438 160.748 633.113C160.272 632.788 159.887 632.347 159.631 631.831Z" fill="#2F56E3" />
        <path opacity="0.1" d="M159.631 631.832C159.428 631.434 159.307 631 159.273 630.555C159.239 630.11 159.294 629.662 159.434 629.238C159.574 628.814 159.796 628.422 160.088 628.084C160.38 627.747 160.736 627.47 161.135 627.27C161.612 627.026 162.141 626.9 162.678 626.904C163.642 621.786 166.258 617.125 170.124 613.635C170.023 613.243 169.935 612.839 169.859 612.447C170.312 612.77 170.736 613.134 171.123 613.534C173.386 616.061 174.549 619.334 176.775 621.836C179.563 624.711 183.311 626.461 187.306 626.752C191.263 627.024 195.239 626.705 199.102 625.804C202.288 624.984 205.575 624.622 208.863 624.73L209.798 624.856L209.217 625.4C210.512 630.439 210.126 635.764 208.117 640.564L191.352 636.166L206.309 644.039C204.063 647.62 200.905 650.541 197.158 652.5C193.411 654.46 189.21 655.388 184.986 655.19C180.762 654.992 176.666 653.675 173.12 651.373C169.573 649.072 166.702 645.869 164.802 642.093C163.479 639.464 162.647 636.617 162.349 633.689C161.775 633.638 161.224 633.44 160.748 633.114C160.272 632.789 159.887 632.348 159.631 631.832Z" fill="black" />
    </g>
    <path opacity="0.1" d="M437.889 65.5968C432.891 64.6484 427.723 65.2116 423.047 67.2143C420.241 68.4637 417.204 69.1095 414.133 69.1095C411.062 69.1095 408.025 68.4637 405.22 67.2143C401.904 65.7616 398.312 65.0465 394.693 65.1185C391.074 65.1905 387.513 66.0479 384.258 67.6313C382.399 68.6127 380.329 69.1287 378.227 69.135C369.731 69.135 362.664 60.58 361.197 49.2955C362.891 48.0544 364.333 46.5018 365.445 44.721C370.426 36.6968 378.088 31.541 386.799 31.541C395.51 31.541 403.096 36.5957 408.077 44.5694C409.565 46.964 411.645 48.9355 414.116 50.2944C416.587 51.6532 419.367 52.3537 422.187 52.3283H422.414C429.115 52.2904 434.969 57.7115 437.889 65.5968Z" fill="#2F56E3" />
    <path opacity="0.1" d="M463.707 30.2142L449.976 38.9209L458.308 23.7569C455.945 21.8751 453.022 20.8346 450.001 20.7999H449.787C448.834 20.8116 447.882 20.7397 446.942 20.5851L442.277 23.5421L444.274 19.9153C440.987 18.7718 438.14 16.6288 436.132 13.7866L427.775 19.0055L433.035 9.43957C428.167 3.5888 421.593 0 414.374 0C405.713 0 397.938 5.15575 393.007 13.18C391.531 15.5768 389.448 17.5407 386.968 18.8724C384.487 20.204 381.699 20.856 378.885 20.762H378.467C368.909 20.762 361.146 31.5916 361.146 44.9738C361.146 58.356 368.909 69.173 378.467 69.173C380.57 69.1666 382.639 68.6506 384.498 67.6692C387.753 66.0845 391.315 65.2275 394.935 65.1577C398.555 65.0878 402.146 65.8069 405.46 67.2649C408.266 68.5105 411.303 69.1541 414.374 69.1541C417.444 69.1541 420.481 68.5105 423.287 67.2649C426.575 65.8378 430.133 65.1353 433.717 65.2051C437.302 65.2749 440.829 66.1153 444.059 67.6692C445.904 68.6244 447.949 69.1268 450.027 69.1351C459.598 69.1351 467.348 58.3055 467.348 44.9359C467.381 39.802 466.13 34.7412 463.707 30.2142Z" fill="#2F56E3" />
    <path opacity="0.1" d="M152.159 240.664C145.019 239.314 137.639 240.114 130.956 242.964C126.945 244.741 122.605 245.654 118.218 245.643C113.831 245.632 109.495 244.698 105.493 242.901C100.758 240.825 95.6275 239.804 90.4581 239.906C85.2887 240.009 80.2033 241.233 75.5542 243.495C72.8952 244.895 69.9369 245.632 66.9315 245.643C54.7942 245.643 44.6925 233.424 42.5938 217.299C45.0192 215.532 47.0798 213.314 48.6624 210.766C55.7804 199.304 66.8051 191.938 79.1826 191.938C91.5601 191.938 102.446 199.216 109.526 210.551C111.654 213.986 114.636 216.813 118.18 218.755C121.725 220.697 125.713 221.688 129.755 221.633H130.071C139.655 221.62 148.024 229.367 152.159 240.664Z" fill="#2F56E3" />
    <path opacity="0.1" d="M189.077 190.054L169.455 202.488L181.365 180.842C177.989 178.149 173.811 176.659 169.493 176.609H169.177C167.814 176.629 166.451 176.527 165.106 176.305L158.481 180.589L161.338 175.408C156.624 173.761 152.552 170.665 149.707 166.562L137.797 174.144L145.294 160.371C138.328 152.018 128.947 146.9 118.63 146.9C106.253 146.9 95.228 154.254 88.11 165.716C86.0018 169.155 83.0188 171.974 79.4652 173.885C75.9115 175.797 71.9144 176.732 67.8812 176.596H67.211C53.5439 176.596 42.4688 192.076 42.4688 211.182C42.4688 230.289 53.5439 245.769 67.211 245.769C70.2183 245.761 73.1783 245.019 75.8337 243.608C80.4838 241.349 85.5695 240.127 90.7389 240.026C95.9083 239.926 101.038 240.95 105.772 243.027C109.774 244.824 114.11 245.758 118.497 245.769C122.884 245.78 127.225 244.867 131.235 243.09C135.935 241.051 141.018 240.047 146.14 240.145C151.262 240.243 156.303 241.441 160.921 243.659C163.551 245.034 166.474 245.758 169.442 245.769C183.11 245.769 194.185 230.276 194.185 211.182C194.28 203.823 192.524 196.558 189.077 190.054Z" fill="#2F56E3" />
    <path opacity="0.1" d="M945.658 114.879C950.656 113.931 955.824 114.494 960.501 116.496C963.303 117.746 966.338 118.392 969.408 118.392C972.477 118.392 975.512 117.746 978.315 116.496C981.63 115.043 985.222 114.328 988.842 114.4C992.461 114.472 996.022 115.33 999.277 116.913C1001.14 117.893 1003.21 118.409 1005.31 118.417C1013.8 118.417 1020.88 109.862 1022.35 98.5775C1020.65 97.3397 1019.21 95.7865 1018.1 94.003C1013.15 85.9535 1005.4 80.7598 996.71 80.7598C988.024 80.7598 980.426 85.8145 975.445 93.7882C973.959 96.1935 971.877 98.1749 969.401 99.5408C966.925 100.907 964.138 101.611 961.31 101.585H961.095C954.369 101.572 948.502 106.993 945.658 114.879Z" fill="#2F56E3" />
    <path opacity="0.1" d="M919.767 79.4967L933.497 88.1781L925.153 73.0141C927.516 71.1341 930.439 70.0937 933.459 70.0571H933.687C934.64 70.0681 935.591 69.9962 936.532 69.8423L941.184 72.7993L939.187 69.1726C942.498 68.0482 945.372 65.9133 947.405 63.0691L955.736 68.3512L950.464 58.7853C955.344 52.9345 961.843 49.3457 969.138 49.3457C977.798 49.3457 985.574 54.5014 990.505 62.5257C991.979 64.9234 994.062 66.888 996.543 68.2198C999.023 69.5516 1001.81 70.203 1004.63 70.1077H1005.08C1014.65 70.1077 1022.4 80.9373 1022.4 94.3195C1022.4 107.702 1014.65 118.519 1005.08 118.519C1002.98 118.51 1000.91 117.994 999.051 117.015C995.796 115.431 992.235 114.574 988.615 114.504C984.995 114.434 981.403 115.153 978.089 116.611C975.285 117.856 972.251 118.5 969.182 118.5C966.114 118.5 963.079 117.856 960.275 116.611C956.984 115.184 953.425 114.481 949.839 114.551C946.252 114.621 942.723 115.461 939.49 117.015C937.646 117.972 935.6 118.474 933.523 118.481C923.964 118.481 916.202 107.652 916.202 94.2816C916.134 89.1328 917.36 84.0494 919.767 79.4967Z" fill="#2F56E3" />
    <path d="M702.243 836.393L476.957 833.499L477.627 827.724L488.513 732.457H686.363L700.915 827.724L702.028 834.952L702.243 836.393Z" fill="#D0D2D5" />
    <path opacity="0.1" d="M702.028 834.955H589.606L476.957 833.502L477.627 827.727H700.915L702.028 834.955Z" fill="black" />
    <path d="M738.35 829.18H439.406V836.395H738.35V829.18Z" fill="#D0D2D5" />
    <path d="M1023.56 160.271C1023.58 155.292 1021.62 150.51 1018.11 146.975C1014.6 143.44 1009.83 141.441 1004.85 141.418H170.01C167.542 141.429 165.099 141.927 162.823 142.882C160.546 143.837 158.48 145.231 156.743 146.984C155.005 148.737 153.63 150.815 152.696 153.099C151.762 155.383 151.287 157.829 151.299 160.297V666.078H1023.56V160.271Z" fill="#3F3D56" />
    <path d="M151.299 661.021V720.263C151.299 725.223 153.27 729.98 156.779 733.487C160.288 736.995 165.048 738.965 170.01 738.965H1004.85C1009.82 738.965 1014.58 736.995 1018.08 733.487C1021.59 729.98 1023.56 725.223 1023.56 720.263V661.021H151.299Z" fill="#D0D2D5" />
    <path d="M991.792 173.135H187.406V627.814H991.792V173.135Z" fill="white" />
    <path d="M591.769 716.486C594.722 716.489 597.638 715.821 600.295 714.531C602.952 713.242 605.281 711.365 607.105 709.043C607.659 708.336 608.166 707.593 608.622 706.819L597.913 705.012L609.481 705.088C610.59 702.676 611.195 700.064 611.258 697.411C611.321 694.758 610.841 692.12 609.848 689.658L594.335 697.695L608.647 687.182C607.303 684.872 605.498 682.864 603.345 681.282C601.191 679.699 598.735 678.576 596.129 677.982C593.523 677.388 590.823 677.336 588.196 677.83C585.569 678.323 583.072 679.351 580.859 680.85C578.646 682.348 576.766 684.286 575.334 686.541C573.902 688.797 572.949 691.323 572.536 693.963C572.122 696.602 572.255 699.298 572.928 701.884C573.6 704.469 574.798 706.889 576.445 708.992C578.263 711.322 580.587 713.208 583.242 714.506C585.897 715.804 588.813 716.481 591.769 716.486Z" fill="#2F56E3" />
    <path opacity="0.1" d="M611.264 738.953L701.143 829.179L687.35 738.953H611.264Z" fill="black" />
    <path opacity="0.1" d="M992.033 173.186H186.775V199.748H992.033V173.186Z" fill="#444053" />
    <path opacity="0.3" d="M708.249 177.811H467.096C466.691 177.811 466.363 178.139 466.363 178.544V193.24C466.363 193.645 466.691 193.973 467.096 193.973H708.249C708.653 193.973 708.982 193.645 708.982 193.24V178.544C708.982 178.139 708.653 177.811 708.249 177.811Z" fill="#2F56E3" />
    <path d="M701.776 187.565H701.182L700.967 187.375C701.703 186.491 702.105 185.378 702.105 184.228C702.097 183.285 701.81 182.365 701.28 181.584C700.75 180.803 700 180.197 699.126 179.841C698.251 179.486 697.291 179.398 696.366 179.587C695.441 179.777 694.593 180.236 693.929 180.907C693.265 181.577 692.814 182.43 692.634 183.356C692.455 184.282 692.553 185.241 692.918 186.112C693.283 186.982 693.897 187.725 694.684 188.247C695.471 188.768 696.394 189.045 697.338 189.043C698.49 189.039 699.604 188.632 700.487 187.893L700.701 188.083V188.677L704.406 192.379L705.506 191.267L701.776 187.565ZM697.338 187.565C696.678 187.567 696.031 187.374 695.481 187.008C694.93 186.643 694.5 186.123 694.246 185.514C693.991 184.905 693.923 184.233 694.051 183.585C694.178 182.937 694.495 182.342 694.961 181.874C695.427 181.406 696.022 181.087 696.67 180.957C697.318 180.828 697.99 180.893 698.6 181.145C699.211 181.397 699.733 181.825 700.1 182.374C700.467 182.923 700.664 183.568 700.664 184.228C700.667 184.666 700.583 185.101 700.417 185.506C700.252 185.912 700.007 186.28 699.698 186.59C699.389 186.901 699.021 187.147 698.616 187.314C698.211 187.481 697.777 187.566 697.338 187.565Z" fill="#3F3D56" />
    <path opacity="0.8" d="M201.252 191.332C203.941 191.332 206.12 189.154 206.12 186.467C206.12 183.78 203.941 181.602 201.252 181.602C198.564 181.602 196.385 183.78 196.385 186.467C196.385 189.154 198.564 191.332 201.252 191.332Z" fill="#FA5959" />
    <path opacity="0.8" d="M214.64 191.332C217.329 191.332 219.508 189.154 219.508 186.467C219.508 183.78 217.329 181.602 214.64 181.602C211.952 181.602 209.773 183.78 209.773 186.467C209.773 189.154 211.952 191.332 214.64 191.332Z" fill="#FED253" />
    <path opacity="0.8" d="M228.042 191.332C230.73 191.332 232.909 189.154 232.909 186.467C232.909 183.78 230.73 181.602 228.042 181.602C225.354 181.602 223.174 183.78 223.174 186.467C223.174 189.154 225.354 191.332 228.042 191.332Z" fill="#8CCF4D" />
    <path d="M632.215 368.231C621.178 353.572 605.185 344.322 587.383 344.322C569.582 344.322 553.589 353.572 542.551 368.231C544.991 374.213 548.602 379.648 553.171 384.216C558.818 389.857 565.774 394.015 573.418 396.318C581.062 398.621 589.158 398.998 596.983 397.415C604.809 395.833 612.121 392.34 618.268 387.248C624.416 382.156 629.207 375.623 632.215 368.231Z" fill="#939393" />
    <path d="M534.497 375.548C535.19 376.05 535.936 376.474 536.722 376.812C545.193 393.934 562.741 407.039 582.881 408.138V489.328C567.647 488.419 555.446 480.748 545.193 468.781C544.308 469.451 543.65 470.058 543.043 470.626C542.192 471.432 541.597 472.471 541.334 473.613C541.071 474.755 541.151 475.949 541.564 477.046C542.12 478.556 542.265 480.187 541.982 481.771C541.7 483.356 541.001 484.837 539.957 486.062C538.913 487.288 537.562 488.213 536.042 488.745C534.522 489.276 532.888 489.394 531.308 489.086C529.727 488.778 528.257 488.055 527.049 486.992C525.84 485.928 524.936 484.563 524.429 483.035C523.922 481.508 523.831 479.873 524.165 478.298C524.499 476.724 525.246 475.267 526.329 474.076C526.655 473.718 527.01 473.389 527.391 473.09C527.61 472.89 527.852 472.716 528.112 472.572C529.503 467.543 532.803 463.006 538.163 458.849C532.13 448.544 528.439 437.038 527.353 425.147C526.572 425.154 525.791 425.205 525.014 425.299C523.96 425.44 522.965 425.869 522.138 426.537C521.31 427.206 520.683 428.089 520.324 429.09C519.74 430.642 518.743 432.004 517.439 433.03C516.136 434.056 514.577 434.706 512.93 434.91C511.284 435.113 509.613 434.862 508.099 434.185C506.585 433.507 505.286 432.428 504.341 431.065C503.397 429.701 502.844 428.106 502.742 426.451C502.64 424.796 502.993 423.145 503.763 421.676C504.533 420.207 505.69 418.977 507.109 418.119C508.529 417.26 510.156 416.807 511.815 416.807C512.183 416.813 512.55 416.838 512.915 416.883C514.273 415.906 515.78 415.155 517.378 414.659C520.499 413.683 523.743 413.159 527.012 413.104C527.334 404.674 528.929 396.341 531.741 388.387C529.698 387.226 527.771 385.872 525.988 384.343C524.25 382.791 522.825 380.921 521.79 378.834C521.243 377.779 520.405 376.902 519.376 376.306C518.583 375.83 517.86 375.248 517.226 374.575C516.103 373.364 515.331 371.869 514.994 370.252C514.658 368.635 514.77 366.957 515.317 365.398C515.865 363.84 516.828 362.46 518.102 361.409C519.377 360.357 520.914 359.673 522.549 359.43C524.184 359.188 525.854 359.396 527.379 360.032C528.904 360.668 530.226 361.709 531.203 363.041C532.18 364.373 532.775 365.947 532.923 367.592C533.071 369.237 532.767 370.891 532.044 372.376C532.61 373.606 533.449 374.691 534.497 375.548Z" fill="#939393" />
    <path d="M639.895 375.304C639.202 375.806 638.456 376.23 637.67 376.568C629.199 393.69 611.65 406.795 591.51 407.894V489.084C606.745 488.174 618.945 480.504 629.199 468.537C630.084 469.207 630.741 469.813 631.348 470.382C632.2 471.188 632.794 472.227 633.057 473.369C633.32 474.511 633.24 475.705 632.827 476.802C632.271 478.312 632.127 479.943 632.409 481.527C632.691 483.112 633.39 484.593 634.434 485.818C635.478 487.043 636.829 487.969 638.349 488.501C639.869 489.032 641.503 489.149 643.084 488.841C644.664 488.533 646.134 487.811 647.343 486.747C648.552 485.684 649.456 484.319 649.962 482.791C650.469 481.264 650.56 479.629 650.226 478.054C649.892 476.48 649.145 475.023 648.062 473.832C647.736 473.474 647.381 473.144 647 472.846C646.781 472.646 646.539 472.472 646.279 472.328C644.889 467.299 641.589 462.762 636.228 458.605C642.261 448.299 645.952 436.793 647.038 424.903C647.82 424.91 648.601 424.961 649.377 425.054C650.431 425.196 651.427 425.624 652.254 426.293C653.081 426.962 653.708 427.845 654.067 428.845C654.651 430.397 655.649 431.76 656.952 432.786C658.255 433.812 659.815 434.462 661.461 434.665C663.107 434.869 664.778 434.618 666.292 433.94C667.806 433.263 669.106 432.184 670.05 430.82C670.995 429.457 671.548 427.862 671.65 426.207C671.752 424.552 671.398 422.9 670.629 421.432C669.859 419.963 668.701 418.733 667.282 417.875C665.863 417.016 664.235 416.563 662.576 416.563C662.209 416.569 661.841 416.594 661.476 416.638C660.118 415.662 658.611 414.911 657.013 414.414C653.893 413.439 650.649 412.915 647.379 412.86C647.057 404.43 645.463 396.097 642.651 388.143C644.694 386.982 646.62 385.628 648.403 384.099C650.142 382.547 651.566 380.677 652.601 378.59C653.149 377.534 653.986 376.658 655.016 376.062C655.808 375.586 656.531 375.004 657.165 374.331C658.289 373.12 659.061 371.625 659.397 370.008C659.733 368.391 659.622 366.712 659.074 365.154C658.526 363.596 657.563 362.216 656.289 361.164C655.015 360.113 653.477 359.429 651.843 359.186C650.208 358.944 648.538 359.152 647.013 359.788C645.488 360.424 644.165 361.465 643.188 362.797C642.211 364.129 641.616 365.702 641.468 367.348C641.32 368.993 641.624 370.647 642.347 372.132C641.781 373.362 640.942 374.446 639.895 375.304Z" fill="#939393" />
    <path d="M1028.02 836.533C1050.56 836.533 1068.84 833.02 1068.84 828.686C1068.84 824.352 1050.56 820.838 1028.02 820.838C1005.47 820.838 987.191 824.352 987.191 828.686C987.191 833.02 1005.47 836.533 1028.02 836.533Z" fill="#676767" />
    <path d="M1027.33 831.568C1029.96 831.568 1032.09 828.784 1032.09 825.351C1032.09 821.917 1029.96 819.133 1027.33 819.133C1024.71 819.133 1022.58 821.917 1022.58 825.351C1022.58 828.784 1024.71 831.568 1027.33 831.568Z" fill="#3F3D56" />
    <path d="M1027.33 823.96C1029.96 823.96 1032.09 821.176 1032.09 817.743C1032.09 814.309 1029.96 811.525 1027.33 811.525C1024.71 811.525 1022.58 814.309 1022.58 817.743C1022.58 821.176 1024.71 823.96 1027.33 823.96Z" fill="#3F3D56" />
    <path d="M1027.33 816.366C1029.96 816.366 1032.09 813.583 1032.09 810.149C1032.09 806.715 1029.96 803.932 1027.33 803.932C1024.71 803.932 1022.58 806.715 1022.58 810.149C1022.58 813.583 1024.71 816.366 1027.33 816.366Z" fill="#3F3D56" />
    <path d="M1027.33 808.757C1029.96 808.757 1032.09 805.973 1032.09 802.54C1032.09 799.106 1029.96 796.322 1027.33 796.322C1024.71 796.322 1022.58 799.106 1022.58 802.54C1022.58 805.973 1024.71 808.757 1027.33 808.757Z" fill="#3F3D56" />
    <path d="M1027.33 801.152C1029.96 801.152 1032.09 798.368 1032.09 794.935C1032.09 791.501 1029.96 788.717 1027.33 788.717C1024.71 788.717 1022.58 791.501 1022.58 794.935C1022.58 798.368 1024.71 801.152 1027.33 801.152Z" fill="#3F3D56" />
    <path d="M1027.33 793.555C1029.96 793.555 1032.09 790.771 1032.09 787.338C1032.09 783.904 1029.96 781.121 1027.33 781.121C1024.71 781.121 1022.58 783.904 1022.58 787.338C1022.58 790.771 1024.71 793.555 1027.33 793.555Z" fill="#3F3D56" />
    <path d="M1027.33 785.949C1029.96 785.949 1032.09 783.165 1032.09 779.731C1032.09 776.298 1029.96 773.514 1027.33 773.514C1024.71 773.514 1022.58 776.298 1022.58 779.731C1022.58 783.165 1024.71 785.949 1027.33 785.949Z" fill="#3F3D56" />
    <path d="M1045.12 727.757C1045.77 726.93 1046.36 726.061 1046.89 725.154L1034.4 723.106L1047.92 723.195C1049.21 720.375 1049.91 717.323 1049.98 714.223C1050.06 711.123 1049.5 708.04 1048.35 705.162L1030.21 714.564L1046.93 702.281C1045.36 699.583 1043.25 697.236 1040.74 695.386C1038.22 693.537 1035.36 692.224 1032.31 691.53C1029.27 690.837 1026.11 690.776 1023.04 691.353C1019.98 691.93 1017.06 693.131 1014.48 694.883C1011.89 696.635 1009.7 698.899 1008.03 701.536C1006.36 704.172 1005.25 707.124 1004.76 710.207C1004.28 713.29 1004.44 716.44 1005.23 719.459C1006.02 722.478 1007.43 725.303 1009.35 727.757C1008.34 729.04 1007.47 730.43 1006.75 731.902L1022.97 740.33L1005.67 734.53C1004.47 738.111 1004.17 741.936 1004.81 745.661C1005.46 749.385 1007.02 752.89 1009.35 755.861C1006.72 759.216 1005.08 763.246 1004.62 767.489C1004.17 771.732 1004.92 776.018 1006.78 779.856C1008.65 783.694 1011.56 786.929 1015.18 789.193C1018.8 791.457 1022.98 792.657 1027.25 792.657C1031.52 792.657 1035.7 791.457 1039.32 789.193C1042.94 786.929 1045.85 783.694 1047.72 779.856C1049.58 776.018 1050.33 771.732 1049.88 767.489C1049.42 763.246 1047.78 759.216 1045.15 755.861C1048.31 751.85 1050.02 746.894 1050.02 741.79C1050.02 736.685 1048.31 731.729 1045.15 727.719L1045.12 727.757Z" fill="#9E9E9E" />
    <path opacity="0.1" d="M1004.45 741.784C1004.45 746.895 1006.18 751.857 1009.35 755.861C1006.72 759.217 1005.08 763.247 1004.62 767.49C1004.17 771.733 1004.92 776.018 1006.78 779.856C1008.65 783.694 1011.56 786.93 1015.18 789.194C1018.8 791.457 1022.98 792.658 1027.25 792.658C1031.52 792.658 1035.7 791.457 1039.32 789.194C1042.94 786.93 1045.85 783.694 1047.72 779.856C1049.58 776.018 1050.33 771.733 1049.88 767.49C1049.42 763.247 1047.78 759.217 1045.15 755.861C1048.17 751.981 1004.45 739.231 1004.45 741.784Z" fill="black" />
    <path d="M187.646 993C220.108 993 246.424 987.942 246.424 981.703C246.424 975.464 220.108 970.406 187.646 970.406C155.185 970.406 128.869 975.464 128.869 981.703C128.869 987.942 155.185 993 187.646 993Z" fill="#575757" />
    <path d="M186.661 985.86C190.439 985.86 193.501 981.849 193.501 976.901C193.501 971.953 190.439 967.941 186.661 967.941C182.884 967.941 179.822 971.953 179.822 976.901C179.822 981.849 182.884 985.86 186.661 985.86Z" fill="#3F3D56" />
    <path d="M186.661 974.917C190.439 974.917 193.501 970.906 193.501 965.957C193.501 961.009 190.439 956.998 186.661 956.998C182.884 956.998 179.822 961.009 179.822 965.957C179.822 970.906 182.884 974.917 186.661 974.917Z" fill="#3F3D56" />
    <path d="M186.661 963.974C190.439 963.974 193.501 959.963 193.501 955.015C193.501 950.066 190.439 946.055 186.661 946.055C182.884 946.055 179.822 950.066 179.822 955.015C179.822 959.963 182.884 963.974 186.661 963.974Z" fill="#3F3D56" />
    <path d="M186.661 953.03C190.439 953.03 193.501 949.019 193.501 944.071C193.501 939.123 190.439 935.111 186.661 935.111C182.884 935.111 179.822 939.123 179.822 944.071C179.822 949.019 182.884 953.03 186.661 953.03Z" fill="#3F3D56" />
    <path d="M186.661 942.087C190.439 942.087 193.501 938.075 193.501 933.127C193.501 928.179 190.439 924.168 186.661 924.168C182.884 924.168 179.822 928.179 179.822 933.127C179.822 938.075 182.884 942.087 186.661 942.087Z" fill="#3F3D56" />
    <path d="M186.661 931.132C190.439 931.132 193.501 927.121 193.501 922.173C193.501 917.225 190.439 913.213 186.661 913.213C182.884 913.213 179.822 917.225 179.822 922.173C179.822 927.121 182.884 931.132 186.661 931.132Z" fill="#3F3D56" />
    <path d="M186.661 920.188C190.439 920.188 193.501 916.177 193.501 911.229C193.501 906.281 190.439 902.27 186.661 902.27C182.884 902.27 179.822 906.281 179.822 911.229C179.822 916.177 182.884 920.188 186.661 920.188Z" fill="#3F3D56" />
    <path d="M212.276 836.343C213.202 835.137 214.046 833.871 214.805 832.552L196.826 829.595L216.271 829.747C218.135 825.688 219.151 821.292 219.258 816.827C219.364 812.362 218.559 807.922 216.891 803.779L190.821 817.351L214.842 799.659C212.593 795.758 209.563 792.362 205.942 789.684C202.322 787.005 198.187 785.101 193.797 784.09C189.407 783.08 184.856 782.984 180.428 783.81C175.999 784.636 171.789 786.364 168.059 788.889C164.328 791.413 161.159 794.679 158.748 798.482C156.336 802.286 154.735 806.545 154.044 810.994C153.353 815.443 153.586 819.987 154.73 824.342C155.874 828.697 157.904 832.769 160.693 836.306C159.216 838.151 157.944 840.15 156.9 842.27L180.251 854.401L155.357 846.048C153.612 851.227 153.191 856.76 154.132 862.143C155.073 867.526 157.345 872.588 160.743 876.869C156.939 881.702 154.573 887.508 153.914 893.622C153.256 899.736 154.332 905.912 157.02 911.443C159.708 916.975 163.899 921.638 169.114 924.901C174.329 928.164 180.357 929.895 186.51 929.895C192.662 929.895 198.69 928.164 203.905 924.901C209.12 921.638 213.311 916.975 215.999 911.443C218.687 905.912 219.763 899.736 219.105 893.622C218.446 887.508 216.08 881.702 212.276 876.869C216.822 871.095 219.294 863.96 219.294 856.613C219.294 849.265 216.822 842.13 212.276 836.356V836.343Z" fill="#959595" />
    <path opacity="0.1" d="M153.727 856.649C153.729 863.985 156.2 871.107 160.744 876.868C156.94 881.701 154.574 887.507 153.916 893.621C153.257 899.735 154.334 905.911 157.021 911.442C159.709 916.974 163.9 921.637 169.115 924.9C174.33 928.163 180.358 929.894 186.511 929.894C192.663 929.894 198.691 928.163 203.906 924.9C209.121 921.637 213.312 916.974 216 911.442C218.688 905.911 219.764 899.735 219.106 893.621C218.447 887.507 216.081 881.701 212.277 876.868C216.639 871.283 153.727 852.922 153.727 856.649Z" fill="black" />
</svg>

