<svg width="179" height="129" viewBox="0 0 179 129" fill="none" xmlns="http://www.w3.org/2000/svg">
<rect width="179" height="129" fill="white"/>
<path d="M73.6392 127.539C104.209 127.539 128.99 102.691 128.99 72.0387C128.99 41.3866 104.209 16.5381 73.6392 16.5381C43.0698 16.5381 18.2884 41.3866 18.2884 72.0387C18.2884 102.691 43.0698 127.539 73.6392 127.539Z" fill="#F2F2F2"/>
<path d="M148.041 31.1713L142.267 38.0362C141.955 40.9931 141.513 44.2971 140.887 47.7633L150.374 37.9215L150.419 38.0934C149.879 35.4486 149.062 33.0491 147.988 31.0085L148.041 31.1713Z" fill="#6C63FF"/>
<path d="M142.32 37.5173L147.914 30.8675C146.693 28.5917 145.147 26.7738 143.3 25.5808C143.203 25.5188 143.107 25.4602 143.01 25.4021C143.011 26.2105 142.988 30.9551 142.32 37.5173Z" fill="#6C63FF"/>
<path d="M149.486 58.7995L149.498 58.9987C149.821 57.7784 150.098 56.5566 150.328 55.3333L136.569 64.2405L136.56 64.1498C136.3 64.8603 136.032 65.5576 135.758 66.2417L149.486 58.7995Z" fill="#6C63FF"/>
<path d="M151.125 47.9764L151.153 48.1651C151.31 44.8533 151.076 41.5344 150.455 38.2778L140.787 48.3071C140.185 51.5532 139.476 54.6426 138.661 57.5755L151.125 47.9764Z" fill="#6C63FF"/>
<path d="M126.731 31.196C125.302 33.0729 124.065 35.0897 123.04 37.2159L138.975 55.4553C139.631 52.8971 140.16 50.4163 140.586 48.1028L126.647 31.3767L126.731 31.196Z" fill="#6C63FF"/>
<path d="M121.914 39.7202L121.995 39.5373L138.359 57.7423C138.535 57.1189 138.704 56.4989 138.865 55.8823L122.871 37.5755L122.953 37.3933C122.591 38.1423 122.245 38.9179 121.914 39.7202Z" fill="#6C63FF"/>
<path d="M150.352 54.9029L150.371 55.0976C150.779 52.8792 151.037 50.6358 151.144 48.3826L138.511 58.1115C137.956 60.0641 137.355 61.9389 136.708 63.7359L150.352 54.9029Z" fill="#6C63FF"/>
<path d="M132.117 73.8259C129.976 77.5621 127.55 80.7206 124.864 83.2641C127.836 82.0622 139.808 76.7673 146.013 67.2188L132.117 73.8259Z" fill="#6C63FF"/>
<path d="M119.425 48.9868C119.188 51.1407 119.094 53.3082 119.146 55.4746L119.246 55.2803L132.08 73.333C133.259 71.231 134.31 69.0599 135.23 66.8316L119.425 48.9868Z" fill="#6C63FF"/>
<path d="M142.084 37.4973C142.804 30.3972 142.766 25.4499 142.765 25.3789L142.887 25.3291C139.998 23.6496 136.805 23.7081 133.695 25.2008L142.084 37.4973Z" fill="#6C63FF"/>
<path d="M135.542 66.7699C135.455 66.9813 135.369 67.1941 135.281 67.403C134.439 69.4074 133.489 71.3644 132.435 73.2653L146.199 66.7207L146.206 66.9163C147.284 65.2261 148.145 63.4057 148.767 61.4986C149.008 60.7481 149.23 59.9949 149.434 59.239L135.542 66.7699Z" fill="#6C63FF"/>
<path d="M140.67 47.6411C141.286 44.2138 141.722 40.9486 142.029 38.0261L133.448 25.4474L133.538 25.2756C131.201 26.4345 128.916 28.4032 126.845 31.0512L140.67 47.6411Z" fill="#6C63FF"/>
<path d="M131.891 73.666L119.151 55.7454C119.458 68.7357 123.882 82.5993 124.167 83.4809C127.227 80.7336 129.773 77.356 131.891 73.666Z" fill="#6C63FF"/>
<path d="M135.377 66.4477L135.391 66.4406C136.488 63.7332 137.439 60.9685 138.24 58.1585L121.836 39.9087C121.393 40.9975 120.981 42.1318 120.601 43.3116C120.071 45.0037 119.697 46.7407 119.482 48.501L135.377 66.4477Z" fill="#6C63FF"/>
<path d="M161.023 84.5049L152.208 86.0991C150.088 88.1772 147.646 90.4393 144.958 92.7084L158.526 91.1959L158.451 91.3567C159.717 88.9745 160.615 86.6042 161.085 84.3457L161.023 84.5049Z" fill="#6C63FF"/>
<path d="M152.58 85.7339L161.118 84.1897C161.625 81.6561 161.591 79.2671 160.927 77.1667C160.892 77.0574 160.855 76.9504 160.817 76.8438C160.304 77.4672 157.268 81.1064 152.58 85.7339Z" fill="#6C63FF"/>
<path d="M144.561 106.707L144.444 106.869C145.469 106.136 146.459 105.372 147.414 104.576L131.152 102.637L131.203 102.562C130.55 102.943 129.901 103.309 129.254 103.66L144.561 106.707Z" fill="#6C63FF"/>
<path d="M152.708 99.4204L152.61 99.5836C154.838 97.1335 156.768 94.4274 158.361 91.522L144.535 93.0632C142.007 95.1783 139.496 97.1047 137.003 98.8421L152.708 99.4204Z" fill="#6C63FF"/>
<path d="M144.594 70.8955C142.299 71.4268 140.064 72.1892 137.922 73.1711L138.593 97.41C140.725 95.8593 142.711 94.287 144.51 92.7774L144.415 70.981L144.594 70.8955Z" fill="#6C63FF"/>
<path d="M135.462 74.38L135.641 74.2909L136.664 98.7777C137.196 98.4102 137.72 98.0404 138.236 97.6684L137.563 73.34L137.742 73.2522C136.987 73.5977 136.227 73.9736 135.462 74.38Z" fill="#6C63FF"/>
<path d="M147.707 104.261L147.598 104.423C149.323 102.975 150.949 101.412 152.464 99.745L136.546 99.1589C134.877 100.308 133.221 101.368 131.58 102.338L147.707 104.261Z" fill="#6C63FF"/>
<path d="M121.626 107.173C117.6 108.682 113.723 109.563 110.036 109.803C113.089 110.778 125.678 114.357 136.531 110.971L121.626 107.173Z" fill="#6C63FF"/>
<path d="M127.65 79.9248C126.097 81.432 124.647 83.0418 123.309 84.7435L123.509 84.6577L121.911 106.77C124.156 105.904 126.347 104.905 128.472 103.777L127.65 79.9248Z" fill="#6C63FF"/>
<path d="M152.411 85.5671C157.481 80.5592 160.599 76.7241 160.643 76.669L160.769 76.7088C159.612 73.5674 157.116 71.5705 153.771 70.7312L152.411 85.5671Z" fill="#6C63FF"/>
<path d="M128.752 103.928C128.55 104.036 128.349 104.145 128.148 104.249C126.225 105.255 124.248 106.154 122.227 106.944L136.991 110.706L136.872 110.861C138.778 110.249 140.598 109.397 142.29 108.326C142.953 107.903 143.604 107.465 144.241 107.013L128.752 103.928Z" fill="#6C63FF"/>
<path d="M144.869 92.4752C147.524 90.2301 149.936 87.9938 152.032 85.9395L153.424 70.7632L153.603 70.6888C151.066 70.0868 148.053 70.1412 144.774 70.8563L144.869 92.4752Z" fill="#6C63FF"/>
<path d="M121.554 106.905L123.14 84.9553C115.114 95.1567 109.702 108.663 109.361 109.525C113.465 109.365 117.575 108.392 121.554 106.905Z" fill="#6C63FF"/>
<path d="M128.83 103.575L128.845 103.578C131.412 102.195 133.903 100.674 136.308 99.0221L135.282 74.4751C134.248 75.0303 133.209 75.6406 132.166 76.306C130.682 77.2707 129.289 78.369 128.004 79.5874L128.83 103.575Z" fill="#6C63FF"/>
<path d="M115.245 54.9524L111.869 63.2709C112.484 66.1794 113.083 69.4587 113.555 72.9493L119.544 60.6489L119.64 60.7986C118.311 58.4507 116.795 56.4218 115.144 54.814L115.245 54.9524Z" fill="#6C63FF"/>
<path d="M111.76 62.7608L115.03 54.7029C113.167 52.917 111.137 51.6673 109.012 51.1053C108.901 51.0761 108.791 51.0504 108.681 51.0251C108.932 51.7935 110.372 56.3131 111.76 62.7608Z" fill="#6C63FF"/>
<path d="M125.135 80.7801L125.208 80.9658C125.14 79.705 125.026 78.4573 124.867 77.2227L114.528 89.958L114.492 89.8745C114.463 90.6309 114.424 91.377 114.373 92.1127L125.135 80.7801Z" fill="#6C63FF"/>
<path d="M123.358 69.979L123.443 70.1498C122.571 66.9514 121.325 63.8677 119.731 60.9631L113.628 73.4978C114.056 76.7714 114.334 79.9292 114.463 82.9711L123.358 69.979Z" fill="#6C63FF"/>
<path d="M94.9858 61.5808C94.2049 63.8088 93.6504 66.1102 93.3309 68.4499L114.108 80.8574C113.943 78.2211 113.682 75.6979 113.374 73.3657L94.9617 61.7787L94.9858 61.5808Z" fill="#6C63FF"/>
<path d="M93.0323 71.1806L93.053 70.9816L114.227 83.2233C114.203 82.5759 114.172 81.9341 114.135 81.2978L93.281 68.8445L93.303 68.6458C93.1898 69.4702 93.0996 70.3152 93.0323 71.1806Z" fill="#6C63FF"/>
<path d="M124.758 76.8057L124.836 76.9849C124.54 74.7488 124.094 72.5352 123.501 70.3594L114.486 83.5272C114.56 85.5561 114.566 87.5253 114.505 89.4349L124.758 76.8057Z" fill="#6C63FF"/>
<path d="M113.249 100.454C112.365 104.67 111.032 108.426 109.26 111.678C111.716 109.614 121.47 100.867 124.428 89.8633L113.249 100.454Z" fill="#6C63FF"/>
<path d="M93.5214 80.7649C93.9597 82.8869 94.5394 84.977 95.2565 87.0212L95.2915 86.8056L113.062 99.9966C113.535 97.6322 113.866 95.2415 114.053 92.8374L93.5214 80.7649Z" fill="#6C63FF"/>
<path d="M111.529 62.8149C110.025 55.8394 108.464 51.1462 108.441 51.0789L108.542 50.9937C105.276 50.2919 102.258 51.3371 99.7603 53.7206L111.529 62.8149Z" fill="#6C63FF"/>
<path d="M114.331 92.6817C114.314 92.9097 114.297 93.1388 114.278 93.3648C114.095 95.532 113.795 97.6876 113.378 99.8221L124.451 89.332L124.518 89.5159C125.022 87.5742 125.28 85.5763 125.283 83.5697C125.281 82.7813 125.26 81.9961 125.221 81.2141L114.331 92.6817Z" fill="#6C63FF"/>
<path d="M113.311 72.9006C112.841 69.45 112.249 66.2096 111.64 63.335L99.6013 54.032L99.6345 53.8406C97.7692 55.667 96.2022 58.2477 95.0491 61.4079L113.311 72.9006Z" fill="#6C63FF"/>
<path d="M112.985 100.372L95.3447 87.2771C99.6411 99.5361 108.121 111.35 108.665 112.1C110.727 108.539 112.108 104.538 112.985 100.372Z" fill="#6C63FF"/>
<path d="M114.075 92.4266L114.086 92.4157C114.295 89.5007 114.347 86.5766 114.243 83.6559L93.0161 71.384C92.9302 72.5569 92.8883 73.7633 92.8904 75.0031C92.9085 76.7764 93.0879 78.5444 93.4262 80.2851L114.075 92.4266Z" fill="#6C63FF"/>
<path d="M89.5 129C138.929 129 179 126.675 179 123.807C179 120.939 138.929 118.614 89.5 118.614C40.0705 118.614 0 120.939 0 123.807C0 126.675 40.0705 129 89.5 129Z" fill="#3F3D56"/>
<path opacity="0.1" d="M120.574 117.192C120.574 127.285 106.544 124.163 89.3648 124.163C72.1859 124.163 58.3639 127.285 58.3639 117.192C58.3639 107.099 72.3925 104.904 89.5713 104.904C106.75 104.904 120.574 107.099 120.574 117.192Z" fill="black"/>
<path d="M120.574 114.707C120.574 124.8 106.544 121.678 89.3648 121.678C72.1859 121.678 58.3639 124.8 58.3639 114.707C58.3639 104.614 72.3925 102.418 89.5713 102.418C106.75 102.418 120.574 104.614 120.574 114.707Z" fill="#3F3D56"/>
<path d="M69.3512 95.1948C77.0383 95.1948 83.2699 88.9464 83.2699 81.2385C83.2699 73.5307 77.0383 67.2822 69.3512 67.2822C61.6642 67.2822 55.4326 73.5307 55.4326 81.2385C55.4326 88.9464 61.6642 95.1948 69.3512 95.1948Z" fill="#FF6363"/>
<path d="M62.272 60.5116H62.272C59.6986 61.3774 56.8957 61.2502 54.4107 60.1551C51.9258 59.06 49.937 57.0755 48.8329 54.5891L33.7459 20.6147C32.9178 18.7499 32.4875 16.7322 32.4826 14.6909C32.4777 12.6496 32.8983 10.6298 33.7174 8.76102C34.5365 6.89225 35.7361 5.21575 37.2392 3.83903C38.7423 2.4623 40.5157 1.41574 42.4458 0.766461L42.4458 0.766449C44.3856 0.11389 46.4404 -0.122863 48.4773 0.0715239C50.5141 0.26591 52.4875 0.887102 54.2697 1.89487C56.0519 2.90264 57.6032 4.27451 58.823 5.92164C60.0428 7.56877 60.9039 9.45444 61.3507 11.4565L69.4498 47.7493C70.0391 50.39 69.6316 53.156 68.3059 55.513C66.9803 57.8701 64.8306 59.6509 62.272 60.5116V60.5116Z" fill="#FF6363"/>
<path opacity="0.1" d="M68.9186 95.9126C76.6057 95.9126 82.8373 89.6641 82.8373 81.9563C82.8373 74.2484 76.6057 68 68.9186 68C61.2316 68 55 74.2484 55 81.9563C55 89.6641 61.2316 95.9126 68.9186 95.9126Z" fill="black"/>
<path opacity="0.1" d="M61.7895 60.506H61.7894C59.216 61.3717 56.4132 61.2446 53.9282 60.1495C51.4432 59.0544 49.4545 57.0699 48.3503 54.5835L33.2633 20.6091C32.4353 18.7443 32.005 16.7265 32 14.6853C31.9951 12.644 32.4157 10.6242 33.2348 8.7554C34.054 6.88663 35.2535 5.21013 36.7566 3.83341C38.2597 2.45669 40.0331 1.41013 41.9632 0.760846L41.9632 0.760834C43.903 0.108275 45.9579 -0.128478 47.9947 0.0659087C50.0315 0.260295 52.005 0.881486 53.7872 1.88925C55.5694 2.89702 57.1206 4.26889 58.3404 5.91603C59.5602 7.56316 60.4214 9.44882 60.8682 11.4509L68.9672 47.7436C69.5565 50.3843 69.149 53.1503 67.8233 55.5074C66.4977 57.8644 64.348 59.6453 61.7895 60.506V60.506Z" fill="black"/>
<path d="M68.8365 90.8974C75.004 90.8974 80.0037 85.8841 80.0037 79.6999C80.0037 73.5157 75.004 68.5024 68.8365 68.5024C62.6689 68.5024 57.6692 73.5157 57.6692 79.6999C57.6692 85.8841 62.6689 90.8974 68.8365 90.8974Z" fill="#FF6363"/>
<path d="M60.9458 56.5075H60.9457C58.5845 57.3018 56.0129 57.1852 53.7328 56.1804C51.4528 55.1756 49.6281 53.3548 48.615 51.0734L34.7723 19.901C34.0125 18.19 33.6177 16.3387 33.6132 14.4658C33.6087 12.5929 33.9946 10.7396 34.7462 9.02501C35.4977 7.31036 36.5983 5.77213 37.9775 4.50895C39.3566 3.24577 40.9838 2.28553 42.7546 1.68979L42.7547 1.68978C44.5345 1.09104 46.4198 0.873817 48.2887 1.05217C50.1576 1.23053 51.9682 1.80049 53.6034 2.72514C55.2387 3.64979 56.6619 4.90852 57.7811 6.41981C58.9003 7.93109 59.6905 9.66124 60.1004 11.4982L67.5315 44.7977C68.0722 47.2206 67.6983 49.7585 66.482 51.9212C65.2657 54.0838 63.2933 55.7178 60.9458 56.5075V56.5075Z" fill="#FF6363"/>
</svg>
