<?xml version="1.0" encoding="UTF-8"?>
<svg width="304px" height="235px" viewBox="0 0 304 235" version="1.1" xmlns="http://www.w3.org/2000/svg" xmlns:xlink="http://www.w3.org/1999/xlink">
    <!-- Generator: sketchtool 55.2 (78181) - https://sketchapp.com -->
    <title>1C6514B8-C0D9-4507-904A-9FE43D4A5BD1</title>
    <desc>Created with sketchtool.</desc>
    <defs>
        <polygon id="path-1" points="0 0.0366638217 55.6618862 0.0366638217 55.6618862 43.4686221 0 43.4686221"></polygon>
    </defs>
    <g id="Web-App" stroke="none" stroke-width="1" fill="none" fill-rule="evenodd">
        <g id="Onboarding" transform="translate(-570.000000, -261.000000)">
            <g id="Group-2" transform="translate(200.000000, 103.000000)">
                <g id="Illustration" transform="translate(370.000000, 158.000000)">
                    <ellipse id="Oval" fill="#3F3D56" fill-rule="nonzero" cx="257.439335" cy="227.332967" rx="46.4104697" ry="7.6532567"></ellipse>
                    <path d="M296.693944,199.155681 C296.602544,215.598028 286.787321,221.284199 274.719989,221.218028 C274.439686,221.215897 274.160752,221.211227 273.883186,221.203438 C273.323987,221.188288 272.77069,221.159767 272.223295,221.117875 C261.33639,220.287166 252.907414,214.205285 252.992148,198.91394 C253.079839,183.089292 273.433272,163.230856 274.959587,161.762652 C274.960912,161.762652 274.960912,161.762652 274.962264,161.761326 C275.020239,161.70537 275.049924,161.677398 275.049924,161.677398 C275.049924,161.677398 296.784764,182.714667 296.693944,199.155681 Z" id="Path" fill="#3359DB" fill-rule="nonzero"></path>
                    <path d="M273.938632,218.697978 L281.992125,207.585875 L273.911711,219.922568 L273.883174,221.203429 C273.323975,221.188279 272.770678,221.159758 272.223283,221.117866 L273.175434,204.673568 L273.169444,204.546245 L273.18431,204.522199 L273.274746,202.96833 L265.311608,190.512084 L273.305341,201.804068 L273.323635,202.133806 L274.04294,189.7095 L267.238132,176.8456 L274.139534,187.525879 L274.959602,161.762652 L274.962744,161.676918 L274.962279,161.761326 L274.737042,182.080833 L281.625347,174.062984 L274.697814,183.830641 L274.455098,194.957804 L280.907352,184.313888 L274.420559,196.593728 L274.285683,202.780996 L283.645879,187.967067 L274.237522,204.939415 L273.938632,218.697978 Z" id="Path" fill="#FFFFFF" fill-rule="nonzero"></path>
                    <ellipse id="Oval" fill="#2F2E41" fill-rule="nonzero" cx="253.069826" cy="59.5214783" rx="14.6275647" ry="14.614725"></ellipse>
                    <ellipse id="Oval" fill="#FFC2B8" fill-rule="nonzero" cx="250.892653" cy="64.6270949" rx="9.93325235" ry="9.92453321"></ellipse>
                    <path d="M244.986396,69.9917067 C244.986396,69.9917067 249.281855,79.9162399 247.134126,80.9891635 C244.986396,82.062087 243.91253,86.8902356 243.91253,86.8902356 L249.550321,98.6923858 L257.335844,103.52054 L261.899771,103.52054 C261.899771,103.52054 266.463699,83.1350106 264.852901,80.7209363 C263.242103,78.3068621 257.335844,76.9657054 257.335844,76.9657054 C257.335844,76.9657054 255.993512,73.7469377 256.530446,70.7964031 C257.067381,67.8458686 244.986396,69.9917067 244.986396,69.9917067 Z" id="Path" fill="#FFC2B8" fill-rule="nonzero"></path>
                    <path d="M238.543214,98.1559225 L231.563083,92.5230865 C231.563083,92.5230865 218.945166,83.6714769 220.555964,90.1090093 C222.166762,96.5465416 229.41535,97.0830079 229.41535,97.0830079 L241.496335,106.739317 L238.543214,98.1559225 Z" id="Path" fill="#FFC2B8" fill-rule="nonzero"></path>
                    <path d="M238.006271,127.661292 C238.006271,127.661292 234.784675,141.072823 238.006271,159.312509 L239.348603,166.554734 C239.348603,166.554734 239.348603,172.187576 240.690935,174.333423 C240.690935,174.333423 244.180996,206.252867 246.060259,206.252867 C247.939523,206.252867 253.845782,205.179944 254.382714,204.375253 C254.919646,203.570563 243.91253,126.320138 243.91253,126.320138 L238.006271,127.661292 Z" id="Path" fill="#2F2E41" fill-rule="nonzero"></path>
                    <path d="M238.006271,127.661292 C238.006271,127.661292 234.784675,141.072823 238.006271,159.312509 L239.348603,166.554734 C239.348603,166.554734 239.348603,172.187576 240.690935,174.333423 C240.690935,174.333423 244.180996,206.252867 246.060259,206.252867 C247.939523,206.252867 253.845782,205.179944 254.382714,204.375253 C254.919646,203.570563 243.91253,126.320138 243.91253,126.320138 L238.006271,127.661292 Z" id="Path" fill="#000000" fill-rule="nonzero" opacity="0.1"></path>
                    <path d="M246.82295,204.110643 L242.6642,219.508947 C242.6642,219.508947 234.346702,224.397298 239.48398,225.374967 C244.621259,226.352636 249.758537,224.397298 249.758537,224.397298 L252.204858,217.309182 L254.651183,215.842677 L254.651183,223.419623 L255.385078,223.419623 L257.097504,213.398503 C257.097504,213.398503 256.852872,208.265734 255.385078,207.776901 C253.917285,207.288068 253.183389,204.599479 253.183389,204.599479 L246.82295,204.110643 Z" id="Path" fill="#2F2E41" fill-rule="nonzero"></path>
                    <path d="M246.82295,204.110643 L242.6642,219.508947 C242.6642,219.508947 234.346702,224.397298 239.48398,225.374967 C244.621259,226.352636 249.758537,224.397298 249.758537,224.397298 L252.204858,217.309182 L254.651183,215.842677 L254.651183,223.419623 L255.385078,223.419623 L257.097504,213.398503 C257.097504,213.398503 256.852872,208.265734 255.385078,207.776901 C253.917285,207.288068 253.183389,204.599479 253.183389,204.599479 L246.82295,204.110643 Z" id="Path" fill="#000000" fill-rule="nonzero" opacity="0.1"></path>
                    <path d="M236.932408,127.124832 C236.932408,127.124832 239.080137,135.171751 239.885537,136.512905 C239.885537,136.512905 240.9594,159.312509 244.449462,167.091195 L248.207992,177.015728 C248.207992,177.015728 254.382714,206.252882 252.771916,209.471635 C252.771916,209.471635 261.094371,211.349234 261.631305,209.471635 C261.631305,209.471635 261.36284,193.91426 262.168237,191.768413 C262.973634,189.622565 264.315966,177.820421 257.872775,169.237042 L257.872775,143.21867 C257.872775,143.21867 268.074497,134.635291 262.168237,123.637834 C256.261978,112.640377 236.932408,127.124832 236.932408,127.124832 Z" id="Path" fill="#2F2E41" fill-rule="nonzero"></path>
                    <path d="M253.577317,207.862251 L249.013389,224.76078 C249.013389,224.76078 239.885537,230.125395 245.523328,231.198315 C251.161119,232.271236 256.798912,230.125395 256.798912,230.125395 L259.483573,222.346706 L262.168237,220.737322 L262.168237,229.052471 L262.973637,229.052471 L264.852901,218.055014 C264.852901,218.055014 264.584435,212.422172 262.973637,211.885712 C261.36284,211.349252 260.557439,208.398711 260.557439,208.398711 L253.577317,207.862251 Z" id="Path" fill="#2F2E41" fill-rule="nonzero"></path>
                    <path d="M247.718132,78.985946 C247.718132,78.985946 240.9594,82.8667775 240.9594,83.1350076 C240.9594,83.4032377 241.764801,87.694929 241.764801,87.694929 C241.764801,87.694929 233.442346,96.0100784 239.080137,103.252304 C239.080137,103.252304 240.959385,104.593458 240.959385,108.885149 L240.959385,113.176837 C240.959385,113.176837 225.119877,123.101374 229.146869,126.320138 C233.173862,129.538903 237.469324,129.002446 238.811662,130.88006 C240.154,132.757674 247.939514,129.270676 249.550312,128.734216 C251.16111,128.197755 251.429578,127.661292 252.771907,129.538906 C254.114236,131.41652 261.631296,128.197767 261.631296,128.197767 C261.631296,128.197767 266.463693,126.856614 267.537553,126.856614 C268.200678,126.848632 268.849569,126.663396 269.416819,126.32015 L257.872778,114.518003 L263.644799,99.8994334 C263.644799,99.8994334 246.597191,89.3043248 246.597191,86.3537873 C246.597191,83.4032497 247.718132,78.985946 247.718132,78.985946 Z" id="Path" fill="#3F3D56" fill-rule="nonzero"></path>
                    <path d="M258.141244,79.6480098 C258.141244,79.6480098 254.651183,84.4761643 257.335844,91.1819178 C260.020505,97.8876713 264.315966,105.666381 264.315966,105.666381 L257.604322,107.812226 L251.429587,107.812226 C251.429587,107.812226 238.543205,105.666381 239.885546,110.494533 C241.227887,115.322684 250.35573,113.176837 250.35573,113.176837 L255.725055,113.176837 C255.725055,113.176837 267.80604,114.517991 269.416838,112.372147 C269.416838,112.372147 273.712296,112.103917 271.833033,103.520537 C269.953769,94.9371578 264.466868,80.2443395 264.466868,80.2443395 L258.141244,79.6480098 Z" id="Path" fill="#FFC2B8" fill-rule="nonzero"></path>
                    <ellipse id="Oval" fill="#2F2E41" fill-rule="nonzero" cx="248.960959" cy="55.4162204" rx="9.36821614" ry="4.76210243"></ellipse>
                    <ellipse id="Oval" fill="#FFB8B8" fill-rule="nonzero" cx="260.691672" cy="63.9565195" rx="1.34233197" ry="2.95053755"></ellipse>
                    <ellipse id="Oval" fill="#2F2E41" fill-rule="nonzero" cx="259.617809" cy="46.5215274" rx="8.0539888" ry="8.04691922"></ellipse>
                    <ellipse id="Oval" fill="#6395FF" fill-rule="nonzero" opacity="0.3" cx="88.018591" cy="50.1075524" rx="33.0430528" ry="33.0140485"></ellipse>
                    <ellipse id="Oval" fill="#6395FF" fill-rule="nonzero" opacity="0.3" cx="24.035225" cy="141.946633" rx="19.5254403" ry="19.5083014"></ellipse>
                    <ellipse id="Oval" fill="#6395FF" fill-rule="nonzero" opacity="0.3" cx="149.298434" cy="141.946633" rx="39.9520548" ry="39.916986"></ellipse>
                    <path d="M16.8648465,77.4439409 L16.277266,77.3187876 C16.4031119,76.7290807 16.5342888,76.1413306 16.6707967,75.5555373 L17.2560312,75.6916782 C17.1203564,76.27391 16.9899616,76.8579975 16.8648465,77.4439409 Z" id="Path" fill="#6C63FF" fill-rule="nonzero"></path>
                    <path d="M206.038379,72.4847986 C205.73036,71.3411499 205.395941,70.1862135 205.045093,69.0522379 L205.618885,68.8749165 C205.972082,70.01593 206.308554,71.1780455 206.618627,72.3288762 L206.038379,72.4847986 Z M18.1324171,72.222487 L17.5527548,72.0648029 C17.8672286,70.9106017 18.2081007,69.7452598 18.56599,68.60117 L19.1394912,68.7802502 C18.7836566,69.917302 18.4449833,71.0753118 18.1324171,72.222487 L18.1324171,72.222487 Z M203.927132,65.6645133 C203.533748,64.5437254 203.115724,63.4180994 202.683911,62.3191458 L203.243036,62.0999115 C203.677489,63.205606 204.098448,64.338264 204.493886,65.4660899 L203.927132,65.6645133 Z M20.2735859,65.3787497 L19.7071258,65.1785646 C20.1072472,64.049277 20.5336407,62.9130985 20.9745492,61.8013955 L21.5330879,62.0223885 C21.0948229,63.1273507 20.6710758,64.2566413 20.2735859,65.3787497 L20.2735859,65.3787497 Z M201.317187,59.0211114 C200.844305,57.9362247 200.34385,56.8440119 199.829898,55.774807 L200.371423,55.5148333 C200.888601,56.5907912 201.392285,57.6897328 201.868102,58.7813603 L201.317187,59.0211114 Z M22.9159427,58.7158545 L22.365908,58.4740536 C22.8481774,57.3787615 23.3572867,56.277755 23.8794541,55.2016651 L24.4200985,55.4633974 C23.9011634,56.5328936 23.3951331,57.6271592 22.9159457,58.7158545 L22.9159427,58.7158545 Z M198.222627,52.5844914 C197.668781,51.5338973 197.088827,50.4809593 196.498897,49.4549847 L197.01989,49.1560305 C197.613337,50.1883047 198.197106,51.2476925 198.754182,52.3048804 L198.222627,52.5844914 Z M26.0436419,52.2697024 L25.5129674,51.9880416 C26.075177,50.9309918 26.6642235,49.8708807 27.2638347,48.8374329 L27.783653,49.13844 C27.1877215,50.1655851 26.6021926,51.2191084 26.0436419,52.2697024 Z M194.660748,46.3902485 C194.032684,45.3847907 193.376458,44.3768418 192.711139,43.3942476 L193.208662,43.0577745 C193.878382,44.0465272 194.538423,45.0607758 195.170594,46.0722572 L194.660748,46.3902485 Z M29.6373352,46.0738539 L29.1289588,45.7540888 C29.7662632,44.7430636 30.4314379,43.7295443 31.106135,42.741821 L31.6024867,43.0800499 C30.931911,44.0619148 30.2706924,45.0691284 29.6373472,46.0738539 L29.6373352,46.0738539 Z M190.651521,40.4713699 C189.954225,39.5182303 189.225836,38.5605467 188.4866,37.6251387 L188.958308,37.2532024 C189.701953,38.194472 190.434731,39.158017 191.136746,40.1170211 L190.651521,40.4713699 Z M33.6761936,40.1609868 L33.1927497,39.8045821 C33.903686,38.8416223 34.6413181,37.8799831 35.3852554,36.9463338 L35.8552027,37.3200289 C35.1159725,38.2481108 34.3828883,39.2038975 33.6762056,40.1609868 L33.6761936,40.1609868 Z M186.217828,34.8595128 C185.448661,33.9557563 184.651921,33.0536174 183.849605,32.1781448 L184.292565,31.7727983 C185.099867,32.6535441 185.901594,33.5612594 186.675453,34.4705773 L186.217828,34.8595128 Z M38.1367534,34.5611409 L37.680591,34.1704496 C38.4582653,33.264364 39.2641012,32.359425 40.0758038,31.4808761 L40.5172951,31.8879844 C39.710582,32.761254 38.9095853,33.6606137 38.1367534,34.5611409 L38.1367534,34.5611409 Z M181.38399,29.5847082 C180.548821,28.7378139 179.687836,27.8960487 178.824796,27.0827146 L179.237249,26.6460077 C180.105272,27.464456 180.971537,28.3113624 181.811696,29.163533 L181.38399,29.5847082 Z M42.9937637,29.3040708 L42.5675264,28.8811368 C43.4112026,28.0323397 44.2808417,27.1889628 45.1522411,26.3744552 L45.5626388,26.8127767 C44.6965203,27.6223022 43.8323093,28.4605469 42.9937637,29.3040708 L42.9937637,29.3040708 Z M176.174957,24.6755402 C175.281115,23.89254 174.360593,23.1155484 173.439166,22.3662556 L173.818176,21.9008235 C174.745457,22.6546603 175.671567,23.4363399 176.570981,24.2241752 L176.174957,24.6755402 Z M48.2206911,24.4170312 L47.8264274,23.9640545 C48.7292146,23.1798838 49.6578175,22.402454 50.586862,21.6533052 L50.9641115,22.120496 C50.0409337,22.8649448 49.1179061,23.6376956 48.2206911,24.4170312 L48.2206911,24.4170312 Z M170.619476,20.158393 C169.672541,19.4441251 168.697149,18.736451 167.720877,18.055008 L168.064684,17.5629066 C169.047408,18.2485964 170.028667,18.9606674 170.981484,19.6791881 L170.619476,20.158393 Z M53.7893737,19.9260942 L53.4294327,19.4454216 C54.387516,18.7291008 55.3703876,18.0218649 56.3506218,17.3433542 L56.6926685,17.8369232 C55.7184481,18.511052 54.7415903,19.2140352 53.7893737,19.9260942 Z M164.746296,16.0590176 C163.747143,15.4149436 162.72188,14.7803985 161.699552,14.1734022 L162.006399,13.6572636 C163.035179,14.2682186 164.066603,14.9065752 165.071917,15.554605 L164.746296,16.0590176 Z M59.6700338,15.8559182 L59.3461728,15.3503471 C60.3528084,14.7068732 61.3845236,14.0737778 62.4125681,13.4685463 L62.7176546,13.9858554 C61.6957682,14.5872603 60.6703581,15.2165321 59.6700338,15.8559182 L59.6700338,15.8559182 Z M158.58446,12.400932 C157.542769,11.8329163 156.473214,11.2754531 155.406001,10.7440739 L155.674125,10.2068453 C156.747789,10.7415949 157.824095,11.3024285 158.872235,11.8739617 L158.58446,12.400932 Z M65.8312835,12.2291779 L65.5455602,11.7010252 C66.5957555,11.1338888 67.6708893,10.5784755 68.7407393,10.0504668 L69.0068079,10.5885958 C67.9434104,11.1133721 66.8750264,11.665412 65.8312835,12.2291779 Z M152.167407,9.2051871 C151.085823,8.71542669 149.977836,8.23856277 148.873954,7.78749183 L149.101303,7.23178736 C150.212075,7.68564349 151.327251,8.16573078 152.415581,8.6585675 L152.167407,9.2051871 Z M72.2401217,9.06669917 L71.9941492,8.51920019 C73.0813077,8.03179278 74.1938403,7.55726986 75.3008006,7.10912816 L75.5263945,7.66542088 C74.426181,8.11092146 73.3205334,8.58236207 72.2401217,9.06669917 L72.2401217,9.06669917 Z M145.528874,6.49231469 C144.409447,6.08271539 143.268312,5.68894483 142.137005,5.32184361 L142.322695,4.75089866 C143.460896,5.12035587 144.609073,5.51660549 145.735393,5.92869585 L145.528874,6.49231469 Z M78.8613487,6.38650766 L78.6565869,5.82230057 C79.7783625,5.41562752 80.922283,5.02494227 82.0563806,4.66077331 L82.2401631,5.23230351 C81.1131096,5.59412848 79.9763745,5.98247573 78.8613487,6.38650766 L78.8613487,6.38650766 Z M138.703186,4.27784636 C137.559262,3.95310817 136.39466,3.64577739 135.241776,3.36412554 L135.384344,2.78116347 C136.544399,3.06443902 137.716337,3.37379866 138.867446,3.70045466 L138.703186,4.27784636 Z M85.6685571,4.20120275 L85.5060453,3.6232198 C86.6556882,3.30067254 87.8283712,2.99482739 88.9916428,2.71419298 L89.1325985,3.29774029 C87.9764941,3.57661897 86.8110176,3.8805583 85.6685571,4.20120275 Z M131.748861,2.57922254 C130.585445,2.34035089 129.40132,2.1199461 128.229382,1.92401073 L128.328535,1.33196379 C129.507658,1.52906967 130.699104,1.75094208 131.86972,1.99127535 L131.748861,2.57922254 Z M92.6275742,2.52280153 L92.508475,1.93454821 C93.6812901,1.69728825 94.8733242,1.47893333 96.0515674,1.28549202 L96.1489603,1.87783608 C94.9780587,2.06997184 93.7932039,2.2870092 92.6275742,2.52280153 L92.6275742,2.52280153 Z M124.688047,1.39864017 C123.507602,1.24579112 122.310449,1.11316469 121.129845,1.00398723 L121.185141,0.406369923 C122.373066,0.516135632 123.577566,0.649638442 124.765205,0.803366858 L124.688047,1.39864017 Z M99.6919025,1.36303001 L99.6163661,0.76746258 C100.800182,0.617545785 102.005123,0.487410409 103.197446,0.380579949 L103.251129,0.978488378 C102.065995,1.08459253 100.868536,1.21399259 99.6919055,1.36303001 L99.6919025,1.36303001 Z M117.559324,0.739616731 C116.375358,0.673525607 115.171741,0.6283894 113.981761,0.605381609 L113.993495,0.00512618135 C115.190515,0.0284280971 116.401615,0.0738554278 117.592766,0.140240677 L117.559324,0.739616731 Z M106.822389,0.72422318 L106.790707,0.124844125 C107.983618,0.061685249 109.195009,0.0197724138 110.391003,-9.00383142e-06 L110.400976,0.600246424 C109.212171,0.619745722 108.008259,0.661511494 106.822389,0.72422318 Z" id="Shape" fill="#6C63FF" fill-rule="nonzero"></path>
                    <path d="M207.30536,77.7766114 C207.182154,77.1901319 207.053862,76.6056542 206.920484,76.0231783 L207.506013,75.8889432 C207.64066,76.4751286 207.769735,77.0633179 207.893235,77.653511 L207.30536,77.7766114 Z" id="Path" fill="#6C63FF" fill-rule="nonzero"></path>
                    <path d="M208.115597,116.91352 L207.525962,116.797161 C207.641835,116.210975 207.752526,115.622883 207.858036,115.032884 L208.449431,115.138106 C208.343531,115.731915 208.232253,116.323719 208.115597,116.91352 Z" id="Path" fill="#6C63FF" fill-rule="nonzero"></path>
                    <path d="M112.050049,195.669494 C111.397049,195.669494 110.745614,195.663143 110.095745,195.650442 L110.107478,195.050186 C111.295109,195.073341 112.490955,195.074797 113.679907,195.055756 L113.689589,195.656012 C113.144102,195.664806 112.597589,195.6693 112.050049,195.669494 Z M117.281519,195.53262 L117.249836,194.932965 C118.438052,194.870539 119.636686,194.785539 120.812436,194.680612 L120.865825,195.278523 C119.682895,195.384021 118.476929,195.469594 117.281519,195.53262 Z M106.504977,195.515327 C105.312505,195.448795 104.106833,195.359693 102.921549,195.250371 L102.976697,194.65246 C104.154941,194.761196 105.35328,194.850004 106.538417,194.916245 L106.504977,195.515327 Z M124.438695,194.894261 L124.363297,194.298696 C125.545793,194.149218 126.73504,193.976878 127.897882,193.786378 L127.99498,194.379013 C126.824953,194.570393 125.628533,194.743612 124.438701,194.894249 L124.438695,194.894261 Z M99.3497057,194.854401 C98.162661,194.700528 96.9666707,194.523498 95.794874,194.327713 L95.8940272,193.735663 C97.0584824,193.929983 98.2471401,194.106134 99.4268522,194.258836 L99.3497057,194.854401 Z M131.530161,193.733904 L131.411353,193.145372 C132.57713,192.910311 133.750386,192.650923 134.898563,192.37483 L135.039077,192.958671 C133.883868,193.236232 132.703276,193.497085 131.530167,193.733904 L131.530161,193.733904 Z M92.2619077,193.670877 C91.0899698,193.430541 89.9101135,193.165876 88.7554841,192.884215 L88.8980499,192.300959 C90.0454939,192.580864 91.2180176,192.844061 92.3827672,193.082933 L92.2619077,193.670877 Z M138.517195,192.054185 L138.355263,191.476193 C139.494786,191.157308 140.645748,190.812338 141.77603,190.450357 L141.959374,191.02189 C140.822059,191.386227 139.663909,191.733541 138.517201,192.054185 L138.517195,192.054185 Z M85.2803012,191.968883 C84.131977,191.643544 82.9719225,191.291546 81.8324088,190.922539 L82.017513,190.351594 C83.1501417,190.718254 84.3030109,191.068209 85.4442939,191.391488 L85.2803012,191.968883 Z M145.35197,189.86683 L145.147506,189.30232 C146.257693,188.901073 147.377413,188.473157 148.475425,188.030001 L148.700418,188.586585 C147.595531,189.032391 146.468919,189.46324 145.351982,189.86683 L145.35197,189.86683 Z M78.4267365,189.749874 C77.3037893,189.339836 76.1736539,188.903126 75.0675737,188.451761 L75.2946275,187.896057 C76.3938137,188.34449 77.5170552,188.778561 78.6329612,189.185961 L78.4267365,189.749874 Z M151.99989,187.184145 L151.754651,186.636049 C152.835943,186.152738 153.921635,185.64334 154.981803,185.121634 L155.246992,185.660339 C154.180395,186.18499 153.087941,186.697611 151.999902,187.184145 L151.99989,187.184145 Z M71.7597478,187.031137 C70.6711294,186.539326 69.5769238,186.020844 68.5075124,185.489759 L68.77505,184.95223 C69.8377116,185.480092 70.9253116,185.995642 72.0073364,186.484229 L71.7597478,187.031137 Z M158.436893,184.017563 L158.151756,183.489399 C159.196084,182.927259 160.241879,182.339309 161.260101,181.741683 L161.564598,182.259286 C160.539645,182.86043 159.48741,183.45218 158.436905,184.017563 L158.436893,184.017563 Z M65.3149617,183.829389 C64.2653522,183.259027 63.2128228,182.661409 62.1863854,182.053534 L62.4927846,181.537104 C63.5129138,182.141462 64.5590028,182.735271 65.6021599,183.302113 L65.3149617,183.829389 Z M164.626584,180.386429 L164.303606,179.88054 C165.298358,179.246871 166.298391,178.583601 167.276424,177.908899 L167.617884,178.403056 C166.633721,179.081576 165.62723,179.748949 164.626608,180.386429 L164.626584,180.386429 Z M59.1261241,180.164254 C58.1228649,179.519156 57.1174069,178.846507 56.1376113,178.164479 L56.4809796,177.67208 C57.4549056,178.349711 58.4542056,179.018258 59.4511566,179.659547 L59.1261241,180.164254 Z M170.53525,176.310962 L170.176186,175.829695 C171.124005,175.123633 172.073581,174.388848 172.998222,173.645855 L173.374885,174.113634 C172.444411,174.861324 171.488968,175.600506 170.535286,176.310962 L170.53525,176.310962 Z M53.2250764,176.057135 C52.2735927,175.341988 51.3203487,174.597824 50.3920402,173.845158 L50.7704612,173.37914 C51.6931975,174.127116 52.6405749,174.866588 53.5861919,175.577633 L53.2250764,176.057135 Z M176.132385,171.813443 L175.739293,171.359725 C176.634601,170.584795 177.528148,169.78259 178.395294,168.975117 L178.804811,169.414171 C177.932715,170.226635 177.033595,171.033816 176.132421,171.813443 L176.132385,171.813443 Z M47.6420201,171.530894 C46.7426062,170.745697 45.8465808,169.934118 44.9789813,169.119026 L45.3905536,168.681739 C46.2528571,169.49185 47.1433373,170.298443 48.0374583,171.078953 L47.6420201,171.530894 Z M181.388976,166.918783 L180.963622,166.49497 C181.803192,165.653793 182.636015,164.788288 183.439211,163.922782 L183.879822,164.330767 C183.071637,165.201843 182.233536,166.072621 181.388976,166.918783 Z M42.4061832,166.611915 C41.5691065,165.766047 40.7349617,164.891748 39.9267797,164.013346 L40.369154,163.60712 C41.1723495,164.480246 42.0013577,165.348974 42.8334478,166.18986 L42.4061832,166.611915 Z M186.275034,161.652772 L185.819752,161.261199 C186.594786,160.361989 187.362779,159.437866 188.102024,158.514034 L188.571385,158.889193 C187.827445,159.818302 187.054757,160.748287 186.275031,161.652772 L186.275034,161.652772 Z M37.5444807,161.326266 C36.77106,160.420901 36.0032145,159.488569 35.262209,158.554773 L35.7330365,158.18196 C36.4694941,159.109892 37.2326474,160.036654 38.0015202,160.936452 L37.5444807,161.326266 Z M190.765943,156.042671 L190.283088,155.685096 C190.992116,154.729318 191.690587,153.751265 192.35884,152.778194 L192.854014,153.117596 C192.181946,154.096823 191.479369,155.080738 190.76594,156.042671 L190.765943,156.042671 Z M33.0831999,155.702095 C32.3772501,154.742509 31.6798074,153.756835 31.0100878,152.772921 L31.5070253,152.435277 C32.1724914,153.41333 32.8656775,154.392848 33.5672266,155.346867 L33.0831999,155.702095 Z M194.834429,150.117199 L194.326929,149.795969 C194.960863,148.796814 195.585699,147.769807 196.18443,146.743988 L196.703659,147.04646 C196.101113,148.078734 195.472169,149.111888 194.834426,150.117199 L194.834429,150.117199 Z M29.0462491,149.770176 C28.4131982,148.762521 27.7899732,147.729073 27.1941769,146.698558 L27.7142896,146.39843 C28.3065653,147.422499 28.9259754,148.449503 29.5552142,149.45129 L29.0462491,149.770176 Z M198.458777,143.908015 L197.928986,143.624887 C198.490751,142.575319 199.038436,141.504941 199.557374,140.443356 L200.097142,140.706553 C199.575269,141.774882 199.024063,142.851998 198.458777,143.908015 Z M25.4563767,143.561284 C24.8988503,142.509666 24.3535228,141.433721 23.835612,140.363636 L24.3765508,140.102195 C24.8912354,141.165833 25.4332015,142.235038 25.9873425,143.280502 L25.4563767,143.561284 Z M201.616702,137.446782 L201.06755,137.203513 C201.548059,136.120533 202.01566,135.011762 202.457161,133.908555 L203.015117,134.131307 C202.570676,135.241534 202.100434,136.357039 201.616702,137.446782 L201.616702,137.446782 Z M22.3339404,137.108538 C21.8550444,136.018525 21.3906694,134.905943 20.9535759,133.802151 L21.5122618,133.581158 C21.9465707,134.6785 22.4081581,135.78405 22.883972,136.867322 L22.3339404,137.108538 Z M204.289716,130.765996 L203.724136,130.563761 C204.124558,129.444438 204.508849,128.303718 204.866738,127.173548 L205.439359,127.354681 C205.079707,128.491592 204.692778,129.639344 204.289713,130.765996 L204.289716,130.765996 Z M19.6968615,130.447696 C19.2993716,129.32427 18.9174269,128.17798 18.5618867,127.040487 L19.1353879,126.861698 C19.4887293,127.991868 19.8681777,129.131122 20.2633215,130.247808 L19.6968615,130.447696 Z M206.46139,123.902339 L205.882316,123.742311 C206.196787,122.604527 206.494832,121.441532 206.768237,120.285566 L207.353177,120.423907 C207.077721,121.586896 206.777915,122.757217 206.46139,123.902339 Z M17.5537822,123.594297 C17.2410747,122.446252 16.9453725,121.276516 16.6749031,120.117039 L17.2601376,119.981042 C17.5288467,121.133193 17.8226385,122.295894 18.1334444,123.436613 L17.5537822,123.594297 Z" id="Shape" fill="#6C63FF" fill-rule="nonzero"></path>
                    <path d="M15.9116025,116.541584 C15.7971955,115.951293 15.6880693,115.359098 15.584224,114.764999 L16.1762053,114.66183 C16.2791734,115.252119 16.3876147,115.840602 16.5015292,116.427278 L15.9116025,116.541584 Z" id="Path" fill="#6C63FF" fill-rule="nonzero"></path>
                    <path d="M161.093197,117.188002 L160.534655,116.967303 C160.752616,116.416569 160.964416,115.852815 161.16448,115.291246 L161.730649,115.492602 C161.528236,116.060617 161.31379,116.630977 161.093197,117.188002 Z" id="Path" fill="#6C63FF" fill-rule="nonzero"></path>
                    <path d="M112.049902,150.500274 C111.330312,150.500274 110.604118,150.485617 109.891425,150.456895 L109.915775,149.857225 C111.098115,149.904999 112.30659,149.913208 113.492748,149.88038 L113.509176,150.480635 C113.024267,150.493827 112.537842,150.500373 112.049902,150.500274 Z M117.119887,150.259642 L117.062978,149.662319 C118.24606,149.549771 119.439266,149.394431 120.609738,149.201284 L120.707717,149.793331 C119.523751,149.989119 118.316613,150.145924 117.119887,150.259642 Z M106.283649,150.188725 C105.088692,150.058887 103.883891,149.885962 102.702713,149.674639 L102.808613,149.083763 C103.976298,149.292448 105.167302,149.463614 106.348774,149.591987 L106.283649,150.188725 Z M124.254915,149.081419 L124.116162,148.497577 C125.272843,148.223243 126.433339,147.905822 127.565382,147.553523 L127.744034,148.126815 C126.598791,148.48291 125.424946,148.80414 124.254915,149.081419 L124.254915,149.081419 Z M99.1651933,148.915529 C97.9985362,148.622728 96.8285087,148.285669 95.6875201,147.914027 L95.8737958,147.343082 C97.0017324,147.710622 98.1582723,148.04388 99.311577,148.333444 L99.1651933,148.915529 Z M131.159369,146.933045 L130.941411,146.373823 C132.04705,145.943854 133.152836,145.469337 134.227822,144.963751 L134.483918,145.506559 C133.396315,146.018288 132.277772,146.498376 131.159369,146.933045 L131.159369,146.933045 Z M92.2877264,146.67423 C91.1731392,146.223738 90.060901,145.72871 88.981808,145.202901 L89.2452513,144.663611 C90.311875,145.183264 91.4113525,145.672436 92.5130319,146.11794 L92.2877264,146.67423 Z M137.702125,143.854965 L137.409361,143.330915 C138.447234,142.751761 139.477336,142.130104 140.471211,141.48296 L140.799175,141.985908 C139.794009,142.640384 138.752026,143.269365 137.702125,143.854965 Z M85.785163,143.508236 C84.7439133,142.909151 83.7102906,142.266398 82.7130603,141.597851 L83.0477744,141.099594 C84.033728,141.760518 85.0554673,142.395945 86.0849836,142.988298 L85.785163,143.508236 Z M143.761434,139.909351 L143.399438,139.430437 C144.349018,138.71441 145.284659,137.957936 146.180408,137.181823 L146.574083,137.635532 C145.668069,138.420417 144.721719,139.185401 143.761434,139.909351 Z M79.7789483,139.481729 C78.827759,138.745186 77.8915291,137.967314 76.996516,137.1701 L77.3963519,136.722253 C78.2810977,137.510088 79.2066216,138.278874 80.147105,139.007503 L79.7789483,139.481729 Z M149.224803,135.175307 L148.801206,134.749726 C149.643707,133.91237 150.467585,133.035715 151.250098,132.144126 L151.70186,132.539802 C150.910398,133.441647 150.076989,134.328254 149.224803,135.175307 L149.224803,135.175307 Z M74.3785059,134.675295 C73.5383472,133.817998 72.7168188,132.920544 71.9367985,132.007558 L72.393838,131.617744 C73.1649127,132.520471 73.977201,133.40796 74.8076781,134.255584 L74.3785059,134.675295 Z M153.993224,129.741924 L153.515647,129.377902 C154.235532,128.435021 154.932239,127.454624 155.586705,126.46338 L156.088337,126.793992 C155.426242,127.796668 154.721613,128.788494 153.993224,129.741924 Z M69.6829739,129.179485 C68.9666096,128.214914 68.2751807,127.213705 67.6279033,126.204001 L68.1339336,125.880424 C68.7737313,126.878409 69.4572388,127.86817 70.1655347,128.82191 L69.6829739,129.179485 Z M157.975453,123.709774 L157.452703,123.414335 C158.036763,122.381766 158.592664,121.315199 159.104856,120.244236 L159.646969,120.503039 C159.12892,121.586308 158.566566,122.665186 157.975462,123.709774 L157.975453,123.709774 Z M65.7821484,123.095446 C65.2043937,122.041485 64.6567081,120.955277 64.1543425,119.867314 L64.6999764,119.61584 C65.1964723,120.691498 65.7379999,121.765097 66.3090049,122.807044 L65.7821484,123.095446 Z" id="Shape" fill="#6C63FF" fill-rule="nonzero"></path>
                    <path d="M62.7450864,116.514327 C62.5325534,115.954663 62.3260404,115.381374 62.1312486,114.810135 L62.7000547,114.616694 C62.8924944,115.181336 63.0966674,115.748176 63.3068453,116.301248 L62.7450864,116.514327 Z" id="Path" fill="#6C63FF" fill-rule="nonzero"></path>
                    <path d="M63.6733949,78.417159 L63.1160277,78.1932337 C63.3410208,77.6338647 63.5782008,77.0724458 63.8209501,76.5247997 L64.370396,76.7677741 C64.1304344,77.3092646 63.8959008,77.8640897 63.6733949,78.417159 Z" id="Path" fill="#6C63FF" fill-rule="nonzero"></path>
                    <path d="M65.9490639,73.5160494 L65.4180981,73.2355591 C65.9855855,72.1632748 66.5985431,71.0967079 67.2399719,70.0657512 L67.7501086,70.382587 C67.1161566,71.4018178 66.5102461,72.4560764 65.9490639,73.5160494 Z M157.67654,72.6417504 C157.095997,71.5933563 156.469984,70.5509677 155.816399,69.5433129 L156.320378,69.216807 C156.98159,70.2360407 157.614935,71.2905904 158.202224,72.3510017 L157.67654,72.6417504 Z M69.7642418,67.381457 L69.2771302,67.0300374 C69.9880665,66.0461227 70.7425655,65.0746633 71.519654,64.1423346 L71.9813856,64.5265791 C71.2131016,65.4482113 70.4671096,66.408674 69.7642418,67.381457 Z M153.745047,66.5810163 C153.024579,65.6227476 152.260399,64.6764959 151.474512,63.7687867 L151.928619,63.3760395 C152.723894,64.2941572 153.496581,65.2511054 154.225556,66.2205119 L153.745047,66.5810163 Z M74.3902392,61.8312912 L73.9560805,61.4162716 C74.7956504,60.5397756 75.6767224,59.6811582 76.5748236,58.8643066 L76.9793546,59.3083426 C76.0913797,60.1158152 75.2202747,60.9646154 74.3902392,61.8312912 Z M149.015204,61.1198084 C148.168593,60.2689464 147.281499,59.4367192 146.37842,58.6462458 L146.774444,58.1948808 C147.68779,58.994292 148.585005,59.8360572 149.441298,60.6965803 L149.015204,61.1198084 Z M79.7362657,56.9696034 L79.3634169,56.4988951 C80.3165137,55.7454995 81.3074538,55.0162822 82.3086614,54.3314688 L82.6480676,54.8267966 C81.6581548,55.5038337 80.6785094,56.2247074 79.7362657,56.9696034 Z M143.577652,56.3603981 C142.6225,55.6344042 141.629214,54.9321534 140.625366,54.273277 L140.955094,53.7715025 C141.970675,54.4379961 142.9754,55.1483084 143.941405,55.8826549 L143.577652,56.3603981 Z M85.7011195,52.8907687 L85.3969131,52.3731655 C86.4440295,51.7589871 87.5263486,51.173681 88.6136543,50.6335082 L88.8811889,51.1710369 C87.8062143,51.7049131 86.7363553,52.2836254 85.7011195,52.8907687 Z M137.535501,52.395588 C136.487357,51.8073377 135.40636,51.2492982 134.322722,50.7366771 L134.579695,50.1941632 C135.675949,50.7126428 136.769416,51.2772881 137.829732,51.8721232 L137.535501,52.395588 Z M92.1734665,49.6764129 L91.9440666,49.1215848 C93.066428,48.6584877 94.2197357,48.2292631 95.3717276,47.8457419 L95.5615239,48.4152222 C94.4228814,48.7943466 93.2829201,49.2186011 92.1734665,49.6764129 L92.1734665,49.6764129 Z M131.002136,49.3056501 C129.882853,48.8687932 128.734826,48.4665231 127.589876,48.1096802 L127.768822,47.5366824 C128.926969,47.897628 130.088345,48.3045891 131.220682,48.7464252 L131.002136,49.3056501 Z M99.0298129,47.3938006 L98.880218,46.8124532 C100.055676,46.5104197 101.257681,46.2459021 102.452647,46.0263767 L102.561187,46.6166649 C101.38,46.8336992 100.191922,47.0951375 99.0298129,47.3938006 L99.0298129,47.3938006 Z M124.102374,47.1549289 C122.934398,46.8786884 121.741484,46.6401109 120.556641,46.4457902 L120.654034,45.8534461 C121.852517,46.0499667 123.059217,46.2913324 124.240836,46.5707934 L124.102374,47.1549289 Z M106.13844,46.0870415 L106.070969,45.4905977 C107.273856,45.354895 108.500649,45.2591992 109.717615,45.2060046 L109.74387,45.8056598 C108.540544,45.8582842 107.327539,45.9529534 106.13844,46.0870415 L106.13844,46.0870415 Z M116.97013,45.984752 C115.777513,45.8730835 114.562892,45.801422 113.3603,45.7718204 L113.374968,45.1718651 C114.591496,45.2017608 115.819901,45.2741546 117.026162,45.3871407 L116.97013,45.984752 Z" id="Shape" fill="#6C63FF" fill-rule="nonzero"></path>
                    <path d="M160.053855,77.5160405 C159.821226,76.9676652 159.576278,76.417234 159.326052,75.8799934 L159.870511,75.6267606 C160.123672,76.1701568 160.371564,76.7270288 160.607113,77.2815658 L160.053855,77.5160405 Z" id="Path" fill="#6C63FF" fill-rule="nonzero"></path>
                    <path d="M209.677104,78.9198129 C200.220713,78.9198129 192.554795,86.5790029 192.554795,96.0270926 C192.554795,105.475182 200.220713,113.134372 209.677104,113.134372 C219.133494,113.134372 226.799413,105.475182 226.799413,96.0270926 C226.799413,86.5790029 219.133494,78.9198129 209.677104,78.9198129 Z M205.138304,91.149417 C206.600427,91.1832594 207.761545,92.3890287 207.738964,93.8500862 C207.716383,95.3111437 206.518557,96.4805189 205.056085,96.4692402 C203.593613,96.4579616 202.413991,95.2702514 202.413991,93.8090197 C202.421631,93.0951854 202.713104,92.4136937 203.224151,91.9147881 C203.735198,91.4158825 204.423857,91.1405287 205.138304,91.149432 L205.138304,91.149417 Z M219.659341,102.67605 L217.844857,102.67605 L217.844857,100.016465 L201.509351,100.016465 L201.509351,102.67605 L199.694867,102.67605 L199.694867,89.3781022 L201.509351,89.3781022 L201.509351,97.3568775 L208.767257,97.3568775 L208.767257,91.149432 L216.030382,91.149432 C216.982542,91.1389559 217.899854,91.5068956 218.580447,92.1722789 C219.261039,92.8376622 219.649138,93.7459621 219.659341,94.6972897 L219.659341,102.67605 Z" id="Shape" fill="#3F3D56" fill-rule="nonzero"></path>
                    <path d="M17.1223092,80 C7.66591895,80 5.48538992e-12,87.65919 5.48538992e-12,97.1072797 C5.48538992e-12,106.555369 7.66591895,114.214559 17.1223092,114.214559 C26.5786994,114.214559 34.2446184,106.555369 34.2446184,97.1072797 C34.2446184,87.65919 26.5786994,80 17.1223092,80 L17.1223092,80 Z M25.0099863,98.7747082 C24.833203,98.7747082 24.2457155,98.769522 24.074141,98.7591376 L20.6999436,98.670825 C20.664339,98.66995 20.6308478,98.6876629 20.6115534,98.7175729 L15.5476575,106.280791 C15.3952125,106.520763 15.1302544,106.66587 14.845778,106.665185 L13.6135936,106.665185 C13.3224422,106.665185 13.2236555,106.374287 13.327648,106.104184 L15.9323868,98.6812064 C15.9445266,98.6499338 15.9406686,98.6147142 15.9220458,98.5868055 C15.9034231,98.5588968 15.8723675,98.5417935 15.8388059,98.5409628 L9.51152086,98.4006981 C9.37821244,98.3977423 9.25121388,98.4573415 9.16837176,98.5617346 L7.20831795,100.935628 C7.04938947,101.135093 6.80840169,101.251659 6.55322741,101.252497 L5.68498214,101.252497 C5.61748393,101.253197 5.55388036,101.220983 5.51454665,101.166174 C5.47521294,101.111364 5.46508666,101.04084 5.48741172,100.977192 L6.52204077,97.4085599 C6.6000178,97.2098726 6.6000178,96.9890922 6.52204077,96.7904049 L5.48741172,93.2217723 C5.46508666,93.158125 5.47521294,93.0876005 5.51454665,93.032791 C5.55388036,92.9779815 5.61748393,92.9457673 5.68498214,92.9464681 L6.55844521,92.9464681 C6.81414859,92.9449676 7.05609847,93.0620031 7.21351472,93.263337 L9.13718212,95.6008667 C9.21930856,95.7061468 9.34677863,95.7659637 9.4803132,95.7618852 L15.8439936,95.6683894 C15.8778251,95.6682253 15.9093608,95.651266 15.9281298,95.6231426 C15.9468988,95.5950192 15.9504445,95.5594127 15.9375896,95.5281457 L13.3328358,88.1103692 C13.2288613,87.8402543 13.327645,87.5493525 13.6188084,87.5493525 L14.8509928,87.5493525 C15.135145,87.5499117 15.399537,87.6947125 15.5528543,87.9337441 L20.6115534,95.5021817 C20.6299799,95.5330203 20.6640584,95.5510437 20.6999436,95.5489296 L24.074141,95.460617 C24.2405247,95.4502296 24.833203,95.4450464 25.0099863,95.4450464 C27.318383,95.4450464 28.7689099,96.1930577 28.7689099,97.1124719 C28.7689099,98.0318861 27.3131742,98.7747082 25.0099863,98.7747082 Z" id="Shape" fill="#3F3D56" fill-rule="nonzero"></path>
                    <path d="M16.7274115,153.69235 C14.7365925,153.69235 13.1227148,152.079889 13.1227148,150.090817 C13.1227148,148.101746 14.7365925,146.489285 16.7274115,146.489285 C18.7182305,146.489285 20.3321081,148.101746 20.3321081,150.090817 C20.329832,152.078946 18.7172869,153.690076 16.7274115,153.69235 L16.7274115,153.69235 Z M16.7274115,147.08954 C15.0683956,147.08954 13.7234976,148.433258 13.7234976,150.090817 C13.7234976,151.748377 15.0683956,153.092095 16.7274115,153.092095 C18.3864273,153.092095 19.7313254,151.748377 19.7313254,150.090817 C19.7294812,148.434022 18.3856628,147.091383 16.7274115,147.08954 Z" id="Shape" fill="#F0F0F0" fill-rule="nonzero"></path>
                    <path d="M92.726433,72.957995 C90.735614,72.957995 89.1217363,71.3455339 89.1217363,69.3564624 C89.1217363,67.3673909 90.735614,65.7549298 92.726433,65.7549298 C94.717252,65.7549298 96.3311297,67.3673909 96.3311297,69.3564624 C96.3288535,71.3445912 94.7163084,72.9557208 92.726433,72.957995 L92.726433,72.957995 Z M92.726433,66.3551852 C91.0674172,66.3551852 89.7225191,67.6989028 89.7225191,69.3564624 C89.7225191,71.014022 91.0674172,72.3577395 92.726433,72.3577395 C94.3854488,72.3577395 95.7303469,71.014022 95.7303469,69.3564624 C95.7285027,67.6996666 94.3846843,66.3570278 92.726433,66.3551852 Z" id="Shape" fill="#F0F0F0" fill-rule="nonzero"></path>
                    <path d="M159.85535,171.811042 L155.81055,167.478335 L160.147069,163.437089 L164.191867,167.769795 L159.85535,171.811042 Z M156.455259,167.500755 L159.877781,171.166893 L163.547137,167.747376 L160.124615,164.081238 L156.455259,167.500755 Z" id="Shape" fill="#F0F0F0" fill-rule="nonzero"></path>
                    <g id="Group" transform="translate(81.000000, 73.000000)">
                        <path d="M25.168,34.8087112 C25.0094634,36.1228886 26.1509268,37.6934908 28.1167805,38.8794557 C30.463122,40.2256861 33.1899512,40.5462172 34.4265366,39.584624 C35.6314146,38.6230308 36.0119024,34.2638084 35.2192195,28.5583556 C29.5119024,30.5777013 25.4533659,32.7893656 25.168,34.8087112" id="Fill-16" fill="#FAAD30"></path>
                        <path d="M17.684122,14.8085349 C20.9816829,11.1544808 24.7548537,6.95552394 28.686561,7.37221432 C32.3963171,7.69274538 34.9963171,14.1354196 36.5182683,19.5203414 C36.9304634,20.8665718 37.3426585,22.5653864 37.691439,24.3603604 C43.3036341,22.6294927 49.3597317,21.3153153 53.989,20.4819346 L44.3816829,3.65405405 C43.116561,1.37828355 40.7036341,7.10542736e-15 38.1353415,7.10542736e-15 L17.5255854,7.10542736e-15 C15.9402195,7.10542736e-15 14.4182683,0.544902798 13.1816829,1.50649597 L13.1499756,1.50649597 C11.9768049,10.3852063 11.4694878,18.2702703 12.5158293,19.6485538 C13.086561,19.9049787 16.289,16.3470839 17.684122,14.8085349" id="Fill-18" fill="#3359DB"></path>
                        <g id="Group-22" transform="translate(0.000000, 7.206376)">
                            <mask id="mask-2" fill="white">
                                <use xlink:href="#path-1"></use>
                            </mask>
                            <g id="Clip-21"></g>
                            <path d="M55.384439,16.1914291 C49.677122,17.2491816 43.5259024,18.6915714 38.2624878,20.3583329 C39.1502927,26.2881574 39.2137073,32.6987786 36.3600488,34.9104429 C35.1234634,35.872036 33.5380976,36.2246202 31.9210244,36.1284609 C30.0502927,36.0323016 28.1161463,35.3591863 26.5307805,34.4296463 C23.3600488,32.5705661 21.679561,29.8460522 22.0283415,27.1856444 C22.5356585,23.5315903 27.9576098,20.5185984 34.679561,18.1466686 C34.3624878,16.5440133 33.9502927,14.8772518 33.4746829,13.1784372 C31.382,5.90238217 29.1624878,3.40223992 28.4015122,3.33813371 C26.086878,3.2419744 22.6941951,6.79986913 20.0307805,9.78080797 C16.6698049,13.4669151 13.784439,16.6722257 10.8990732,15.1657297 C8.67956098,14.0118179 8.48931707,7.7614623 9.21858537,0.0366638217 L0.974682927,14.4605614 C-0.325317073,16.7363319 -0.325317073,19.5249521 0.974682927,21.8007226 L11.279561,39.814568 C12.5478537,42.0903385 14.9576098,43.4686221 17.5259024,43.4686221 L38.1356585,43.4686221 C40.7039512,43.4686221 43.1137073,42.0903385 44.382,39.814568 L54.686878,21.8007226 C55.6698049,20.0698549 55.9234634,18.0505092 55.384439,16.1914291" id="Fill-20" fill="#3359DB" mask="url(#mask-2)"></path>
                        </g>
                    </g>
                </g>
            </g>
        </g>
    </g>
</svg>
