<?xml version="1.0" encoding="UTF-8"?>
<svg width="20px" height="17px" viewBox="0 0 20 17" version="1.1" xmlns="http://www.w3.org/2000/svg" xmlns:xlink="http://www.w3.org/1999/xlink">
    <!-- Generator: sketchtool 55.2 (78181) - https://sketchapp.com -->
    <title>F24A859C-3ED4-469C-8B19-EAC61579E03F</title>
    <desc>Created with sketchtool.</desc>
    <g id="Web-App" stroke="none" stroke-width="1" fill="none" fill-rule="evenodd">
        <g id="Checklist-Builder-&gt;-Select-Item-&gt;-Radio" transform="translate(-1254.000000, -152.000000)" fill="#9DA4AE" fill-rule="nonzero">
            <g id="Group-10" transform="translate(1064.000000, 143.000000)">
                <g id="Group-9" transform="translate(176.000000, 0.000000)">
                    <path d="M26.9684211,11.6774194 L20.6526316,11.6774194 L20.6526316,10.0938867 C20.6526316,9.54160198 20.2049163,9.09388673 19.6526316,9.09388673 C19.4238613,9.09388673 19.2020074,9.17232628 19.0240777,9.31612072 L14.9623995,12.5985781 C14.5328512,12.9457188 14.4660466,13.5753497 14.8131874,14.004898 C14.8575231,14.0597586 14.9075389,14.1097743 14.9623995,14.1541101 L19.0240777,17.4365675 C19.453626,17.7837082 20.0832568,17.7169037 20.4303976,17.2873554 C20.574192,17.1094256 20.6526316,16.8875717 20.6526316,16.6588014 L20.6526316,15.0752688 L26.9684211,15.0752688 C29.0105263,15.0752688 30.6526316,16.7741935 30.6526316,18.8387097 C30.6526316,20.9032258 28.9894737,22.6021505 26.9684211,22.6021505 L18.2842105,22.6021505 C17.7319258,22.6021505 17.2842105,23.0498658 17.2842105,23.6021505 L17.2842105,25 C17.2842105,25.5522847 17.7319258,26 18.2842105,26 L26.9684211,26 C30.8421053,26 34,22.7741935 34,18.8172043 C34,14.8817204 30.8421053,11.6774194 26.9684211,11.6774194 Z" id="Back"></path>
                </g>
            </g>
        </g>
    </g>
</svg>