<?xml version="1.0" encoding="UTF-8"?>
<svg width="18px" height="22px" viewBox="0 0 18 22" version="1.1" xmlns="http://www.w3.org/2000/svg" xmlns:xlink="http://www.w3.org/1999/xlink">
    <!-- Generator: sketchtool 55.2 (78181) - https://sketchapp.com -->
    <title>ABD5F4FC-FD6B-47E5-A5BC-FEA2A5834589</title>
    <desc>Created with sketchtool.</desc>
    <g id="Web-App" stroke="none" stroke-width="1" fill="none" fill-rule="evenodd">
        <g id="Checklist-Builder-&gt;-Set-Behaviour" transform="translate(-773.000000, -700.000000)" fill="#DFE3E8" stroke="#BBC1C9" stroke-width="0.8">
            <g id="Group-2" transform="translate(301.000000, 197.000000)">
                <g id="Delete-Icon-Copy" transform="translate(473.000000, 504.000000)">
                    <g id="Group">
                        <g>
                            <path d="M12.9489258,20 L3.05126952,20 C2.54853516,20 2.12197264,19.6074219 2.08017576,19.1064453 L0.84638668,4.30039064 C0.837207,4.1888672 0.87490232,4.07871096 0.95068356,3.99628908 C1.0264648,3.91406252 1.13310544,3.86718752 1.24501948,3.86718752 L14.7551757,3.86718752 C14.8670898,3.86718752 14.9737304,3.91406252 15.0495116,3.99628908 C15.1252929,4.07871096 15.1629882,4.1888672 15.1538085,4.30039064 L13.9198242,19.1064453 C13.8780274,19.6074219 13.4516602,20 12.9489258,20 Z M1.67978516,4.66718752 L2.8774414,19.0400391 C2.88486328,19.1296875 2.96123048,19.2 3.05126952,19.2 L12.9489258,19.2 C13.040332,19.2 13.1149414,19.13125 13.1225586,19.0400391 L14.3204101,4.66718752 L1.67978516,4.66718752 Z" id="Shape" fill-rule="nonzero"></path>
                            <path d="M10.8422852,17.4015625 C10.8368164,17.4015625 10.8313476,17.4013672 10.8258789,17.4011719 C10.6051758,17.3923828 10.4334961,17.2060547 10.4424805,16.9853516 L10.828418,7.45371092 C10.8372071,7.2330078 11.0256836,7.05957028 11.2442383,7.07031248 C11.4649414,7.07910156 11.6366211,7.26542968 11.6276368,7.4861328 L11.2416992,17.0177734 C11.2331055,17.2330078 11.0557617,17.4015625 10.8422852,17.4015625 Z" id="Path"></path>
                            <path d="M8.00009764,17.4015625 C7.7791992,17.4015625 7.60009764,17.222461 7.60009764,17.0015625 L7.60009764,7.46992188 C7.60009764,7.24902344 7.7791992,7.06992188 8.00009764,7.06992188 C8.22099608,7.06992188 8.40009764,7.24902344 8.40009764,7.46992188 L8.40009764,17.0015625 C8.40009764,17.2224609 8.22099608,17.4015625 8.00009764,17.4015625 Z" id="Path"></path>
                            <path d="M5.15771484,17.4015625 C4.94423828,17.4015625 4.76689452,17.2330078 4.75830076,17.0177734 L4.37236328,7.4861328 C4.36337892,7.26542968 4.5350586,7.07910156 4.75576172,7.07031248 C4.97177736,7.0580078 5.16259764,7.23281248 5.17158204,7.45371092 L5.55751956,16.9853516 C5.56650392,17.2060547 5.39482424,17.3923828 5.17412112,17.4011719 C5.16865236,17.4013672 5.1631836,17.4015625 5.15771484,17.4015625 Z" id="Path"></path>
                            <path d="M15.465332,4.66718752 L0.53466796,4.66718752 C0.31376952,4.66718752 0.13466796,4.48808596 0.13466796,4.26718752 L0.13466796,3.61718752 C0.13466796,2.86484376 0.74658204,2.25292972 1.49892576,2.25292972 L14.5012695,2.25292972 C15.253418,2.25292972 15.865332,2.8648438 15.865332,3.61718752 L15.865332,4.26718752 C15.865332,4.48808592 15.6862305,4.66718752 15.465332,4.66718752 Z M0.93466796,3.86718752 L15.065332,3.86718752 L15.065332,3.61718752 C15.065332,3.30605472 14.812207,3.05292972 14.5012695,3.05292972 L1.4989258,3.05292972 C1.187793,3.05292972 0.93466796,3.30605472 0.93466796,3.61718752 L0.93466796,3.86718752 L0.93466796,3.86718752 Z" id="Shape" fill-rule="nonzero"></path>
                            <path d="M10.2155274,3.05292968 L5.78466796,3.05292968 C5.56376952,3.05292968 5.38466796,2.87382812 5.38466796,2.65292968 L5.38466796,1.21660156 C5.38466796,0.54570312 5.93037108,0 6.60126952,0 L9.39873044,0 C10.0696289,0 10.6155273,0.54570312 10.6155273,1.21660156 L10.6155273,2.65292968 C10.6155273,2.87382812 10.4364258,3.05292968 10.2155274,3.05292968 Z M6.18466796,2.25292968 L9.81552732,2.25292968 L9.81552732,1.21660156 C9.81552732,0.98691408 9.62861328,0.8 9.39873048,0.8 L6.60126956,0.8 C6.37158204,0.8 6.18466796,0.98691408 6.18466796,1.21660156 L6.18466796,2.25292968 L6.18466796,2.25292968 Z" id="Shape" fill-rule="nonzero"></path>
                        </g>
                    </g>
                </g>
            </g>
        </g>
    </g>
</svg>