<?xml version="1.0" encoding="UTF-8"?>
<svg width="12px" height="12px" viewBox="0 0 12 12" version="1.1" xmlns="http://www.w3.org/2000/svg" xmlns:xlink="http://www.w3.org/1999/xlink">
    <!-- Generator: sketchtool 52.5 (67469) - http://www.bohemiancoding.com/sketch -->
    <title>DF53161A-9D0B-4847-95E6-7E071AC9D6F7</title>
    <desc>Created with sketchtool.</desc>
    <g id="Web-App" stroke="none" stroke-width="1" fill="none" fill-rule="evenodd">
        <g id="View-Request-&gt;-2-Travel-Checklist" transform="translate(-390.000000, -519.000000)" fill="#3359DB" fill-rule="nonzero">
            <g id="Tasks" transform="translate(300.000000, 359.000000)">
                <g id="Group-7" transform="translate(0.000000, 75.000000)">
                    <g id="Group" transform="translate(31.000000, 31.000000)">
                        <path d="M69.6666667,60.6666667 L69.6666667,64 C69.6666667,64.3666667 69.3666667,64.6666667 69,64.6666667 L61,64.6666667 C60.6333333,64.6666667 60.3333333,64.3666667 60.3333333,64 L60.3333333,60.6666667 C60.3333333,60.3 60.0333333,60 59.6666667,60 C59.3,60 59,60.3 59,60.6666667 L59,64.6666667 C59,65.4 59.6,66 60.3333333,66 L69.6666667,66 C70.4,66 71,65.4 71,64.6666667 L71,60.6666667 C71,60.3 70.7,60 70.3333333,60 C69.9666667,60 69.6666667,60.3 69.6666667,60.6666667 Z M65.6666667,60.4466667 L66.92,59.1933333 C67.18,58.9333333 67.6,58.9333333 67.86,59.1933333 C68.12,59.4533333 68.12,59.8733333 67.86,60.1333333 L65.4666667,62.5266667 C65.2066667,62.7866667 64.7866667,62.7866667 64.5266667,62.5266667 L62.1333333,60.1333333 C62.0084982,60.008779 61.9383429,59.8396784 61.9383429,59.6633333 C61.9383429,59.4869882 62.0084982,59.3178877 62.1333333,59.1933333 C62.3933333,58.9333333 62.8133333,58.9333333 63.0733333,59.1933333 L64.3333333,60.4466667 L64.3333333,54.6666667 C64.3333333,54.3 64.6333333,54 65,54 C65.3666667,54 65.6666667,54.3 65.6666667,54.6666667 L65.6666667,60.4466667 Z" id="icon/content/save_alt_24px"></path>
                    </g>
                </g>
            </g>
        </g>
    </g>
</svg>