<?xml version="1.0" encoding="UTF-8"?>
<svg width="20px" height="21px" viewBox="0 0 24 25" version="1.1" xmlns="http://www.w3.org/2000/svg" xmlns:xlink="http://www.w3.org/1999/xlink">
    <!-- Generator: Sketch 55 (78076) - https://sketchapp.com -->
    <title>Female</title>
    <desc>Created with Sketch.</desc>
    <g id="Web-App" stroke="none" stroke-width="1" fill="none" fill-rule="evenodd">
        <g id="Create-Request-&gt;-3-Stipend" transform="translate(-596.000000, -135.000000)" fill="#999" fill-rule="nonzero">
            <g id="Female" transform="translate(596.000000, 135.000000)">
                <g id="Group">
                    <path d="M23.92,24.3145161 C23.7,23.125 23.24,20.5846774 23.14,20.2620968 C22.54,18.4677419 20.94,17.7217742 19.32,17.0967742 C18.06,16.6129032 16.82,16.108871 15.56,15.625 L12,19.2137097 L8.44,15.625 C7.18,16.108871 5.94,16.6129032 4.68,17.0967742 C3.06,17.7419355 1.46,18.4677419 0.86,20.2620968 C0.76,20.5846774 0.3,23.125 0.08,24.3145161 C0.02,24.6169355 0.26,24.9193548 0.58,24.9193548 L12,24.9193548 L23.42,24.9193548 C23.74,24.8991935 23.98,24.6169355 23.92,24.3145161 Z" id="Path"></path>
                    <path d="M19.48,13.0241935 C17.92,13.4879032 16.34,13.8104839 14.78,13.9919355 C14.62,14.0120968 14.54,13.8104839 14.68,13.7096774 C15.8,12.8830645 16.52,11.5725806 16.52,10.0806452 L16.52,6.29032258 L15.86,6.10887097 C15.2,5.92741935 14.56,5.66532258 13.94,5.32258065 L13.5,5.08064516 L13.06,5.34274194 C11.46,6.27016129 9.92,6.75403226 8.36,6.83467742 L7.5,6.89516129 L7.5,10.0806452 C7.5,11.4516129 8.16,12.8427419 9.34,13.7096774 C9.46,13.8104839 9.4,14.0120968 9.24,13.9919355 C7.68,13.8104839 6.1,13.4879032 4.54,13.0241935 C3.92,12.8427419 3.58,12.1774194 3.78,11.5725806 L6.2,4.33467742 C7,1.79435484 9.36,0.100806452 12,0.100806452 C12.42,0.100806452 12.84,0.161290323 13.22,0.302419355 C13.6,0.443548387 13.92,0.705645161 14.24,0.967741935 C14.6,0.927419355 14.94,0.887096774 15.28,1.06854839 C16.48,1.71370968 17.4,3.04435484 17.82,4.33467742 C17.82,4.33467742 20.24,11.5725806 20.24,11.5725806 C20.44,12.1774194 20.1,12.8427419 19.48,13.0241935 Z" id="Path"></path>
                </g>
            </g>
        </g>
    </g>
</svg>
