<svg xmlns="http://www.w3.org/2000/svg" width="60" height="72" viewBox="0 0 60 72">
    <g fill="none" fill-rule="nonzero">
        <path fill="#FDC500" d="M44.9 16.1c-7.9-7.9-20.7-7.9-28.6 0-7.8 7.8-7.7 20.3.3 28.3.1.1.3.2.5.4.2.1 3.9 2.6 3.9 11.6 0 1.2 1 2.2 2.2 2.2h14.6c1.2 0 2.2-1 2.2-2.2 0-9 3.8-11.5 3.9-11.5.2-.1.4-.2.5-.4 8.2-8.2 8.3-20.6.5-28.4z"/>
        <path fill="#86C2F7" d="M33.9 72h-6.8c-1.2 0-2.2-1-2.2-2.2 0-1.2 1-2.2 2.2-2.2h6.8c1.2 0 2.2 1 2.2 2.2 0 1.2-.9 2.2-2.2 2.2zM36.2 65.2H24.9c-1.2 0-2.2-1-2.2-2.2 0-1.2 1-2.2 2.2-2.2h11.2c1.2 0 2.2 1 2.2 2.2 0 1.2-.9 2.2-2.1 2.2z"/>
        <path fill="#FDC500" d="M30 7.9c-1.2 0-2.2-1-2.2-2.2V2.2C27.8 1 28.8 0 30 0c1.2 0 2.2 1 2.2 2.2v3.4c0 1.3-1 2.3-2.2 2.3zM5.8 32.1H2.4c-1.2 0-2.2-1-2.2-2.2 0-1.2 1-2.2 2.2-2.2h3.4c1.2 0 2.2 1 2.2 2.2 0 1.2-.9 2.2-2.2 2.2zM57.6 32.1h-2.2c-1.2 0-2.2-1-2.2-2.2 0-1.2 1-2.2 2.2-2.2h2.2c1.2 0 2.2 1 2.2 2.2 0 1.2-1 2.2-2.2 2.2zM10.5 51.6c-.6 0-1.2-.2-1.6-.7-.9-.9-.9-2.3 0-3.2l2.4-2.4c.9-.9 2.3-.9 3.2 0 .9.9.9 2.3 0 3.2l-2.4 2.4c-.4.4-1 .7-1.6.7zM47.9 14.2c-.6 0-1.2-.2-1.6-.7-.9-.9-.9-2.3 0-3.2l1.6-1.6c.9-.9 2.3-.9 3.2 0 .9.9.9 2.3 0 3.2l-1.6 1.6c-.4.4-1 .7-1.6.7zM12.9 15c-.6 0-1.2-.2-1.6-.7l-2.4-2.4C8 11 8 9.6 8.9 8.7c.9-.9 2.3-.9 3.2 0l2.4 2.4c.9.9.9 2.3 0 3.2-.5.4-1 .7-1.6.7zM49.5 51.6c-.6 0-1.2-.2-1.6-.7l-1.6-1.6c-.9-.9-.9-2.3 0-3.2.9-.9 2.3-.9 3.2 0l1.6 1.6c.9.9.9 2.3 0 3.2-.5.4-1 .7-1.6.7z"/>
    </g>
</svg>
