<?xml version="1.0" encoding="UTF-8"?>
<svg width="17px" height="17px" viewBox="0 0 17 17" version="1.1" xmlns="http://www.w3.org/2000/svg" xmlns:xlink="http://www.w3.org/1999/xlink">
    <!-- Generator: Sketch 54.1 (76490) - https://sketchapp.com -->
    <title>Help Icon</title>
    <desc>Created with Sketch.</desc>
    <g id="Web-App" stroke="none" stroke-width="1" fill="none" fill-rule="evenodd">
        <g id="New-Checklist-&gt;-Flight-Details" transform="translate(-507.000000, -138.000000)" fill="#3359DB" fill-rule="nonzero">
            <g id="Help-Icon" transform="translate(507.000000, 138.000000)">
                <path d="M8.5,0.1549125 C3.898525,0.1549125 0.1547,3.8983125 0.1547,8.5 C0.1547,13.101475 3.898525,16.8450875 8.5,16.8450875 C13.1019,16.8450875 16.8450875,13.101475 16.8450875,8.5 C16.8450875,3.8983125 13.1019,0.1549125 8.5,0.1549125 M8.5,15.5054875 C4.6373875,15.5054875 1.4949375,12.362825 1.4949375,8.5 C1.4949375,4.637175 4.6373875,1.494725 8.5,1.494725 C12.362825,1.494725 15.5050625,4.637175 15.5050625,8.5 C15.5050625,12.362825 12.362825,15.5054875 8.5,15.5054875 M8.3674,11.189825 C8.0699,11.189825 7.816175,11.2950125 7.606225,11.5045375 C7.3964875,11.7144875 7.2915125,11.9682125 7.2915125,12.2652875 C7.2915125,12.5627875 7.3964875,12.8165125 7.606225,13.0264625 C7.816175,13.2362 8.0699,13.341175 8.3674,13.341175 C8.6646875,13.341175 8.918625,13.2362 9.1287875,13.0264625 C9.3383125,12.8165125 9.4432875,12.5627875 9.4432875,12.2652875 C9.4432875,11.9682125 9.3383125,11.7144875 9.1287875,11.5045375 C8.9188375,11.2950125 8.6649,11.189825 8.3674,11.189825 M10.7263625,4.2731625 C10.4110125,4.06385 10.0544375,3.9093625 9.65685,3.80885 C9.2592625,3.70855 8.8508375,3.6584 8.432,3.6584 C8.0308,3.6584 7.6468125,3.7236375 7.2800375,3.85475 C6.913475,3.9854375 6.5881375,4.162025 6.3046625,4.3840875 C6.0207625,4.606575 5.7938125,4.8637 5.6238125,5.1561 C5.4538125,5.448075 5.3686,5.7555625 5.3686,6.0785625 C5.3686,6.3403625 5.4536,6.5388375 5.6238125,6.6744125 C5.7938125,6.8095625 5.9927125,6.87735 6.2196625,6.87735 C6.428975,6.87735 6.5928125,6.833575 6.7105375,6.7462375 C6.8286875,6.6591125 6.92665,6.5524375 7.005275,6.425575 C7.0839,6.298925 7.1533875,6.1618625 7.2145875,6.013325 C7.2757875,5.865 7.3561125,5.7273 7.4568375,5.6008625 C7.5575625,5.474425 7.6880375,5.36775 7.8499625,5.2802 C8.01125,5.1928625 8.2314,5.1493 8.5108375,5.1493 C8.90375,5.1493 9.2112375,5.247475 9.433725,5.4440375 C9.6562125,5.6403875 9.767775,5.9177 9.767775,6.275125 C9.767775,6.493575 9.71125,6.685675 9.5992625,6.8512125 C9.48685,7.017175 9.34575,7.17655 9.1755375,7.3293375 C9.005325,7.4819125 8.8223625,7.6302375 8.6260125,7.774525 C8.4296625,7.9183875 8.2460625,8.0733 8.07585,8.2392625 C7.90585,8.4050125 7.7641125,8.586275 7.65085,8.7828375 C7.5371625,8.9791875 7.48085,9.2082625 7.48085,9.4700625 C7.48085,9.6791625 7.5503375,9.87785 7.6901625,10.0654875 C7.8295625,10.25355 8.0390875,10.3472625 8.3187375,10.3472625 C8.5367625,10.3472625 8.7006,10.3119875 8.809825,10.2422875 C8.918625,10.1728 9.003625,10.0833375 9.0650375,9.9739 C9.1256,9.8648875 9.176175,9.744825 9.215275,9.6137125 C9.2548,9.4832375 9.3136625,9.3608375 9.392075,9.24715 C9.461775,9.1423875 9.568875,9.0378375 9.713375,8.933075 C9.85745,8.8283125 10.016825,8.7125 10.1915,8.5860625 C10.366175,8.459625 10.54765,8.3198 10.7357125,8.1670125 C10.92335,8.01465 11.0939875,7.84635 11.2465625,7.663175 C11.39935,7.479575 11.523875,7.274725 11.6201375,7.047775 C11.715975,6.820825 11.7646375,6.5634875 11.7646375,6.275125 C11.7646375,5.8125125 11.6705,5.4155625 11.4820125,5.0844875 C11.2933125,4.752775 11.0412875,4.482475 10.7263625,4.2731625" id="Shape"></path>
            </g>
        </g>
    </g>
</svg>
