<?xml version="1.0" encoding="UTF-8"?>
<svg width="20px" height="20px" viewBox="0 0 24 24" version="1.1" xmlns="http://www.w3.org/2000/svg" xmlns:xlink="http://www.w3.org/1999/xlink">
    <!-- Generator: Sketch 55 (78076) - https://sketchapp.com -->
    <title>Male</title>
    <desc>Created with Sketch.</desc>
    <g id="Web-App" stroke="none" stroke-width="1" fill="none" fill-rule="evenodd">
        <g id="Create-Request-&gt;-3-Stipend" transform="translate(-626.000000, -136.000000)" fill="#999" fill-rule="nonzero">
            <g id="Male" transform="translate(626.000000, 136.000000)">
                <g id="Group">
                    <path d="M12,17 C9.537,17 7.349,15.01 6.441,11.999 C5.616,11.951 5,10.893 5,9.5 C5,9.051 5.067,8.613 5.194,8.233 C5.281,7.971 5.564,7.829 5.826,7.917 C6.089,8.004 6.23,8.288 6.143,8.549 C6.049,8.829 6,9.158 6,9.5 C6,10.468 6.375,11 6.5,11 C6.636,10.916 6.819,10.889 6.968,10.95 C7.116,11.01 7.242,11.126 7.281,11.281 C7.981,14.104 9.877,16 12,16 C14.123,16 16.019,14.104 16.719,11.281 C16.758,11.126 16.868,10.998 17.016,10.938 C17.164,10.878 17.333,10.893 17.468,10.977 C17.64,10.999 18,10.467 18,9.5 C18,9.158 17.951,8.829 17.857,8.549 C17.77,8.287 17.911,8.004 18.173,7.917 C18.435,7.829 18.718,7.971 18.805,8.233 C18.933,8.613 19,9.051 19,9.5 C19,10.893 18.384,11.951 17.559,11.999 C16.651,15.01 14.463,17 12,17 Z" id="Path"></path>
                    <path d="M19.635,16.626 L17.063,15.731 C16.875,15.666 16.666,15.719 16.53,15.865 C15.269,17.242 13.66,18 12,18 C10.34,18 8.731,17.242 7.47,15.866 C7.335,15.72 7.126,15.667 6.937,15.732 L4.365,16.627 C1.754,17.534 0,20.001 0,22.766 L0,23.5 C0,23.776 0.224,24 0.5,24 L23.5,24 C23.776,24 24,23.776 24,23.5 L24,22.766 C24,20.001 22.246,17.534 19.635,16.626 Z" id="Path"></path>
                    <path d="M12,0 C8.14,0 5,3.14 5,7 C5,7.464 5.057,7.94 5.18,8.499 C5.23,8.728 5.433,8.892 5.668,8.892 C6.234,8.892 6.918,8.994 6.925,8.995 C6.954,8.999 6.979,9.001 7.01,9 C7.283,9.004 7.52,8.78 7.52,8.5 C7.52,8.439 7.509,8.382 7.49,8.328 C7.429,7.33 7.492,6.321 7.631,6 L7.707,6 C9.436,6 10.298,5.451 10.696,4.758 C11.774,5.822 13.942,6.848 16.038,6.984 C16.157,7.824 16.525,8.66 16.544,8.702 C16.624,8.885 16.804,9 17,9 C17.013,9 17.027,9 17.041,8.999 L18.373,8.89 C18.592,8.872 18.773,8.713 18.821,8.499 C18.943,7.94 19,7.464 19,7 C19,3.14 15.86,0 12,0 Z" id="Path"></path>
                    <path d="M10.5,10 L9.5,10 C9.224,10 9,9.776 9,9.5 C9,9.224 9.224,9 9.5,9 L10.5,9 C10.776,9 11,9.224 11,9.5 C11,9.776 10.776,10 10.5,10 Z" id="Path"></path>
                    <path d="M14.5,10 L13.5,10 C13.224,10 13,9.776 13,9.5 C13,9.224 13.224,9 13.5,9 L14.5,9 C14.776,9 15,9.224 15,9.5 C15,9.776 14.776,10 14.5,10 Z" id="Path"></path>
                </g>
            </g>
        </g>
    </g>
</svg>
