<?xml version="1.0" encoding="UTF-8"?>
<svg width="25px" height="25px" viewBox="0 0 25 25" version="1.1" xmlns="http://www.w3.org/2000/svg" xmlns:xlink="http://www.w3.org/1999/xlink">
    <!-- Generator: Sketch 55 (78076) - https://sketchapp.com -->
    <title>Unisex</title>
    <desc>Created with Sketch.</desc>
    <g id="Web-App" stroke="none" stroke-width="1" fill="none" fill-rule="evenodd">
        <g id="Create-Request-&gt;-3-Stipend" transform="translate(-656.000000, -135.000000)" fill="#3359DB" fill-rule="nonzero">
            <g id="Unisex" transform="translate(656.000000, 135.000000)">
                <path d="M12.5,0 C19.3925,0 25,5.6075 25,12.5 C25,19.3925 19.3925,25 12.5,25 C5.6075,25 0,19.3925 0,12.5 C0,5.6075 5.6075,0 12.5,0 Z M12.2819091,6.03416 L12.2819091,19.96556 L13.1104545,19.96556 L13.1104545,6.03416 L12.2819091,6.03416 Z M7.07445455,13.0098 L7.58990909,13.79436 L8.10590909,19.80344 L9.92609091,19.80344 L10.4426364,13.79436 L10.4480909,13.79436 L10.9640909,13.0098 L10.9640909,9.54592 L7.07445455,9.54592 L7.07445455,13.0098 Z M9.01927273,9.073 C9.79302366,9.073 10.4202727,8.42902429 10.4202727,7.63464 C10.4202727,6.84025571 9.79302366,6.19628 9.01927273,6.19628 C8.24552179,6.19628 7.61827273,6.84025571 7.61827273,7.63464 C7.61827273,8.42902429 8.24552179,9.073 9.01927273,9.073 Z M16.7107273,9.09596 C17.4906538,9.09596 18.1229091,8.44684452 18.1229091,7.64612 C18.1229091,6.84539548 17.4906538,6.19628 16.7107273,6.19628 C15.9308008,6.19628 15.2985455,6.84539548 15.2985455,7.64612 C15.2985455,8.44684452 15.9308008,9.09596 16.7107273,9.09596 Z M18.1452727,13.48048 L18.151,13.48048 L18.6708182,12.68976 L18.151,9.57168 L15.2704545,9.57168 L14.7509091,12.68976 L15.2704545,13.48048 L14.4907273,16.45968 L15.5262727,16.45968 L15.7902727,19.80344 L17.6257273,19.80344 L17.8897273,16.45968 L18.9255455,16.45968 L18.1452727,13.48048 Z" id="Combined-Shape"></path>
            </g>
        </g>
    </g>
</svg>