<?xml version="1.0" encoding="UTF-8"?>
<svg width="14px" height="18px" viewBox="0 0 14 18" version="1.1" xmlns="http://www.w3.org/2000/svg" xmlns:xlink="http://www.w3.org/1999/xlink">
    <!-- Generator: Sketch 55.1 (78136) - https://sketchapp.com -->
    <title>doc</title>
    <desc>Created with Sketch.</desc>
    <g id="Web-App" stroke="none" stroke-width="1" fill="none" fill-rule="evenodd">
        <g id="New-Checklist-&gt;-1" transform="translate(-426.000000, -956.000000)" fill="#3359DB">
            <g id="Group-16" transform="translate(300.000000, 359.000000)">
                <g id="Tasks">
                    <g id="2-copy" transform="translate(68.000000, 515.000000)">
                        <g id="Group-14-Copy" transform="translate(43.000000, 72.000000)">
                            <g id="doc" transform="translate(15.000000, 10.000000)">
                                <path d="M8.87572816,18 C8.49514563,18 8.1961165,17.6937355 8.1961165,17.3039443 L8.1961165,13.6287703 C8.1961165,12.4593968 9.13398058,11.4988399 10.2757282,11.4988399 L12.6407767,11.4988399 L12.6407767,2.2412993 C12.6407767,1.76798144 12.2601942,1.39211137 11.8116505,1.39211137 L2.18834951,1.39211137 C1.72621359,1.39211137 1.3592233,1.78190255 1.3592233,2.2412993 L1.3592233,15.7447796 C1.3592233,16.2180974 1.73980583,16.5939675 2.18834951,16.5939675 L5.54563107,16.5939675 C5.92621359,16.5939675 6.22524272,16.900232 6.22524272,17.2900232 C6.22524272,17.6798144 5.92621359,17.9860789 5.54563107,17.9860789 L2.18834951,17.9860789 C0.978640777,17.9860789 0,16.9837587 0,15.7447796 L0,2.2412993 C0,1.00232019 0.978640777,0 2.18834951,0 L11.8116505,0 C13.0213592,0 14,1.00232019 14,2.2412993 L14,12.1948956 C14,12.5846868 13.7009709,12.8909513 13.3203883,12.8909513 L10.2757282,12.8909513 C9.8815534,12.8909513 9.55533981,13.225058 9.55533981,13.6287703 L9.55533981,17.3039443 C9.55533981,17.6798144 9.25631068,18 8.87572816,18 Z" id="Path"></path>
                                <path d="M8.86121437,18 C8.76579926,18 8.67038414,17.9861933 8.57496902,17.9309665 C8.32961586,17.8205128 8.17967782,17.5719921 8.17967782,17.3096647 L8.17967782,13.6646943 C8.17967782,12.504931 9.12019827,11.5522682 10.2651797,11.5522682 L13.3184634,11.5522682 C13.7001239,11.5522682 14,11.8560158 14,12.2426036 C14,12.6291913 13.7001239,12.9329389 13.3184634,12.9329389 L10.2651797,12.9329389 C9.86988848,12.9329389 9.54275093,13.2642998 9.54275093,13.6646943 L9.54275093,15.790927 L11.7100372,13.8994083 C11.9962825,13.6508876 12.4188352,13.678501 12.6778191,13.9684418 C12.9231722,14.2583826 12.8959108,14.6863905 12.6096654,14.9487179 L9.32465923,17.8343195 C9.18835192,17.9447732 9.02478315,18 8.86121437,18 Z M10.5650558,5.38067061 L3.68153656,5.38067061 C3.29987608,5.38067061 3,5.07692308 3,4.69033531 C3,4.30374753 3.29987608,4 3.68153656,4 L10.5650558,4 C10.9467162,4 11.2465923,4.30374753 11.2465923,4.69033531 C11.2465923,5.07692308 10.9330855,5.38067061 10.5650558,5.38067061 Z M10.5650558,9.77120316 L3.68153656,9.77120316 C3.29987608,9.77120316 3,9.46745562 3,9.08086785 C3,8.69428008 3.29987608,8.39053254 3.68153656,8.39053254 L10.5650558,8.39053254 C10.9467162,8.39053254 11.2465923,8.69428008 11.2465923,9.08086785 C11.2465923,9.46745562 10.9330855,9.77120316 10.5650558,9.77120316 Z M6.31226766,14.1617357 L3.68153656,14.1617357 C3.29987608,14.1617357 3,13.8579882 3,13.4714004 C3,13.0848126 3.29987608,12.7810651 3.68153656,12.7810651 L6.31226766,12.7810651 C6.69392813,12.7810651 6.99380421,13.0848126 6.99380421,13.4714004 C6.99380421,13.8579882 6.69392813,14.1617357 6.31226766,14.1617357 L6.31226766,14.1617357 Z" id="Shape" fill-rule="nonzero"></path>
                            </g>
                        </g>
                    </g>
                </g>
            </g>
        </g>
    </g>
</svg>